<svg width="819" height="760" viewBox="0 0 819 760" fill="none" xmlns="http://www.w3.org/2000/svg">
<g clip-path="url(#clip0_121_710)">
<path d="M547.323 316.881C548.671 284.736 523.964 254.755 500.498 262.358C477.032 269.962 458.165 292.583 455.839 314.562C453.513 336.541 492.964 324.148 510.618 331.801C528.321 339.562 546.649 332.049 547.323 316.881Z" stroke="#464646" stroke-opacity="0.6" stroke-miterlimit="10"/>
<path d="M449.645 258.38C427.428 267.625 428.982 289.936 414.678 308.581C406.317 319.541 407.374 325.531 409.741 331.197C413.6 340.205 431.056 346.002 437.825 347.77C458.41 353.337 491.42 350.529 508.836 362.03C539.691 382.279 559.182 343.75 566.958 323.876C576.96 298.487 570.947 279.583 555.014 269.232C519.277 246.374 519.224 229.598 449.645 258.38Z" stroke="#464646" stroke-opacity="0.6" stroke-miterlimit="10"/>
<path d="M519.054 229.751C507.086 214.856 476.775 231.463 425.069 240.224C385.963 246.875 396.011 289.978 371.627 319.502C346.543 349.987 365.394 354.298 392.752 362.86C423.361 372.566 481.394 369.674 510.209 391.976C553.524 425.454 575.679 355.179 589.67 330.541C609.9 294.959 598.26 275.38 578.151 261.388C557.445 247.142 527.457 240.27 519.054 229.751Z" stroke="#464646" stroke-opacity="0.6" stroke-miterlimit="10"/>
<path d="M531.001 212.305C519.154 187.211 475.723 211.609 401.209 221.424C345.911 228.654 363.468 289.362 328.875 329.941C292.202 372.744 319.941 379.473 363.236 386.283C407.582 393.274 477.451 391.886 512.329 421.132C568.183 468.034 593.43 365.945 613.665 336.301C644.849 290.62 629.073 268.313 602.741 252.783C576.313 237.036 538.896 228.907 531.001 212.305Z" stroke="#464646" stroke-opacity="0.6" stroke-miterlimit="10"/>
<path d="M637.486 341.259C679.528 285.927 659.532 260.675 627.336 243.571C595.005 226.527 550.427 217.524 543.075 194.534C531.695 159.623 474.702 191.596 377.732 202.426C306.319 210.416 331.42 288.38 286.642 339.755C238.87 394.921 275.504 404.227 334.102 408.8C392.835 413.312 473.716 413.139 514.525 449.178C582.572 509.316 611.232 375.848 637.486 341.259Z" stroke="#464646" stroke-opacity="0.6" stroke-miterlimit="10"/>
<path d="M346.891 191.495C275.871 211.456 278.782 284.908 237.097 339.481C195.325 394.222 223.295 411.306 274.003 429.407C302.611 439.599 348.117 434.107 392.444 433.933C441.449 433.748 483.764 443.538 507.56 483.466C554.109 561.714 636.169 391.747 659.373 347.863C691.888 286.491 668.901 256.696 633.841 234.219C598.647 211.802 552.939 197.305 544.718 167.671C532.538 123.737 452.227 161.955 346.891 191.495Z" stroke="#464646" stroke-opacity="0.6" stroke-miterlimit="10"/>
<path d="M317.2 180.51C246.534 211.325 227.061 281.256 188.744 338.983C152.743 393.219 171.411 421.302 215.242 449.707C245.679 469.441 305.451 456.169 364.221 451.503C426.118 446.609 479.32 454.783 501.785 517.051C534.295 607.613 662.891 407.503 682.515 353.824C706.927 287.005 679.679 251.993 641.68 224.358C603.682 196.722 556.934 176.609 547.996 140.309C534.731 87.8038 431.37 130.715 317.2 180.51Z" stroke="#464646" stroke-opacity="0.6" stroke-miterlimit="10"/>
<path d="M291.143 172.902C220.538 213.921 178.618 280.888 143.714 341.882C113.064 395.413 121.477 435.956 159.632 473.357C190.564 503.615 265.981 481.692 339.19 472.536C413.889 463.106 480.947 468.732 499.249 554.21C521.168 656.467 693.794 426.801 708.887 363.361C726.155 291.054 693.558 250.919 652.753 218.064C611.899 185.102 564.022 159.54 554.365 116.573C540.552 55.2539 413.348 101.788 291.143 172.902Z" stroke="#464646" stroke-opacity="0.6" stroke-miterlimit="10"/>
</g>
<defs>
<clipPath id="clip0_121_710">
<rect width="656" height="539" fill="white" transform="matrix(0.913545 -0.406737 0.407567 0.913176 0 267)"/>
</clipPath>
</defs>
</svg>
