<svg width="1119" height="1229" viewBox="0 0 1119 1229" fill="none" xmlns="http://www.w3.org/2000/svg">
<g clip-path="url(#clip0_177_33)">
<path d="M381.31 442.214C335.454 451.658 301.744 497.034 320.668 527.399C339.592 557.764 378.114 576.353 409.958 571.873C441.802 567.392 410.538 516.206 415.183 488.642C419.964 460.972 402.96 437.811 381.31 442.214Z" stroke="#464646" stroke-opacity="0.7" stroke-miterlimit="10"/>
<path d="M332.241 599.815C352.969 627.737 383.827 617.702 415.034 631.211C433.361 639.086 441.424 635.493 448.576 630.177C459.912 621.591 462.006 595.054 462.143 584.933C462.826 554.087 447.409 508.754 457.544 480.265C475.322 429.838 414.332 416.051 383.662 412.135C344.46 407.037 319.946 422.13 310.913 448.133C291.16 506.329 267.57 512.309 332.241 599.815Z" stroke="#464646" stroke-opacity="0.7" stroke-miterlimit="10"/>
<path d="M268.453 512.376C251.703 534.404 285.708 571.241 316.19 640.905C339.28 693.585 396.382 664.416 446.476 688.412C498.166 713.056 497.611 685.04 500.047 643.577C502.951 597.142 478.502 516.532 499.754 468.226C531.635 395.629 425.001 388.984 385.43 377.901C328.274 361.863 304.821 385.063 292.2 418.226C279.433 452.316 280.298 496.889 268.453 512.376Z" stroke="#464646" stroke-opacity="0.7" stroke-miterlimit="10"/>
<path d="M240.164 501.734C209.14 527.057 258.606 579.532 298.542 680.672C328.103 755.749 407.055 710.065 476.104 744.527C549 781.136 548.69 739.885 543.03 676.78C537.255 612.138 510.767 514.593 539.521 455.516C585.663 360.889 433.655 360.868 384.983 342.758C309.979 314.846 284.244 344.716 271.718 387.045C258.923 429.585 260.668 484.901 240.164 501.734Z" stroke="#464646" stroke-opacity="0.7" stroke-miterlimit="10"/>
<path d="M384.25 307.735C291.713 267.94 263.23 304.85 250.482 356.064C237.865 407.447 240.85 473.24 211.11 491.59C166.026 519.757 230.97 588.709 280.219 721.221C316.508 818.803 417.303 756.338 505.237 801.358C599.552 849.264 599.781 794.531 585.648 710.579C571.384 626.458 542.761 512.843 579.107 442.921C639.773 326.314 442.087 332.573 384.25 307.735Z" stroke="#464646" stroke-opacity="0.7" stroke-miterlimit="10"/>
<path d="M274.77 767.3C327.687 860.082 429.927 830.33 521.235 869.815C612.81 909.362 627.037 864.106 634.737 786.557C639.053 742.811 615.406 680.812 599.648 618.61C582.238 549.84 581.191 486.982 628.995 439.608C722.706 346.885 455.045 291.006 385.233 273.745C287.576 249.517 253.734 292.215 234.406 349.314C215.21 406.582 210.826 475.85 172.044 497.75C114.545 530.209 196.378 629.662 274.77 767.3Z" stroke="#464646" stroke-opacity="0.7" stroke-miterlimit="10"/>
<path d="M271.379 812.677C339.44 901.185 444.691 904.017 539.343 937.615C628.271 969.185 661.288 933.095 685.972 861.525C703.125 811.822 663.567 732.471 636.473 651.508C607.968 566.23 600.896 488.588 680.714 435.167C796.859 357.699 470.227 247.172 387.803 238.425C285.206 227.559 245.43 278.14 219.795 341.243C194.159 404.345 182.167 477.105 134.184 502.403C64.8971 539.469 161.405 669.685 271.379 812.677Z" stroke="#464646" stroke-opacity="0.7" stroke-miterlimit="10"/>
<path d="M268.667 850.887C351.161 935.891 460.052 971.519 558.079 999.36C644.118 1023.82 698.163 997.869 737.336 931.189C769.003 877.153 711.666 778.733 673.057 678.973C633.537 577.211 617.873 480.952 731.62 425.446C867.687 359.012 484.093 196.24 389.591 197.108C281.857 198.008 236.888 257.825 205.04 326.648C173.057 395.577 153.949 471.807 96.9324 500.35C15.5753 541.129 125.721 703.803 268.667 850.887Z" stroke="#464646" stroke-opacity="0.7" stroke-miterlimit="10"/>
</g>
<defs>
<clipPath id="clip0_177_33">
<rect width="950" height="780" fill="white" transform="translate(504 1229) rotate(-128)"/>
</clipPath>
</defs>
</svg>
