<?xml version="1.0" standalone="no"?>
<!DOCTYPE svg PUBLIC "-//W3C//DTD SVG 1.1//EN" "http://www.w3.org/Graphics/SVG/1.1/DTD/svg11.dtd" >
<svg xmlns="http://www.w3.org/2000/svg" xmlns:xlink="http://www.w3.org/1999/xlink" version="1.1">
<metadata>
Created by FontForge 20170731 at Tue Mar 14 12:35:51 2017
 By Aleksey,,,
Copyright (c) 2016 by Russian Fonts. All rights reserved.
</metadata>
<defs>
<font id="RFRufo-Regular" horiz-adv-x="0" >
  <font-face 
    font-family="RF Rufo"
    font-weight="400"
    font-stretch="extra-condensed"
    units-per-em="1000"
    panose-1="0 0 5 8 0 0 0 0 0 0"
    ascent="800"
    descent="-200"
    x-height="534"
    cap-height="692"
    bbox="-412 -193 843 881"
    underline-thickness="50"
    underline-position="-200"
    unicode-range="U+0020-2265"
  />
<missing-glyph horiz-adv-x="600" 
 />
    <glyph glyph-name=".notdef" horiz-adv-x="600" 
 />
    <glyph glyph-name=".null" 
 />
    <glyph glyph-name="nonmarkingreturn" horiz-adv-x="333" 
 />
    <glyph glyph-name="space" unicode=" " horiz-adv-x="156" 
 />
    <glyph glyph-name="exclam" unicode="!" horiz-adv-x="240" 
d="M84 692h72l-7 -473h-58zM80 86h80v-86h-80v86z" />
    <glyph glyph-name="quotedbl" unicode="&#x22;" horiz-adv-x="304" 
d="M112 692v-220h-54v220h54zM246 692v-220h-54v220h54z" />
    <glyph glyph-name="numbersign" unicode="#" horiz-adv-x="512" 
d="M35 274h95l22 162h-94v56h102l28 200h62l-28 -200h112l28 200h62l-28 -200h85v-56h-93l-22 -162h92v-56h-100l-30 -218h-62l30 218h-112l-30 -218h-62l30 218h-87v56zM304 274l22 162h-112l-22 -162h112z" />
    <glyph glyph-name="dollar" unicode="$" horiz-adv-x="369" 
d="M291 49q-29 -46 -83 -55v-81h-50v81q-52 9 -82 52.5t-30 113.5v52h62v-49q0 -57 20 -86t55 -29t55 30t20 89q0 47 -14 79.5t-49 61.5l-69 59q-38 32 -57 71t-19 96q0 69 28.5 112t79.5 52v81h50v-81q50 -9 77 -52.5t27 -113.5v-40h-62v37q0 115 -67 115q-35 0 -53 -28
t-18 -83q0 -39 12 -64t45 -54l68 -59q43 -37 63 -81.5t20 -104.5q0 -75 -29 -121z" />
    <glyph glyph-name="percent" unicode="%" horiz-adv-x="600" 
d="M29 577q0 53 30 88t83 35t83 -35t30 -88v-46q0 -53 -30 -88t-83 -35t-83 35t-30 88v46zM452 692h60l-364 -692h-60zM97 474q16 -20 45 -20t45 20t16 60v40q0 40 -16 60t-45 20t-45 -20t-16 -60v-40q0 -40 16 -60zM345 161q0 53 30 88t83 35t83 -35t30 -88v-46
q0 -53 -30 -88t-83 -35t-83 35t-30 88v46zM413 58q16 -20 45 -20t45 20t16 60v40q0 40 -16 60t-45 20t-45 -20t-16 -60v-40q0 -40 16 -60z" />
    <glyph glyph-name="ampersand" unicode="&#x26;" horiz-adv-x="428" 
d="M333 0l-30 59q-56 -67 -129 -67q-62 0 -99 46t-37 120q0 53 24 102t86 107l-48 94q-26 50 -26 102q0 61 35.5 99t96.5 38q62 0 98.5 -41t36.5 -112v-21h-62v18q0 49 -19.5 74.5t-53.5 25.5t-52 -21.5t-18 -57.5q0 -41 21 -83l149 -296q20 63 20 134h62q0 -52 -12.5 -105
t-34.5 -98l59 -117h-67zM231.5 65.5q24.5 17.5 43.5 49.5l-101 200q-74 -75 -74 -159q0 -48 20.5 -78t58.5 -30q28 0 52.5 17.5z" />
    <glyph glyph-name="quotesingle" unicode="'" horiz-adv-x="170" 
d="M112 692v-220h-54v220h54z" />
    <glyph glyph-name="parenleft" unicode="(" horiz-adv-x="250" 
d="M91 543.5q27 100.5 84 194.5h53q-50 -97 -76 -201t-26 -210t26 -210t76 -201h-53q-57 94 -84 194.5t-27 216.5t27 216.5z" />
    <glyph glyph-name="parenright" unicode=")" horiz-adv-x="250" 
d="M159 110.5q-27 -100.5 -84 -194.5h-53q50 97 76 201t26 210t-26 210t-76 201h53q57 -94 84 -194.5t27 -216.5t-27 -216.5z" />
    <glyph glyph-name="asterisk" unicode="*" horiz-adv-x="354" 
d="M206 582l90 -43l-22 -39l-82 56l7 -99h-44l7 99l-82 -56l-22 39l90 43l-90 43l22 39l82 -57l-7 100h44l-7 -100l82 57l22 -39z" />
    <glyph glyph-name="plus" unicode="+" horiz-adv-x="394" 
d="M75 326h97v106h50v-106h97v-50h-97v-106h-50v106h-97v50z" />
    <glyph glyph-name="comma" unicode="," horiz-adv-x="162" 
d="M140 86v-56l-41 -166h-34l27 136h-32v86h80z" />
    <glyph glyph-name="hyphen" unicode="-" horiz-adv-x="291" 
d="M233 329v-56h-175v56h175z" />
    <glyph glyph-name="period" unicode="." horiz-adv-x="192" 
d="M56 86h80v-86h-80v86z" />
    <glyph glyph-name="slash" unicode="/" horiz-adv-x="382" 
d="M372 741l-288 -810h-66l288 810h66z" />
    <glyph glyph-name="zero" unicode="0" horiz-adv-x="402" 
d="M53 532q0 77 41 122.5t107 45.5t107 -45.5t41 -122.5v-372q0 -77 -41 -122.5t-107 -45.5t-107 45.5t-41 122.5v372zM139 77.5q24 -29.5 62 -29.5t62 29.5t24 85.5v366q0 56 -24 85.5t-62 29.5t-62 -29.5t-24 -85.5v-366q0 -56 24 -85.5z" />
    <glyph glyph-name="one" unicode="1" horiz-adv-x="308" 
d="M279 56v-56h-240v56h93v580h-82v56h144v-636h85z" />
    <glyph glyph-name="two" unicode="2" horiz-adv-x="358" 
d="M317 56v-56h-284v48l192 365q27 53 27 121q0 56 -19.5 83t-55.5 27t-57 -27.5t-21 -82.5v-28h-62v31q0 77 38.5 120t101.5 43q64 0 100.5 -43t36.5 -123q0 -39 -8.5 -77t-24.5 -67l-176 -334h212z" />
    <glyph glyph-name="three" unicode="3" horiz-adv-x="373" 
d="M321 255v-95q0 -78 -39 -123t-102 -45t-102 45t-39 123v51h62v-48q0 -56 21.5 -85.5t57.5 -29.5t57.5 29.5t21.5 85.5v85q0 117 -84 117h-61v33l142 238h-211v56h275v-47l-134 -225q135 -11 135 -165z" />
    <glyph glyph-name="four" unicode="4" horiz-adv-x="389" 
d="M366 171h-68v-171h-62v171h-214v37l184 484h62l-173 -465h141v168h62v-168h68v-56z" />
    <glyph glyph-name="five" unicode="5" horiz-adv-x="374" 
d="M296 414q35 -41 35 -122v-132q0 -78 -39 -123t-102 -45t-102 45t-39 123v51h62v-48q0 -56 21.5 -85.5t57.5 -29.5t57.5 29.5t21.5 85.5v122q0 114 -74 114q-30 0 -52 -15.5t-29 -40.5h-55l12 349h249v-56h-194l-8 -217q31 36 84 36q59 0 94 -41z" />
    <glyph glyph-name="six" unicode="6" horiz-adv-x="384" 
d="M269.5 373.5q35.5 -21.5 55.5 -61t20 -91.5v-55q0 -52 -20 -91.5t-55.5 -61t-79.5 -21.5t-79.5 21.5t-55.5 61t-20 91.5v55q0 44 18 87l159 384h62l-127 -303q19 6 43 6q44 0 79.5 -21.5zM283 221q0 56 -25.5 87t-67.5 31t-67.5 -31t-25.5 -87v-55q0 -56 25.5 -87
t67.5 -31t67.5 31t25.5 87v55z" />
    <glyph glyph-name="seven" unicode="7" horiz-adv-x="358" 
d="M330 645l-175 -645h-65l172 636h-163v-100h-62v156h293v-47z" />
    <glyph glyph-name="eight" unicode="8" horiz-adv-x="396" 
d="M329 318.5q22 -35.5 22 -88.5v-70q0 -51 -20.5 -89t-55 -58.5t-77.5 -20.5t-77.5 20.5t-55 58.5t-20.5 89v70q0 53 22 88.5t61 52.5q-35 16 -54.5 49.5t-19.5 81.5v38q0 71 40.5 115.5t103.5 44.5t103.5 -44.5t40.5 -115.5v-38q0 -48 -19.5 -81.5t-54.5 -49.5
q39 -17 61 -52.5zM116 505q0 -50 23.5 -78.5t58.5 -28.5t58.5 28.5t23.5 78.5v32q0 50 -23.5 78.5t-58.5 28.5t-58.5 -28.5t-23.5 -78.5v-32zM289 227q0 55 -26.5 85t-64.5 30t-64.5 -30t-26.5 -85v-64q0 -55 26.5 -85t64.5 -30t64.5 30t26.5 85v64z" />
    <glyph glyph-name="nine" unicode="9" horiz-adv-x="384" 
d="M273.5 678.5q35.5 -21.5 55.5 -61t20 -91.5v-55q0 -44 -18 -87l-159 -384h-62l127 303q-19 -6 -43 -6q-44 0 -79.5 21.5t-55.5 61t-20 91.5v55q0 52 20 91.5t55.5 61t79.5 21.5t79.5 -21.5zM287 526q0 56 -25.5 87t-67.5 31t-67.5 -31t-25.5 -87v-55q0 -56 25.5 -87
t67.5 -31t67.5 31t25.5 87v55z" />
    <glyph glyph-name="colon" unicode=":" horiz-adv-x="180" 
d="M64 534h80v-86h-80v86zM64 86h80v-86h-80v86z" />
    <glyph glyph-name="semicolon" unicode=";" horiz-adv-x="180" 
d="M64 534h80v-86h-80v86zM144 86v-56l-41 -166h-34l27 136h-32v86h80z" />
    <glyph glyph-name="less" unicode="&#x3c;" horiz-adv-x="403" 
d="M71 278v47l245 114v-58l-189 -79l189 -80v-58z" />
    <glyph glyph-name="equal" unicode="=" horiz-adv-x="410" 
d="M335 387v-50h-260v50h260zM335 265v-50h-260v50h260z" />
    <glyph glyph-name="greater" unicode="&#x3e;" horiz-adv-x="403" 
d="M87 222l189 80l-189 79v58l245 -114v-47l-245 -114v58z" />
    <glyph glyph-name="question" unicode="?" horiz-adv-x="337" 
d="M140 306.5q8 27.5 21.5 54t26.5 49.5q27 49 37.5 79.5t10.5 60.5q0 44 -18 70.5t-55 26.5q-71 0 -71 -113v-28h-59v31q0 79 33.5 121t96.5 42q64 0 98 -41t34 -107q0 -46 -14 -80t-43 -84q-26 -45 -36.5 -77t-10.5 -63v-59h-59v59q0 31 8 58.5zM121 86h80v-86h-80v86z
" />
    <glyph glyph-name="at" unicode="@" horiz-adv-x="608" 
d="M53 436q0 122 61.5 193t189.5 71t189.5 -71t61.5 -193v-274q0 -43 -24.5 -69t-64.5 -26h-97v38h-2q-15 -21 -36 -33.5t-45 -12.5q-48 0 -75 37t-27 102v175q0 65 27 102t75 37q49 0 81 -43h2l14 35h36v-400h47q21 0 33.5 15t12.5 46v268q0 109 -52.5 169.5t-155.5 60.5
t-155.5 -60.5t-52.5 -169.5v-308q0 -109 52.5 -169.5t155.5 -60.5v-37q-128 0 -189.5 71t-61.5 193v314zM298 105q28 0 47 25t22 67v180q-3 45 -21.5 67t-47.5 22q-62 0 -62 -96v-169q0 -96 62 -96z" />
    <glyph glyph-name="A" unicode="A" horiz-adv-x="356" 
d="M149 692h58l140 -692h-66l-31 175h-144l-31 -175h-66zM240 231l-62 348l-62 -348h124z" />
    <glyph glyph-name="B" unicode="B" horiz-adv-x="392" 
d="M329 319.5q19 -31.5 19 -74.5v-103q0 -63 -39 -102.5t-102 -39.5h-137v692h122q63 0 102 -39.5t39 -102.5v-77q0 -75 -57 -107q34 -15 53 -46.5zM132 636v-249h57q37 0 59.5 23t22.5 66v71q0 43 -22.5 66t-59.5 23h-57zM286 242q0 43 -22.5 66t-59.5 23h-72v-275h72
q37 0 59.5 23t22.5 66v97z" />
    <glyph glyph-name="C" unicode="C" horiz-adv-x="377" 
d="M276 529q0 56 -22 85.5t-57 29.5q-36 0 -59 -29.5t-23 -85.5v-366q0 -56 23 -85.5t59 -29.5t59 29.5t23 85.5v48h62v-51q0 -77 -40 -122.5t-104 -45.5t-104 45.5t-40 122.5v372q0 77 40 122.5t104 45.5q63 0 102 -45.5t39 -122.5v-41h-62v38z" />
    <glyph glyph-name="D" unicode="D" horiz-adv-x="408" 
d="M70 692h134q67 0 109 -43t42 -119v-368q0 -76 -42 -119t-109 -43h-134v692zM202 56q43 0 67 28.5t24 80.5v362q0 52 -24 80.5t-67 28.5h-70v-580h70z" />
    <glyph glyph-name="E" unicode="E" horiz-adv-x="360" 
d="M70 692h242v-56h-180v-247h140v-56h-140v-277h185v-56h-247v692z" />
    <glyph glyph-name="F" unicode="F" horiz-adv-x="325" 
d="M70 692h237v-56h-175v-247h140v-56h-140v-333h-62v692z" />
    <glyph glyph-name="G" unicode="G" horiz-adv-x="397" 
d="M53 532q0 77 41 122.5t105 45.5q63 0 102.5 -45.5t39.5 -122.5v-41h-62v38q0 56 -22.5 85.5t-57.5 29.5q-36 0 -60 -30t-24 -85v-366q0 -55 24 -85t61 -30q34 0 58 26t27 71v173h-81v56h143v-374h-43l-7 48h-5q-18 -29 -41 -42.5t-54 -13.5q-40 0 -73 20.5t-52 58.5
t-19 89v372z" />
    <glyph glyph-name="H" unicode="H" horiz-adv-x="424" 
d="M70 692h62v-303h160v303h62v-692h-62v333h-160v-333h-62v692z" />
    <glyph glyph-name="I" unicode="I" horiz-adv-x="202" 
d="M132 692v-692h-62v692h62z" />
    <glyph glyph-name="J" unicode="J" horiz-adv-x="238" 
d="M109 692h62v-541q0 -72 -36 -111.5t-100 -39.5h-25v56h24q39 0 57 23t18 72v541z" />
    <glyph glyph-name="K" unicode="K" horiz-adv-x="373" 
d="M192 341h-60v-341h-62v692h62v-295h62l84 295h67l-102 -322l122 -370h-69z" />
    <glyph glyph-name="L" unicode="L" horiz-adv-x="322" 
d="M308 56v-56h-238v692h62v-636h176z" />
    <glyph glyph-name="M" unicode="M" horiz-adv-x="544" 
d="M474 692v-692h-62v505l-132 -381h-16l-132 381v-505h-62v692h56l146 -432l146 432h56z" />
    <glyph glyph-name="N" unicode="N" horiz-adv-x="434" 
d="M364 692v-692h-56l-176 512v-512h-62v692h56l176 -512v512h62z" />
    <glyph glyph-name="O" unicode="O" horiz-adv-x="408" 
d="M53 532q0 77 42.5 122.5t108.5 45.5t108.5 -45.5t42.5 -122.5v-372q0 -77 -42.5 -122.5t-108.5 -45.5t-108.5 45.5t-42.5 122.5v372zM140 78q25 -30 64 -30t64 30t25 85v366q0 55 -25 85t-64 30t-64 -30t-25 -85v-366q0 -55 25 -85z" />
    <glyph glyph-name="P" unicode="P" horiz-adv-x="373" 
d="M70 692h121q63 0 102 -39.5t39 -102.5v-139q0 -63 -39 -102.5t-102 -39.5h-59v-269h-62v692zM188 325q37 0 59.5 23t22.5 66v133q0 43 -22.5 66t-59.5 23h-56v-311h56z" />
    <glyph glyph-name="Q" unicode="Q" horiz-adv-x="408" 
d="M334 68q-21 -39 -57 -58l43 -99h-61l-36 82q-6 -1 -19 -1q-66 0 -108.5 45.5t-42.5 122.5v372q0 77 42.5 122.5t108.5 45.5t108.5 -45.5t42.5 -122.5v-372q0 -53 -21 -92zM140 78q25 -30 64 -30t64 30t25 85v366q0 55 -25 85t-64 30t-64 -30t-25 -85v-366q0 -55 25 -85z
" />
    <glyph glyph-name="R" unicode="R" horiz-adv-x="391" 
d="M295 0l-109 279h-54v-279h-62v692h126q63 0 102 -39.5t39 -102.5v-129q0 -49 -24.5 -84.5t-66.5 -49.5l119 -287h-70zM132 335h61q37 0 59.5 23t22.5 66v123q0 43 -22.5 66t-59.5 23h-61v-301z" />
    <glyph glyph-name="S" unicode="S" horiz-adv-x="355" 
d="M36 212h62v-49q0 -56 21 -85.5t57 -29.5t57 30t21 88q0 47 -15.5 80t-50.5 62l-69 59q-39 33 -59 72t-20 95q0 77 36.5 121.5t99.5 44.5q62 0 97 -44.5t35 -123.5v-40h-62v37q0 57 -18 86t-52 29q-35 0 -54.5 -28t-19.5 -81q0 -39 13 -64.5t47 -55.5l68 -59
q44 -38 65 -82.5t21 -104.5q0 -82 -37.5 -129.5t-102.5 -47.5q-63 0 -101.5 45t-38.5 123v52z" />
    <glyph glyph-name="T" unicode="T" horiz-adv-x="320" 
d="M14 692h292v-56h-115v-636h-62v636h-115v56z" />
    <glyph glyph-name="U" unicode="U" horiz-adv-x="422" 
d="M67 692h62v-529q0 -56 23 -85.5t59 -29.5t59 29.5t23 85.5v529h62v-532q0 -77 -40 -122.5t-104 -45.5t-104 45.5t-40 122.5v532z" />
    <glyph glyph-name="V" unicode="V" horiz-adv-x="356" 
d="M75 692l103 -575l103 575h66l-139 -692h-60l-139 692h66z" />
    <glyph glyph-name="W" unicode="W" horiz-adv-x="588" 
d="M575 692l-118 -692h-64l-99 548l-99 -548h-64l-118 692h66l86 -558l98 558h57h5l98 -558l86 558h66z" />
    <glyph glyph-name="X" unicode="X" horiz-adv-x="355" 
d="M274 0l-98 302l-97 -302h-70l130 365l-113 327h69l81 -262l83 262h69l-116 -327l131 -365h-69z" />
    <glyph glyph-name="Y" unicode="Y" horiz-adv-x="346" 
d="M340 692l-136 -397v-295h-62v295l-136 397h70l97 -324l97 324h70z" />
    <glyph glyph-name="Z" unicode="Z" horiz-adv-x="317" 
d="M291 56v-56h-269v47l197 589h-177v56h246v-47l-197 -589h200z" />
    <glyph glyph-name="bracketleft" unicode="[" horiz-adv-x="244" 
d="M77 738h133v-52h-75v-718h75v-52h-133v822z" />
    <glyph glyph-name="backslash" unicode="\" horiz-adv-x="382" 
d="M364 -69h-66l-288 810h66z" />
    <glyph glyph-name="bracketright" unicode="]" horiz-adv-x="248" 
d="M38 -32h75v718h-75v52h133v-822h-133v52z" />
    <glyph glyph-name="asciicircum" unicode="^" horiz-adv-x="341" 
d="M147 692h47l101 -265h-58l-66 196l-67 -196h-58z" />
    <glyph glyph-name="underscore" unicode="_" horiz-adv-x="263" 
d="M260 -62v-50h-257v50h257z" />
    <glyph glyph-name="grave" unicode="`" horiz-adv-x="236" 
d="M160 592l-65 93h70l51 -93h-56z" />
    <glyph glyph-name="a" unicode="a" horiz-adv-x="360" 
d="M267 501q35 -41 35 -105v-396h-39l-14 38h-3q-40 -46 -97 -46q-52 0 -82.5 37t-30.5 98v31q0 62 37 103t99 41h68v91q0 44 -18 68.5t-48 24.5t-48 -24.5t-18 -68.5v-23h-62v26q0 64 35 105t93 41t93 -41zM216 73q21 25 24 62v111h-68q-34 0 -54 -24t-20 -67v-18
q0 -42 18.5 -65.5t47.5 -23.5q31 0 52 25z" />
    <glyph glyph-name="b" unicode="b" horiz-adv-x="382" 
d="M302 505q31 -37 31 -100v-276q0 -63 -31 -100t-85 -37q-59 0 -99 46h-3l-14 -38h-39v702h62v-197q40 37 93 37q54 0 85 -37zM271 395q0 44 -18.5 67.5t-50.5 23.5t-53.5 -24t-24.5 -60v-267q3 -37 24.5 -62t54.5 -25q31 0 49.5 23.5t18.5 67.5v256z" />
    <glyph glyph-name="c" unicode="c" horiz-adv-x="349" 
d="M251 393q0 44 -18.5 68.5t-50.5 24.5t-51.5 -24.5t-19.5 -68.5v-252q0 -44 19.5 -68.5t51.5 -24.5t51.5 24.5t19.5 68.5v29h62v-32q0 -63 -36.5 -104.5t-96.5 -41.5t-96.5 41.5t-36.5 104.5v258q0 63 36.5 104.5t96.5 41.5q61 0 96 -41.5t35 -104.5v-26h-62v23z" />
    <glyph glyph-name="d" unicode="d" horiz-adv-x="382" 
d="M320 702v-702h-39l-14 38h-3q-40 -46 -99 -46q-54 0 -85 37t-31 100v276q0 63 31 100t85 37q53 0 93 -37v197h62zM258 402q-3 36 -24.5 60t-53.5 24t-50.5 -23.5t-18.5 -67.5v-256q0 -44 18.5 -67.5t49.5 -23.5q33 0 54.5 25t24.5 62v267z" />
    <glyph glyph-name="e" unicode="e" horiz-adv-x="364" 
d="M49 396q0 63 36.5 104.5t97.5 41.5t97.5 -41.5t36.5 -104.5v-146h-206v-109q0 -44 19.5 -68.5t51.5 -24.5t51.5 24.5t19.5 68.5v29h62v-32q0 -63 -36.5 -104.5t-96.5 -41.5t-96.5 41.5t-36.5 104.5v258zM255 306v87q0 44 -19.5 68.5t-52.5 24.5q-32 0 -52 -24.5
t-20 -68.5v-87h144z" />
    <glyph glyph-name="f" unicode="f" horiz-adv-x="244" 
d="M19 534h59v61q0 52 29.5 79.5t83.5 27.5h38v-56h-32q-29 0 -43 -14t-14 -46v-52h86v-56h-86v-478h-62v478h-59v56z" />
    <glyph glyph-name="g" unicode="g" horiz-adv-x="382" 
d="M320 534v-566q0 -63 -36.5 -104.5t-96.5 -41.5q-40 0 -70.5 18.5t-46.5 49t-16 65.5v13h62v-10q0 -36 19.5 -58t51.5 -22t51.5 24.5t19.5 68.5v88q-38 -39 -93 -39q-54 0 -85 37t-31 100v248q0 63 31 100t85 37q57 0 99 -43h3l14 35h39zM233.5 101q21.5 25 24.5 62v239
q-3 36 -24.5 60t-53.5 24t-50.5 -23.5t-18.5 -67.5v-228q0 -44 18.5 -67.5t49.5 -23.5q33 0 54.5 25z" />
    <glyph glyph-name="h" unicode="h" horiz-adv-x="389" 
d="M300 505q31 -37 31 -100v-405h-62v395q0 44 -18.5 67.5t-49.5 23.5q-32 0 -53 -24t-24 -60v-402h-62v702h62v-197q40 37 92 37q53 0 84 -37z" />
    <glyph glyph-name="i" unicode="i" horiz-adv-x="182" 
d="M55 700h72v-84h-72v84zM60 534h62v-534h-62v534z" />
    <glyph glyph-name="j" unicode="j" horiz-adv-x="182" 
d="M127 700v-87h-72v87h72zM122 534v-597q0 -51 -29 -79t-77 -28h-17v56h13q22 0 35 15t13 43v590h62z" />
    <glyph glyph-name="k" unicode="k" horiz-adv-x="343" 
d="M163 248h-39v-248h-62v702h62v-398h39l91 230h68l-111 -256l125 -278h-71z" />
    <glyph glyph-name="l" unicode="l" horiz-adv-x="186" 
d="M62 702h62v-702h-62v702z" />
    <glyph glyph-name="m" unicode="m" horiz-adv-x="580" 
d="M492 505.5q30 -36.5 30 -100.5v-405h-62v395q0 44 -17.5 67.5t-48.5 23.5q-30 0 -49 -23.5t-22 -60.5v-402h-62v395q0 44 -17.5 67.5t-46.5 23.5q-31 0 -50.5 -24t-22.5 -60v-402h-62v534h39l14 -35h3q42 43 95 43q31 0 55 -14t38 -41q24 28 48.5 41.5t55.5 13.5
q52 0 82 -36.5z" />
    <glyph glyph-name="n" unicode="n" horiz-adv-x="389" 
d="M62 534h39l14 -35h3q42 43 98 43q53 0 84 -37t31 -100v-405h-62v395q0 44 -18.5 67.5t-49.5 23.5q-32 0 -53 -24t-24 -60v-402h-62v534z" />
    <glyph glyph-name="o" unicode="o" horiz-adv-x="372" 
d="M49 396q0 62 37.5 104t99.5 42t99.5 -42t37.5 -104v-258q0 -62 -37.5 -104t-99.5 -42t-99.5 42t-37.5 104v258zM131.5 73q20.5 -25 54.5 -25t54.5 25t20.5 68v252q0 43 -20.5 68t-54.5 25t-54.5 -25t-20.5 -68v-252q0 -43 20.5 -68z" />
    <glyph glyph-name="p" unicode="p" horiz-adv-x="382" 
d="M302 505q31 -37 31 -100v-276q0 -63 -31 -100t-85 -37q-55 0 -93 39v-201h-62v704h39l14 -35h3q42 43 99 43q54 0 85 -37zM271 395q0 44 -18.5 67.5t-50.5 23.5t-53.5 -24t-24.5 -60v-267q3 -37 24.5 -62t54.5 -25q31 0 49.5 23.5t18.5 67.5v256z" />
    <glyph glyph-name="q" unicode="q" horiz-adv-x="382" 
d="M320 534v-704h-62v201q-38 -39 -93 -39q-54 0 -85 37t-31 100v276q0 63 31 100t85 37q57 0 99 -43h3l14 35h39zM258 402q-3 36 -24.5 60t-53.5 24t-50.5 -23.5t-18.5 -67.5v-256q0 -44 18.5 -67.5t49.5 -23.5q33 0 54.5 25t24.5 62v267z" />
    <glyph glyph-name="r" unicode="r" horiz-adv-x="245" 
d="M62 534h39l14 -35h3q34 35 96 35h18v-56h-33q-33 0 -52.5 -20t-22.5 -56v-402h-62v534z" />
    <glyph glyph-name="s" unicode="s" horiz-adv-x="325" 
d="M32 170h62v-29q0 -44 18.5 -68.5t49.5 -24.5q30 0 48 23t18 64q0 31 -12.5 53.5t-43.5 43.5l-60 41q-41 28 -58.5 57.5t-17.5 70.5q0 61 34 101t92 40t92 -41t34 -105v-26h-62v23q0 44 -17 68.5t-47 24.5t-47 -22t-17 -57q0 -28 12.5 -47.5t37.5 -36.5l62 -41
q41 -27 60.5 -61.5t19.5 -83.5q0 -67 -33 -106t-93 -39q-61 0 -96.5 40t-35.5 106v32z" />
    <glyph glyph-name="t" unicode="t" horiz-adv-x="259" 
d="M80 534v104l62 16v-120h84v-56h-84v-356q0 -66 60 -66h25v-56h-31q-54 0 -85 30t-31 83v365h-61v56h61z" />
    <glyph glyph-name="u" unicode="u" horiz-adv-x="389" 
d="M327 0h-39l-14 38h-3q-40 -46 -98 -46q-53 0 -84 37t-31 100v405h62v-395q0 -44 18.5 -67.5t48.5 -23.5q33 0 54 25t24 62v399h62v-534z" />
    <glyph glyph-name="v" unicode="v" horiz-adv-x="334" 
d="M319 534l-121 -534h-62l-121 534h66l86 -433l86 433h66z" />
    <glyph glyph-name="w" unicode="w" horiz-adv-x="522" 
d="M505 534l-105 -534h-64l-75 417l-75 -417h-64l-105 534h66l69 -422l81 422h49h7l81 -422l69 422h66z" />
    <glyph glyph-name="x" unicode="x" horiz-adv-x="337" 
d="M254 0l-84 218l-90 -218h-65l122 272l-119 262h71l80 -208l85 208h65l-117 -262l123 -272h-71z" />
    <glyph glyph-name="y" unicode="y" horiz-adv-x="325" 
d="M311 534l-156 -704h-62l50 210l-126 494h68l85 -392l77 392h64z" />
    <glyph glyph-name="z" unicode="z" horiz-adv-x="292" 
d="M264 56v-56h-238v50l169 428h-163v56h230v-50l-169 -428h171z" />
    <glyph glyph-name="braceleft" unicode="{" horiz-adv-x="258" 
d="M111 327q41 -20 41 -74v-227q0 -29 9.5 -43.5t35.5 -14.5h20v-52h-27q-96 0 -96 108v227q0 50 -40 50h-20v52h20q40 0 40 50v227q0 108 96 108h27v-52h-20q-26 0 -35.5 -14.5t-9.5 -43.5v-227q0 -54 -41 -74z" />
    <glyph glyph-name="bar" unicode="|" horiz-adv-x="208" 
d="M133 741v-810h-58v810h58z" />
    <glyph glyph-name="braceright" unicode="}" horiz-adv-x="258" 
d="M224 353v-52h-20q-40 0 -40 -50v-227q0 -108 -96 -108h-27v52h20q26 0 35.5 14.5t9.5 43.5v227q0 54 41 74q-41 20 -41 74v227q0 29 -9.5 43.5t-35.5 14.5h-20v52h27q96 0 96 -108v-227q0 -50 40 -50h20z" />
    <glyph glyph-name="asciitilde" unicode="~" horiz-adv-x="399" 
d="M85.5 329.5q20.5 23.5 49.5 23.5q19 0 35 -7.5t36 -21.5q28 -20 37 -25.5t17 -5.5q11 0 16 11.5t5 41.5h53q0 -56 -20.5 -79.5t-49.5 -23.5q-19 0 -35 7.5t-36 21.5q-28 20 -37 25.5t-17 5.5q-11 0 -16 -11.5t-5 -41.5h-53q0 56 20.5 79.5z" />
    <glyph glyph-name="exclamdown" unicode="&#xa1;" horiz-adv-x="222" 
d="M151 522v-86h-80v86h80zM140 328l7 -498h-72l7 498h58z" />
    <glyph glyph-name="cent" unicode="&#xa2;" horiz-adv-x="343" 
d="M309 170v-32q0 -56 -28 -95.5t-77 -48.5v-71h-50v71q-49 9 -77 48.5t-28 95.5v258q0 56 28 95.5t77 48.5v75h50v-75q49 -9 76 -48.5t27 -95.5v-26h-62v23q0 45 -17 69t-49 24q-31 0 -49.5 -24.5t-18.5 -68.5v-252q0 -44 18.5 -68.5t49.5 -24.5t49.5 24.5t18.5 68.5v29h62
z" />
    <glyph glyph-name="sterling" unicode="&#xa3;" horiz-adv-x="393" 
d="M44 56h44v207h-39v50h39v239q0 65 35 106.5t96 41.5q60 0 94 -41t34 -107v-41h-62v38q0 44 -16.5 69.5t-49.5 25.5q-34 0 -51.5 -25.5t-17.5 -69.5v-236h122v-50h-122v-207h203v-56h-309v56z" />
    <glyph glyph-name="currency" unicode="&#xa4;" horiz-adv-x="432" 
d="M43 168l51 50q-28 40 -28 87t28 87l-51 50l36 36l50 -51q38 28 87 28t87 -28l50 51l36 -36l-51 -50q28 -38 28 -87t-28 -87l51 -50l-36 -36l-50 51q-40 -28 -87 -28t-87 28l-50 -51zM146.5 234.5q28.5 -29.5 69.5 -29.5q40 0 69 29.5t29 70.5t-28.5 70.5t-69.5 29.5
q-42 0 -70 -29t-28 -71q0 -41 28.5 -70.5z" />
    <glyph glyph-name="yen" unicode="&#xa5;" horiz-adv-x="364" 
d="M213 304h97v-50h-97v-76h97v-50h-97v-128h-62v128h-97v50h97v76h-97v50h97v51l-130 337h70l91 -271l91 271h70l-130 -337v-51z" />
    <glyph glyph-name="brokenbar" unicode="&#xa6;" horiz-adv-x="194" 
d="M126 741v-310h-58v310h58zM126 241v-310h-58v310h58z" />
    <glyph glyph-name="section" unicode="&#xa7;" horiz-adv-x="368" 
d="M296.5 127q16.5 -29 16.5 -71q0 -57 -37.5 -91.5t-94.5 -34.5q-58 0 -95.5 35.5t-37.5 94.5v17h55v-17q0 -37 21 -59t57 -22t56.5 21.5t20.5 57.5q0 28 -15.5 50t-46.5 42l-74 49q-39 26 -57 59t-18 76t24 75.5t56 45.5q-36 25 -53 54.5t-17 66.5q0 57 34.5 90.5
t86.5 33.5q33 0 62 -15.5t46.5 -44.5t17.5 -67v-15h-55v12q0 34 -20.5 57.5t-51.5 23.5q-29 0 -47 -21t-18 -54q0 -26 15 -47t47 -42l73 -49q38 -25 57 -58t19 -82q0 -40 -22 -71t-55 -47q34 -24 50.5 -53zM164 235l39 -26q28 9 46.5 33.5t18.5 57.5q0 62 -62 102l-34 23
q-28 -6 -49 -31.5t-21 -59.5q0 -58 62 -99z" />
    <glyph glyph-name="dieresis" unicode="&#xa8;" horiz-adv-x="302" 
d="M84 687h68v-74h-68v74zM214 687h68v-74h-68v74z" />
    <glyph glyph-name="copyright" unicode="&#xa9;" horiz-adv-x="776" 
d="M81.5 525q47.5 81 128.5 128t178 47t178 -47t128.5 -128t47.5 -179t-47.5 -179t-128.5 -128t-178 -47t-178 47t-128.5 128t-47.5 179t47.5 179zM125 189.5q40 -70.5 109.5 -111.5t153.5 -41t153.5 41t109.5 111.5t40 156.5t-40 156.5t-109.5 111.5t-153.5 41t-153.5 -41
t-109.5 -111.5t-40 -156.5t40 -156.5zM278 452q0 53 29 84.5t80 31.5t80 -31.5t29 -84.5v-23h-51v23q0 70 -58 70t-58 -70v-197q0 -70 58 -70t58 70v35h51v-35q0 -53 -29 -84.5t-80 -31.5t-80 31.5t-29 84.5v197z" />
    <glyph glyph-name="guillemotleft" unicode="&#xab;" horiz-adv-x="390" 
d="M134 441h62l-97 -165l97 -165h-62l-97 165zM280 441h62l-97 -165l97 -165h-62l-97 165z" />
    <glyph glyph-name="registered" unicode="&#xae;" horiz-adv-x="512" 
d="M61 587.5q30 51.5 81.5 82t113.5 30.5t113.5 -30.5t81.5 -82t30 -112.5t-30 -112.5t-81.5 -82t-113.5 -30.5t-113.5 30.5t-81.5 82t-30 112.5t30 112.5zM98 382.5q24 -42.5 65.5 -68t92.5 -25.5t92.5 25.5t65.5 68t24 92.5t-24 92.5t-65.5 68t-92.5 25.5t-92.5 -25.5
t-65.5 -68t-24 -92.5t24 -92.5zM186 583h73q41 0 61 -20t20 -49q0 -19 -9.5 -35.5t-28.5 -25.5l41 -78h-48l-36 70h-28v-70h-45v208zM259 484q19 0 27.5 9t8.5 21t-8.5 21t-27.5 9h-28v-60h28z" />
    <glyph glyph-name="macron" unicode="&#xaf;" horiz-adv-x="296" 
d="M96 660h180v-50h-180v50z" />
    <glyph glyph-name="degree" unicode="&#xb0;" horiz-adv-x="309" 
d="M71.5 499.5q-34.5 34.5 -34.5 83.5t34.5 83t83.5 34t83 -34t34 -83t-34 -83.5t-83 -34.5t-83.5 34.5zM202 533.5q20 20.5 20 49.5q0 28 -20 48.5t-47 20.5q-28 0 -48 -20.5t-20 -48.5q0 -29 20 -49.5t48 -20.5q27 0 47 20.5z" />
    <glyph glyph-name="plusminus" unicode="&#xb1;" horiz-adv-x="394" 
d="M75 368h97v106h50v-106h97v-50h-97v-79h-50v79h-97v50zM75 199h244v-50h-244v50z" />
    <glyph glyph-name="uni00B2" unicode="&#xb2;" horiz-adv-x="185" 
d="M165 484v-45h-147v33l87 162q11 20 11 51q0 41 -24 41q-25 0 -25 -41v-13h-48v14q0 38 19.5 61t53.5 23t53 -22.5t19 -62.5t-16 -70l-71 -131h88z" />
    <glyph glyph-name="uni00B3" unicode="&#xb3;" horiz-adv-x="188" 
d="M166 557v-40q0 -39 -20 -62.5t-54 -23.5q-33 0 -53 23.5t-20 62.5v21h48v-20q0 -43 25 -43q12 0 19 11.5t7 31.5v36q0 22 -8.5 32.5t-25.5 10.5h-32v28l56 93h-87v44h144v-33l-58 -92q59 -16 59 -80z" />
    <glyph glyph-name="acute" unicode="&#xb4;" horiz-adv-x="297" 
d="M207 685h70l-65 -93h-56z" />
    <glyph glyph-name="paragraph" unicode="&#xb6;" horiz-adv-x="405" 
d="M44 540q0 78 35.5 115t95.5 37h155v-761h-54v709h-47v-709h-54v398q-60 0 -95.5 37t-35.5 115v59z" />
    <glyph glyph-name="periodcentered" unicode="&#xb7;" horiz-adv-x="218" 
d="M56 336h80v-86h-80v86z" />
    <glyph glyph-name="cedilla" unicode="&#xb8;" horiz-adv-x="237" 
d="M183 -122h-58l36 142h56z" />
    <glyph glyph-name="uni00B9" unicode="&#xb9;" horiz-adv-x="168" 
d="M151 483v-44h-128v44h42v235h-37v44h85v-279h38z" />
    <glyph glyph-name="guillemotright" unicode="&#xbb;" horiz-adv-x="390" 
d="M110 111h-62l97 165l-97 165h62l97 -165zM256 111h-62l97 165l-97 165h62l97 -165z" />
    <glyph glyph-name="onequarter" unicode="&#xbc;" horiz-adv-x="530" 
d="M151 413v-44h-128v44h42v235h-37v44h85v-279h38zM442 692h53l-424 -692h-53zM516 77h-30v-77h-48v77h-97v28l73 218h49l-65 -202h40v51h48v-51h30v-44z" />
    <glyph glyph-name="onehalf" unicode="&#xbd;" horiz-adv-x="520" 
d="M151 413v-44h-128v44h42v235h-37v44h85v-279h38zM442 692h53l-424 -692h-53zM500 45v-45h-147v33l87 162q11 20 11 51q0 41 -24 41q-25 0 -25 -41v-13h-48v14q0 38 19.5 61t53.5 23t53 -22.5t19 -62.5t-16 -70l-71 -131h88z" />
    <glyph glyph-name="threequarters" unicode="&#xbe;" horiz-adv-x="540" 
d="M166 487v-40q0 -39 -20 -62.5t-54 -23.5q-33 0 -53 23.5t-20 62.5v21h48v-20q0 -43 25 -43q12 0 19 11.5t7 31.5v36q0 22 -8.5 32.5t-25.5 10.5h-32v28l56 93h-87v44h144v-33l-58 -92q59 -16 59 -80zM452 692h53l-424 -692h-53zM526 77h-30v-77h-48v77h-97v28l73 218h49
l-65 -202h40v51h48v-51h30v-44z" />
    <glyph glyph-name="questiondown" unicode="&#xbf;" horiz-adv-x="327" 
d="M211 448h-80v86h80v-86zM192 227.5q-8 -27.5 -21.5 -54t-26.5 -49.5q-27 -49 -37.5 -79.5t-10.5 -60.5q0 -44 18 -70.5t55 -26.5q71 0 71 113v28h59v-31q0 -79 -33.5 -121t-96.5 -42q-64 0 -98 41t-34 107q0 46 14 80t43 84q26 45 36.5 77t10.5 63v59h59v-59
q0 -31 -8 -58.5z" />
    <glyph glyph-name="Agrave" unicode="&#xc0;" horiz-adv-x="356" 
d="M149 692h58l140 -692h-66l-31 175h-144l-31 -175h-66zM240 231l-62 348l-62 -348h124zM157 742l-65 93h70l51 -93h-56z" />
    <glyph glyph-name="Aacute" unicode="&#xc1;" horiz-adv-x="356" 
d="M149 692h58l140 -692h-66l-31 175h-144l-31 -175h-66zM240 231l-62 348l-62 -348h124zM204 835h70l-65 -93h-56z" />
    <glyph glyph-name="Acircumflex" unicode="&#xc2;" horiz-adv-x="356" 
d="M149 692h58l140 -692h-66l-31 175h-144l-31 -175h-66zM240 231l-62 348l-62 -348h124zM231 742l-53 67l-53 -67h-56l86 108h46l86 -108h-56z" />
    <glyph glyph-name="Atilde" unicode="&#xc3;" horiz-adv-x="356" 
d="M149 692h58l140 -692h-66l-31 175h-144l-31 -175h-66zM240 231l-62 348l-62 -348h124zM81.5 814q17.5 19 43.5 19q22 0 56 -21q3 -2 19 -11.5t25 -9.5t15 9t6 30h45q0 -43 -17.5 -62t-43.5 -19q-22 0 -56 21q-3 2 -19 11.5t-25 9.5t-15 -9t-6 -30h-45q0 43 17.5 62z" />
    <glyph glyph-name="Adieresis" unicode="&#xc4;" horiz-adv-x="356" 
d="M149 692h58l140 -692h-66l-31 175h-144l-31 -175h-66zM240 231l-62 348l-62 -348h124zM79 837h68v-74h-68v74zM209 837h68v-74h-68v74z" />
    <glyph glyph-name="Aring" unicode="&#xc5;" horiz-adv-x="356" 
d="M149 692h58l140 -692h-66l-31 175h-144l-31 -175h-66zM240 231l-62 348l-62 -348h124zM117.5 857.5q23.5 20.5 60.5 20.5t60.5 -20.5t23.5 -52.5t-23.5 -52.5t-60.5 -20.5t-60.5 20.5t-23.5 52.5t23.5 52.5zM148 779.5q12 -10.5 30 -10.5t30 10.5t12 25.5t-12 25.5
t-30 10.5t-30 -10.5t-12 -25.5t12 -25.5z" />
    <glyph glyph-name="AE" unicode="&#xc6;" horiz-adv-x="555" 
d="M512 56v-56h-247v175h-141l-53 -175h-69l224 692h281v-56h-180v-247h140v-56h-140v-277h185zM265 231v408l-124 -408h124z" />
    <glyph glyph-name="Ccedilla" unicode="&#xc7;" horiz-adv-x="377" 
d="M276 529q0 56 -22 85.5t-57 29.5q-36 0 -59 -29.5t-23 -85.5v-366q0 -56 23 -85.5t59 -29.5t59 29.5t23 85.5v48h62v-51q0 -77 -40 -122.5t-104 -45.5t-104 45.5t-40 122.5v372q0 77 40 122.5t104 45.5q63 0 102 -45.5t39 -122.5v-41h-62v38zM193 -122h-58l36 142h56z
" />
    <glyph glyph-name="Egrave" unicode="&#xc8;" horiz-adv-x="360" 
d="M70 692h242v-56h-180v-247h140v-56h-140v-277h185v-56h-247v692zM168 742l-65 93h70l51 -93h-56z" />
    <glyph glyph-name="Eacute" unicode="&#xc9;" horiz-adv-x="360" 
d="M70 692h242v-56h-180v-247h140v-56h-140v-277h185v-56h-247v692zM201 835h70l-65 -93h-56z" />
    <glyph glyph-name="Ecircumflex" unicode="&#xca;" horiz-adv-x="360" 
d="M70 692h242v-56h-180v-247h140v-56h-140v-277h185v-56h-247v692zM242 742l-53 67l-53 -67h-56l86 108h46l86 -108h-56z" />
    <glyph glyph-name="Edieresis" unicode="&#xcb;" horiz-adv-x="360" 
d="M70 692h242v-56h-180v-247h140v-56h-140v-277h185v-56h-247v692zM99 837h68v-74h-68v74zM229 837h68v-74h-68v74z" />
    <glyph glyph-name="Igrave" unicode="&#xcc;" horiz-adv-x="202" 
d="M132 692v-692h-62v692h62zM77 742l-65 93h70l51 -93h-56z" />
    <glyph glyph-name="Iacute" unicode="&#xcd;" horiz-adv-x="202" 
d="M132 692v-692h-62v692h62zM122 835h70l-65 -93h-56z" />
    <glyph glyph-name="Icircumflex" unicode="&#xce;" horiz-adv-x="202" 
d="M132 692v-692h-62v692h62zM154 742l-53 67l-53 -67h-56l86 108h46l86 -108h-56z" />
    <glyph glyph-name="Idieresis" unicode="&#xcf;" horiz-adv-x="202" 
d="M132 692v-692h-62v692h62zM2 837h68v-74h-68v74zM132 837h68v-74h-68v74z" />
    <glyph glyph-name="Eth" unicode="&#xd0;" horiz-adv-x="415" 
d="M320 649q42 -43 42 -119v-368q0 -76 -42 -119t-109 -43h-134v335h-43v54h43v303h134q67 0 109 -43zM300 527q0 52 -24 80.5t-67 28.5h-70v-247h96v-54h-96v-279h70q43 0 67 28.5t24 80.5v362z" />
    <glyph glyph-name="Ntilde" unicode="&#xd1;" horiz-adv-x="434" 
d="M364 692v-692h-56l-176 512v-512h-62v692h56l176 -512v512h62zM121.5 814q17.5 19 43.5 19q22 0 56 -21q3 -2 19 -11.5t25 -9.5t15 9t6 30h45q0 -43 -17.5 -62t-43.5 -19q-22 0 -56 21q-3 2 -19 11.5t-25 9.5t-15 -9t-6 -30h-45q0 43 17.5 62z" />
    <glyph glyph-name="Ograve" unicode="&#xd2;" horiz-adv-x="408" 
d="M53 532q0 77 42.5 122.5t108.5 45.5t108.5 -45.5t42.5 -122.5v-372q0 -77 -42.5 -122.5t-108.5 -45.5t-108.5 45.5t-42.5 122.5v372zM140 78q25 -30 64 -30t64 30t25 85v366q0 55 -25 85t-64 30t-64 -30t-25 -85v-366q0 -55 25 -85zM187 742l-65 93h70l51 -93h-56z" />
    <glyph glyph-name="Oacute" unicode="&#xd3;" horiz-adv-x="408" 
d="M53 532q0 77 42.5 122.5t108.5 45.5t108.5 -45.5t42.5 -122.5v-372q0 -77 -42.5 -122.5t-108.5 -45.5t-108.5 45.5t-42.5 122.5v372zM140 78q25 -30 64 -30t64 30t25 85v366q0 55 -25 85t-64 30t-64 -30t-25 -85v-366q0 -55 25 -85zM224 835h70l-65 -93h-56z" />
    <glyph glyph-name="Ocircumflex" unicode="&#xd4;" horiz-adv-x="408" 
d="M53 532q0 77 42.5 122.5t108.5 45.5t108.5 -45.5t42.5 -122.5v-372q0 -77 -42.5 -122.5t-108.5 -45.5t-108.5 45.5t-42.5 122.5v372zM140 78q25 -30 64 -30t64 30t25 85v366q0 55 -25 85t-64 30t-64 -30t-25 -85v-366q0 -55 25 -85zM257 742l-53 67l-53 -67h-56l86 108
h46l86 -108h-56z" />
    <glyph glyph-name="Otilde" unicode="&#xd5;" horiz-adv-x="408" 
d="M53 532q0 77 42.5 122.5t108.5 45.5t108.5 -45.5t42.5 -122.5v-372q0 -77 -42.5 -122.5t-108.5 -45.5t-108.5 45.5t-42.5 122.5v372zM140 78q25 -30 64 -30t64 30t25 85v366q0 55 -25 85t-64 30t-64 -30t-25 -85v-366q0 -55 25 -85zM108.5 814q17.5 19 43.5 19
q22 0 56 -21q3 -2 19 -11.5t25 -9.5t15 9t6 30h45q0 -43 -17.5 -62t-43.5 -19q-22 0 -56 21q-3 2 -19 11.5t-25 9.5t-15 -9t-6 -30h-45q0 43 17.5 62z" />
    <glyph glyph-name="Odieresis" unicode="&#xd6;" horiz-adv-x="408" 
d="M53 532q0 77 42.5 122.5t108.5 45.5t108.5 -45.5t42.5 -122.5v-372q0 -77 -42.5 -122.5t-108.5 -45.5t-108.5 45.5t-42.5 122.5v372zM140 78q25 -30 64 -30t64 30t25 85v366q0 55 -25 85t-64 30t-64 -30t-25 -85v-366q0 -55 25 -85zM105 837h68v-74h-68v74zM235 837h68
v-74h-68v74z" />
    <glyph glyph-name="multiply" unicode="&#xd7;" horiz-adv-x="399" 
d="M200 336l91 92l36 -36l-92 -91l92 -92l-36 -36l-91 92l-92 -92l-36 36l92 92l-92 91l36 36z" />
    <glyph glyph-name="Oslash" unicode="&#xd8;" horiz-adv-x="408" 
d="M53 532q0 77 42.5 122.5t108.5 45.5t108.5 -45.5t42.5 -122.5v-372q0 -77 -42.5 -122.5t-108.5 -45.5t-108.5 45.5t-42.5 122.5v372zM140 78q25 -30 64 -30t64 30t25 85v366q0 55 -25 85t-64 30t-64 -30t-25 -85v-366q0 -55 25 -85zM324 745l-192 -798h-48l192 798h48z
" />
    <glyph glyph-name="Ugrave" unicode="&#xd9;" horiz-adv-x="422" 
d="M67 692h62v-529q0 -56 23 -85.5t59 -29.5t59 29.5t23 85.5v529h62v-532q0 -77 -40 -122.5t-104 -45.5t-104 45.5t-40 122.5v532zM188 742l-65 93h70l51 -93h-56z" />
    <glyph glyph-name="Uacute" unicode="&#xda;" horiz-adv-x="422" 
d="M67 692h62v-529q0 -56 23 -85.5t59 -29.5t59 29.5t23 85.5v529h62v-532q0 -77 -40 -122.5t-104 -45.5t-104 45.5t-40 122.5v532zM207 835h70l-65 -93h-56z" />
    <glyph glyph-name="Ucircumflex" unicode="&#xdb;" horiz-adv-x="422" 
d="M67 692h62v-529q0 -56 23 -85.5t59 -29.5t59 29.5t23 85.5v529h62v-532q0 -77 -40 -122.5t-104 -45.5t-104 45.5t-40 122.5v532zM259 742l-53 67l-53 -67h-56l86 108h46l86 -108h-56z" />
    <glyph glyph-name="Udieresis" unicode="&#xdc;" horiz-adv-x="422" 
d="M67 692h62v-529q0 -56 23 -85.5t59 -29.5t59 29.5t23 85.5v529h62v-532q0 -77 -40 -122.5t-104 -45.5t-104 45.5t-40 122.5v532zM107 837h68v-74h-68v74zM237 837h68v-74h-68v74z" />
    <glyph glyph-name="Yacute" unicode="&#xdd;" horiz-adv-x="346" 
d="M340 692l-136 -397v-295h-62v295l-136 397h70l97 -324l97 324h70zM196 835h70l-65 -93h-56z" />
    <glyph glyph-name="Thorn" unicode="&#xde;" horiz-adv-x="373" 
d="M70 692h62v-110h59q63 0 102 -39.5t39 -102.5v-139q0 -63 -39 -102.5t-102 -39.5h-59v-159h-62v692zM188 215q37 0 59.5 23t22.5 66v133q0 43 -22.5 66t-59.5 23h-56v-311h56z" />
    <glyph glyph-name="germandbls" unicode="&#xdf;" horiz-adv-x="391" 
d="M347 288v-151q0 -64 -35.5 -100.5t-94.5 -36.5h-34v56h28q33 0 53.5 21.5t20.5 69.5v131q0 48 -20.5 69.5t-53.5 21.5h-28v56h18q59 0 59 85v57q0 41 -15.5 66.5t-52.5 25.5t-52.5 -25.5t-15.5 -66.5v-567h-62v567q0 68 31.5 108t98.5 40t98.5 -40t31.5 -108v-57
q0 -80 -47 -107q72 -24 72 -115z" />
    <glyph glyph-name="agrave" unicode="&#xe0;" horiz-adv-x="360" 
d="M267 501q35 -41 35 -105v-396h-39l-14 38h-3q-40 -46 -97 -46q-52 0 -82.5 37t-30.5 98v31q0 62 37 103t99 41h68v91q0 44 -18 68.5t-48 24.5t-48 -24.5t-18 -68.5v-23h-62v26q0 64 35 105t93 41t93 -41zM216 73q21 25 24 62v111h-68q-34 0 -54 -24t-20 -67v-18
q0 -42 18.5 -65.5t47.5 -23.5q31 0 52 25zM160 592l-65 93h70l51 -93h-56z" />
    <glyph glyph-name="aacute" unicode="&#xe1;" horiz-adv-x="360" 
d="M267 501q35 -41 35 -105v-396h-39l-14 38h-3q-40 -46 -97 -46q-52 0 -82.5 37t-30.5 98v31q0 62 37 103t99 41h68v91q0 44 -18 68.5t-48 24.5t-48 -24.5t-18 -68.5v-23h-62v26q0 64 35 105t93 41t93 -41zM216 73q21 25 24 62v111h-68q-34 0 -54 -24t-20 -67v-18
q0 -42 18.5 -65.5t47.5 -23.5q31 0 52 25zM207 685h70l-65 -93h-56z" />
    <glyph glyph-name="acircumflex" unicode="&#xe2;" horiz-adv-x="360" 
d="M267 501q35 -41 35 -105v-396h-39l-14 38h-3q-40 -46 -97 -46q-52 0 -82.5 37t-30.5 98v31q0 62 37 103t99 41h68v91q0 44 -18 68.5t-48 24.5t-48 -24.5t-18 -68.5v-23h-62v26q0 64 35 105t93 41t93 -41zM216 73q21 25 24 62v111h-68q-34 0 -54 -24t-20 -67v-18
q0 -42 18.5 -65.5t47.5 -23.5q31 0 52 25zM230 592l-53 67l-53 -67h-56l86 108h46l86 -108h-56z" />
    <glyph glyph-name="atilde" unicode="&#xe3;" horiz-adv-x="360" 
d="M267 501q35 -41 35 -105v-396h-39l-14 38h-3q-40 -46 -97 -46q-52 0 -82.5 37t-30.5 98v31q0 62 37 103t99 41h68v91q0 44 -18 68.5t-48 24.5t-48 -24.5t-18 -68.5v-23h-62v26q0 64 35 105t93 41t93 -41zM216 73q21 25 24 62v111h-68q-34 0 -54 -24t-20 -67v-18
q0 -42 18.5 -65.5t47.5 -23.5q31 0 52 25zM87.5 664q17.5 19 43.5 19q22 0 56 -21q3 -2 19 -11.5t25 -9.5t15 9t6 30h45q0 -43 -17.5 -62t-43.5 -19q-22 0 -56 21q-3 2 -19 11.5t-25 9.5t-15 -9t-6 -30h-45q0 43 17.5 62z" />
    <glyph glyph-name="adieresis" unicode="&#xe4;" horiz-adv-x="360" 
d="M267 501q35 -41 35 -105v-396h-39l-14 38h-3q-40 -46 -97 -46q-52 0 -82.5 37t-30.5 98v31q0 62 37 103t99 41h68v91q0 44 -18 68.5t-48 24.5t-48 -24.5t-18 -68.5v-23h-62v26q0 64 35 105t93 41t93 -41zM216 73q21 25 24 62v111h-68q-34 0 -54 -24t-20 -67v-18
q0 -42 18.5 -65.5t47.5 -23.5q31 0 52 25zM74 687h68v-74h-68v74zM204 687h68v-74h-68v74z" />
    <glyph glyph-name="aring" unicode="&#xe5;" horiz-adv-x="360" 
d="M267 501q35 -41 35 -105v-396h-39l-14 38h-3q-40 -46 -97 -46q-52 0 -82.5 37t-30.5 98v31q0 62 37 103t99 41h68v91q0 44 -18 68.5t-48 24.5t-48 -24.5t-18 -68.5v-23h-62v26q0 64 35 105t93 41t93 -41zM216 73q21 25 24 62v111h-68q-34 0 -54 -24t-20 -67v-18
q0 -42 18.5 -65.5t47.5 -23.5q31 0 52 25zM119.5 707.5q23.5 20.5 60.5 20.5t60.5 -20.5t23.5 -52.5t-23.5 -52.5t-60.5 -20.5t-60.5 20.5t-23.5 52.5t23.5 52.5zM150 629.5q12 -10.5 30 -10.5t30 10.5t12 25.5t-12 25.5t-30 10.5t-30 -10.5t-12 -25.5t12 -25.5z" />
    <glyph glyph-name="ae" unicode="&#xe6;" horiz-adv-x="559" 
d="M306 141q0 -44 19.5 -68.5t51.5 -24.5t51.5 24.5t19.5 68.5v29h62v-32q0 -63 -36.5 -104.5t-96.5 -41.5q-68 0 -102 54q-15 -26 -41.5 -40t-62.5 -14q-63 0 -99 40t-36 102v26q0 62 37.5 103t100.5 41h70v89q0 44 -19 68.5t-49 24.5q-32 0 -50 -24t-18 -69v-23h-62v26
q0 64 35 105t95 41q33 0 58.5 -14.5t40.5 -39.5q34 54 103 54q61 0 97.5 -41.5t36.5 -104.5v-148h-206v-107zM306 304h144v89q0 44 -19.5 68.5t-52.5 24.5q-32 0 -52 -24.5t-20 -68.5v-89zM225 72q19 24 19 69v107h-70q-35 0 -55.5 -24t-20.5 -67v-20q0 -43 19.5 -66
t53.5 -23q35 0 54 24z" />
    <glyph glyph-name="ccedilla" unicode="&#xe7;" horiz-adv-x="349" 
d="M251 393q0 44 -18.5 68.5t-50.5 24.5t-51.5 -24.5t-19.5 -68.5v-252q0 -44 19.5 -68.5t51.5 -24.5t51.5 24.5t19.5 68.5v29h62v-32q0 -63 -36.5 -104.5t-96.5 -41.5t-96.5 41.5t-36.5 104.5v258q0 63 36.5 104.5t96.5 41.5q61 0 96 -41.5t35 -104.5v-26h-62v23zM183 -122
h-58l36 142h56z" />
    <glyph glyph-name="egrave" unicode="&#xe8;" horiz-adv-x="364" 
d="M49 396q0 63 36.5 104.5t97.5 41.5t97.5 -41.5t36.5 -104.5v-146h-206v-109q0 -44 19.5 -68.5t51.5 -24.5t51.5 24.5t19.5 68.5v29h62v-32q0 -63 -36.5 -104.5t-96.5 -41.5t-96.5 41.5t-36.5 104.5v258zM255 306v87q0 44 -19.5 68.5t-52.5 24.5q-32 0 -52 -24.5
t-20 -68.5v-87h144zM160 592l-65 93h70l51 -93h-56z" />
    <glyph glyph-name="eacute" unicode="&#xe9;" horiz-adv-x="364" 
d="M49 396q0 63 36.5 104.5t97.5 41.5t97.5 -41.5t36.5 -104.5v-146h-206v-109q0 -44 19.5 -68.5t51.5 -24.5t51.5 24.5t19.5 68.5v29h62v-32q0 -63 -36.5 -104.5t-96.5 -41.5t-96.5 41.5t-36.5 104.5v258zM255 306v87q0 44 -19.5 68.5t-52.5 24.5q-32 0 -52 -24.5
t-20 -68.5v-87h144zM207 685h70l-65 -93h-56z" />
    <glyph glyph-name="ecircumflex" unicode="&#xea;" horiz-adv-x="364" 
d="M49 396q0 63 36.5 104.5t97.5 41.5t97.5 -41.5t36.5 -104.5v-146h-206v-109q0 -44 19.5 -68.5t51.5 -24.5t51.5 24.5t19.5 68.5v29h62v-32q0 -63 -36.5 -104.5t-96.5 -41.5t-96.5 41.5t-36.5 104.5v258zM255 306v87q0 44 -19.5 68.5t-52.5 24.5q-32 0 -52 -24.5
t-20 -68.5v-87h144zM236 592l-53 67l-53 -67h-56l86 108h46l86 -108h-56z" />
    <glyph glyph-name="edieresis" unicode="&#xeb;" horiz-adv-x="364" 
d="M49 396q0 63 36.5 104.5t97.5 41.5t97.5 -41.5t36.5 -104.5v-146h-206v-109q0 -44 19.5 -68.5t51.5 -24.5t51.5 24.5t19.5 68.5v29h62v-32q0 -63 -36.5 -104.5t-96.5 -41.5t-96.5 41.5t-36.5 104.5v258zM255 306v87q0 44 -19.5 68.5t-52.5 24.5q-32 0 -52 -24.5
t-20 -68.5v-87h144zM84 687h68v-74h-68v74zM214 687h68v-74h-68v74z" />
    <glyph glyph-name="igrave" unicode="&#xec;" horiz-adv-x="182" 
d="M60 534h62v-534h-62v534zM68 592l-65 93h70l51 -93h-56z" />
    <glyph glyph-name="iacute" unicode="&#xed;" horiz-adv-x="182" 
d="M60 534h62v-534h-62v534zM109 685h70l-65 -93h-56z" />
    <glyph glyph-name="icircumflex" unicode="&#xee;" horiz-adv-x="182" 
d="M60 534h62v-534h-62v534zM144 592l-53 67l-53 -67h-56l86 108h46l86 -108h-56z" />
    <glyph glyph-name="idieresis" unicode="&#xef;" horiz-adv-x="182" 
d="M60 534h62v-534h-62v534zM-8 687h68v-74h-68v74zM122 687h68v-74h-68v74z" />
    <glyph glyph-name="eth" unicode="&#xf0;" horiz-adv-x="372" 
d="M49 363q0 62 37.5 104t99.5 42q9 0 23 -2l-36 72l-91 -31v50l69 24l-36 70h67l25 -51l79 27v-50l-58 -20l82 -168q13 -32 13 -67v-225q0 -62 -37.5 -104t-99.5 -42t-99.5 42t-37.5 104v225zM131.5 73q20.5 -25 54.5 -25t54.5 25t20.5 68v219q0 43 -20.5 68t-54.5 25
t-54.5 -25t-20.5 -68v-219q0 -43 20.5 -68z" />
    <glyph glyph-name="ntilde" unicode="&#xf1;" horiz-adv-x="389" 
d="M62 534h39l14 -35h3q42 43 98 43q53 0 84 -37t31 -100v-405h-62v395q0 44 -18.5 67.5t-49.5 23.5q-32 0 -53 -24t-24 -60v-402h-62v534zM101.5 664q17.5 19 43.5 19q22 0 56 -21q3 -2 19 -11.5t25 -9.5t15 9t6 30h45q0 -43 -17.5 -62t-43.5 -19q-22 0 -56 21
q-3 2 -19 11.5t-25 9.5t-15 -9t-6 -30h-45q0 43 17.5 62z" />
    <glyph glyph-name="ograve" unicode="&#xf2;" horiz-adv-x="372" 
d="M49 396q0 62 37.5 104t99.5 42t99.5 -42t37.5 -104v-258q0 -62 -37.5 -104t-99.5 -42t-99.5 42t-37.5 104v258zM131.5 73q20.5 -25 54.5 -25t54.5 25t20.5 68v252q0 43 -20.5 68t-54.5 25t-54.5 -25t-20.5 -68v-252q0 -43 20.5 -68zM160 592l-65 93h70l51 -93h-56z" />
    <glyph glyph-name="oacute" unicode="&#xf3;" horiz-adv-x="372" 
d="M49 396q0 62 37.5 104t99.5 42t99.5 -42t37.5 -104v-258q0 -62 -37.5 -104t-99.5 -42t-99.5 42t-37.5 104v258zM131.5 73q20.5 -25 54.5 -25t54.5 25t20.5 68v252q0 43 -20.5 68t-54.5 25t-54.5 -25t-20.5 -68v-252q0 -43 20.5 -68zM207 685h70l-65 -93h-56z" />
    <glyph glyph-name="ocircumflex" unicode="&#xf4;" horiz-adv-x="372" 
d="M49 396q0 62 37.5 104t99.5 42t99.5 -42t37.5 -104v-258q0 -62 -37.5 -104t-99.5 -42t-99.5 42t-37.5 104v258zM131.5 73q20.5 -25 54.5 -25t54.5 25t20.5 68v252q0 43 -20.5 68t-54.5 25t-54.5 -25t-20.5 -68v-252q0 -43 20.5 -68zM239 592l-53 67l-53 -67h-56l86 108
h46l86 -108h-56z" />
    <glyph glyph-name="otilde" unicode="&#xf5;" horiz-adv-x="372" 
d="M49 396q0 62 37.5 104t99.5 42t99.5 -42t37.5 -104v-258q0 -62 -37.5 -104t-99.5 -42t-99.5 42t-37.5 104v258zM131.5 73q20.5 -25 54.5 -25t54.5 25t20.5 68v252q0 43 -20.5 68t-54.5 25t-54.5 -25t-20.5 -68v-252q0 -43 20.5 -68zM90.5 664q17.5 19 43.5 19
q22 0 56 -21q3 -2 19 -11.5t25 -9.5t15 9t6 30h45q0 -43 -17.5 -62t-43.5 -19q-22 0 -56 21q-3 2 -19 11.5t-25 9.5t-15 -9t-6 -30h-45q0 43 17.5 62z" />
    <glyph glyph-name="odieresis" unicode="&#xf6;" horiz-adv-x="372" 
d="M49 396q0 62 37.5 104t99.5 42t99.5 -42t37.5 -104v-258q0 -62 -37.5 -104t-99.5 -42t-99.5 42t-37.5 104v258zM131.5 73q20.5 -25 54.5 -25t54.5 25t20.5 68v252q0 43 -20.5 68t-54.5 25t-54.5 -25t-20.5 -68v-252q0 -43 20.5 -68zM87 687h68v-74h-68v74zM217 687h68
v-74h-68v74z" />
    <glyph glyph-name="divide" unicode="&#xf7;" horiz-adv-x="410" 
d="M174 459h62v-72h-62v72zM335 326v-50h-260v50h260zM174 215h62v-72h-62v72z" />
    <glyph glyph-name="oslash" unicode="&#xf8;" horiz-adv-x="372" 
d="M49 396q0 62 37.5 104t99.5 42t99.5 -42t37.5 -104v-258q0 -62 -37.5 -104t-99.5 -42t-99.5 42t-37.5 104v258zM131.5 73q20.5 -25 54.5 -25t54.5 25t20.5 68v252q0 43 -20.5 68t-54.5 25t-54.5 -25t-20.5 -68v-252q0 -43 20.5 -68zM288 596l-156 -658h-48l156 658h48z
" />
    <glyph glyph-name="ugrave" unicode="&#xf9;" horiz-adv-x="389" 
d="M327 0h-39l-14 38h-3q-40 -46 -98 -46q-53 0 -84 37t-31 100v405h62v-395q0 -44 18.5 -67.5t48.5 -23.5q33 0 54 25t24 62v399h62v-534zM172 592l-65 93h70l51 -93h-56z" />
    <glyph glyph-name="uacute" unicode="&#xfa;" horiz-adv-x="389" 
d="M327 0h-39l-14 38h-3q-40 -46 -98 -46q-53 0 -84 37t-31 100v405h62v-395q0 -44 18.5 -67.5t48.5 -23.5q33 0 54 25t24 62v399h62v-534zM207 685h70l-65 -93h-56z" />
    <glyph glyph-name="ucircumflex" unicode="&#xfb;" horiz-adv-x="389" 
d="M327 0h-39l-14 38h-3q-40 -46 -98 -46q-53 0 -84 37t-31 100v405h62v-395q0 -44 18.5 -67.5t48.5 -23.5q33 0 54 25t24 62v399h62v-534zM246 592l-53 67l-53 -67h-56l86 108h46l86 -108h-56z" />
    <glyph glyph-name="udieresis" unicode="&#xfc;" horiz-adv-x="389" 
d="M327 0h-39l-14 38h-3q-40 -46 -98 -46q-53 0 -84 37t-31 100v405h62v-395q0 -44 18.5 -67.5t48.5 -23.5q33 0 54 25t24 62v399h62v-534zM94 687h68v-74h-68v74zM224 687h68v-74h-68v74z" />
    <glyph glyph-name="yacute" unicode="&#xfd;" horiz-adv-x="325" 
d="M311 534l-156 -704h-62l50 210l-126 494h68l85 -392l77 392h64zM189 685h70l-65 -93h-56z" />
    <glyph glyph-name="thorn" unicode="&#xfe;" horiz-adv-x="382" 
d="M302 505q31 -37 31 -100v-276q0 -63 -31 -100t-85 -37q-55 0 -93 39v-201h-62v872h62v-197q40 37 93 37q54 0 85 -37zM271 395q0 44 -18.5 67.5t-50.5 23.5t-53.5 -24t-24.5 -60v-267q3 -37 24.5 -62t54.5 -25q31 0 49.5 23.5t18.5 67.5v256z" />
    <glyph glyph-name="ydieresis" unicode="&#xff;" horiz-adv-x="325" 
d="M311 534l-156 -704h-62l50 210l-126 494h68l85 -392l77 392h64zM74 687h68v-74h-68v74zM204 687h68v-74h-68v74z" />
    <glyph glyph-name="Amacron" unicode="&#x100;" horiz-adv-x="356" 
d="M149 692h58l140 -692h-66l-31 175h-144l-31 -175h-66zM240 231l-62 348l-62 -348h124zM88 810h180v-50h-180v50z" />
    <glyph glyph-name="amacron" unicode="&#x101;" horiz-adv-x="360" 
d="M267 501q35 -41 35 -105v-396h-39l-14 38h-3q-40 -46 -97 -46q-52 0 -82.5 37t-30.5 98v31q0 62 37 103t99 41h68v91q0 44 -18 68.5t-48 24.5t-48 -24.5t-18 -68.5v-23h-62v26q0 64 35 105t93 41t93 -41zM216 73q21 25 24 62v111h-68q-34 0 -54 -24t-20 -67v-18
q0 -42 18.5 -65.5t47.5 -23.5q31 0 52 25zM84 660h180v-50h-180v50z" />
    <glyph glyph-name="Abreve" unicode="&#x102;" horiz-adv-x="356" 
d="M149 692h58l140 -692h-66l-31 175h-144l-31 -175h-66zM240 231l-62 348l-62 -348h124zM105.5 762.5q-28.5 24.5 -28.5 62.5h52q0 -19 13.5 -30.5t35.5 -11.5t35.5 11.5t13.5 30.5h52q0 -38 -28.5 -62.5t-72.5 -24.5t-72.5 24.5z" />
    <glyph glyph-name="abreve" unicode="&#x103;" horiz-adv-x="360" 
d="M267 501q35 -41 35 -105v-396h-39l-14 38h-3q-40 -46 -97 -46q-52 0 -82.5 37t-30.5 98v31q0 62 37 103t99 41h68v91q0 44 -18 68.5t-48 24.5t-48 -24.5t-18 -68.5v-23h-62v26q0 64 35 105t93 41t93 -41zM216 73q21 25 24 62v111h-68q-34 0 -54 -24t-20 -67v-18
q0 -42 18.5 -65.5t47.5 -23.5q31 0 52 25zM117.5 612.5q-28.5 24.5 -28.5 62.5h52q0 -19 13.5 -30.5t35.5 -11.5t35.5 11.5t13.5 30.5h52q0 -38 -28.5 -62.5t-72.5 -24.5t-72.5 24.5z" />
    <glyph glyph-name="Aogonek" unicode="&#x104;" horiz-adv-x="356" 
d="M149 692h58l140 -692h-66l-31 175h-144l-31 -175h-66zM240 231l-62 348l-62 -348h124zM286 -50q-14 -17 -14 -32q0 -21 28 -21h43v-50h-48q-35 0 -55 16.5t-20 46.5q0 28 19 52l50 61l41 -23z" />
    <glyph glyph-name="aogonek" unicode="&#x105;" horiz-adv-x="360" 
d="M315 -103v-50h-48q-35 0 -55 16.5t-20 46.5q0 28 19 52l38 46v30h-3q-40 -46 -97 -46q-52 0 -82.5 37t-30.5 98v31q0 62 37 103t99 41h68v91q0 44 -18 68.5t-48 24.5t-48 -24.5t-18 -68.5v-23h-62v26q0 64 35 105t93 41t93 -41t35 -105v-396l-44 -50q-14 -17 -14 -32
q0 -21 28 -21h43zM216 73q21 25 24 62v111h-68q-34 0 -54 -24t-20 -67v-18q0 -42 18.5 -65.5t47.5 -23.5q31 0 52 25z" />
    <glyph glyph-name="Cacute" unicode="&#x106;" horiz-adv-x="377" 
d="M276 529q0 56 -22 85.5t-57 29.5q-36 0 -59 -29.5t-23 -85.5v-366q0 -56 23 -85.5t59 -29.5t59 29.5t23 85.5v48h62v-51q0 -77 -40 -122.5t-104 -45.5t-104 45.5t-40 122.5v372q0 77 40 122.5t104 45.5q63 0 102 -45.5t39 -122.5v-41h-62v38zM209 835h70l-65 -93h-56z
" />
    <glyph glyph-name="cacute" unicode="&#x107;" horiz-adv-x="349" 
d="M251 393q0 44 -18.5 68.5t-50.5 24.5t-51.5 -24.5t-19.5 -68.5v-252q0 -44 19.5 -68.5t51.5 -24.5t51.5 24.5t19.5 68.5v29h62v-32q0 -63 -36.5 -104.5t-96.5 -41.5t-96.5 41.5t-36.5 104.5v258q0 63 36.5 104.5t96.5 41.5q61 0 96 -41.5t35 -104.5v-26h-62v23zM207 685
h70l-65 -93h-56z" />
    <glyph glyph-name="Cdotaccent" unicode="&#x10a;" horiz-adv-x="377" 
d="M276 529q0 56 -22 85.5t-57 29.5q-36 0 -59 -29.5t-23 -85.5v-366q0 -56 23 -85.5t59 -29.5t59 29.5t23 85.5v48h62v-51q0 -77 -40 -122.5t-104 -45.5t-104 45.5t-40 122.5v372q0 77 40 122.5t104 45.5q63 0 102 -45.5t39 -122.5v-41h-62v38zM161 850h72v-84h-72v84z" />
    <glyph glyph-name="cdotaccent" unicode="&#x10b;" horiz-adv-x="349" 
d="M251 393q0 44 -18.5 68.5t-50.5 24.5t-51.5 -24.5t-19.5 -68.5v-252q0 -44 19.5 -68.5t51.5 -24.5t51.5 24.5t19.5 68.5v29h62v-32q0 -63 -36.5 -104.5t-96.5 -41.5t-96.5 41.5t-36.5 104.5v258q0 63 36.5 104.5t96.5 41.5q61 0 96 -41.5t35 -104.5v-26h-62v23zM145 700
h72v-84h-72v84z" />
    <glyph glyph-name="Ccaron" unicode="&#x10c;" horiz-adv-x="377" 
d="M276 529q0 56 -22 85.5t-57 29.5q-36 0 -59 -29.5t-23 -85.5v-366q0 -56 23 -85.5t59 -29.5t59 29.5t23 85.5v48h62v-51q0 -77 -40 -122.5t-104 -45.5t-104 45.5t-40 122.5v372q0 77 40 122.5t104 45.5q63 0 102 -45.5t39 -122.5v-41h-62v38zM306 850l-86 -108h-46
l-86 108h56l53 -67l53 67h56z" />
    <glyph glyph-name="ccaron" unicode="&#x10d;" horiz-adv-x="349" 
d="M251 393q0 44 -18.5 68.5t-50.5 24.5t-51.5 -24.5t-19.5 -68.5v-252q0 -44 19.5 -68.5t51.5 -24.5t51.5 24.5t19.5 68.5v29h62v-32q0 -63 -36.5 -104.5t-96.5 -41.5t-96.5 41.5t-36.5 104.5v258q0 63 36.5 104.5t96.5 41.5q61 0 96 -41.5t35 -104.5v-26h-62v23zM295 700
l-86 -108h-46l-86 108h56l53 -67l53 67h56z" />
    <glyph glyph-name="Dcaron" unicode="&#x10e;" horiz-adv-x="408" 
d="M70 692h134q67 0 109 -43t42 -119v-368q0 -76 -42 -119t-109 -43h-134v692zM202 56q43 0 67 28.5t24 80.5v362q0 52 -24 80.5t-67 28.5h-70v-580h70zM313 850l-86 -108h-46l-86 108h56l53 -67l53 67h56z" />
    <glyph glyph-name="dcaron" unicode="&#x10f;" horiz-adv-x="445" 
d="M429 692l-14 -168h-43v168h57zM320 702v-702h-39l-14 38h-3q-40 -46 -99 -46q-54 0 -85 37t-31 100v276q0 63 31 100t85 37q53 0 93 -37v197h62zM258 402q-3 36 -24.5 60t-53.5 24t-50.5 -23.5t-18.5 -67.5v-256q0 -44 18.5 -67.5t49.5 -23.5q33 0 54.5 25t24.5 62v267z
" />
    <glyph glyph-name="Dcroat" unicode="&#x110;" horiz-adv-x="415" 
d="M320 649q42 -43 42 -119v-368q0 -76 -42 -119t-109 -43h-134v335h-43v54h43v303h134q67 0 109 -43zM300 527q0 52 -24 80.5t-67 28.5h-70v-247h96v-54h-96v-279h70q43 0 67 28.5t24 80.5v362z" />
    <glyph glyph-name="dcroat" unicode="&#x111;" horiz-adv-x="405" 
d="M370 594h-50v-594h-39l-14 38h-3q-40 -46 -99 -46q-54 0 -85 37t-31 100v276q0 63 31 100t85 37q53 0 93 -37v89h-95v52h95v56h62v-56h50v-52zM258 402q-3 36 -24.5 60t-53.5 24t-50.5 -23.5t-18.5 -67.5v-256q0 -44 18.5 -67.5t49.5 -23.5q33 0 54.5 25t24.5 62v267z
" />
    <glyph glyph-name="Emacron" unicode="&#x112;" horiz-adv-x="360" 
d="M70 692h242v-56h-180v-247h140v-56h-140v-277h185v-56h-247v692zM104 810h180v-50h-180v50z" />
    <glyph glyph-name="emacron" unicode="&#x113;" horiz-adv-x="364" 
d="M49 396q0 63 36.5 104.5t97.5 41.5t97.5 -41.5t36.5 -104.5v-146h-206v-109q0 -44 19.5 -68.5t51.5 -24.5t51.5 24.5t19.5 68.5v29h62v-32q0 -63 -36.5 -104.5t-96.5 -41.5t-96.5 41.5t-36.5 104.5v258zM255 306v87q0 44 -19.5 68.5t-52.5 24.5q-32 0 -52 -24.5
t-20 -68.5v-87h144zM93 660h180v-50h-180v50z" />
    <glyph glyph-name="Edotaccent" unicode="&#x116;" horiz-adv-x="360" 
d="M70 692h242v-56h-180v-247h140v-56h-140v-277h185v-56h-247v692zM158 850h72v-84h-72v84z" />
    <glyph glyph-name="edotaccent" unicode="&#x117;" horiz-adv-x="364" 
d="M49 396q0 63 36.5 104.5t97.5 41.5t97.5 -41.5t36.5 -104.5v-146h-206v-109q0 -44 19.5 -68.5t51.5 -24.5t51.5 24.5t19.5 68.5v29h62v-32q0 -63 -36.5 -104.5t-96.5 -41.5t-96.5 41.5t-36.5 104.5v258zM255 306v87q0 44 -19.5 68.5t-52.5 24.5q-32 0 -52 -24.5
t-20 -68.5v-87h144zM145 700h72v-84h-72v84z" />
    <glyph glyph-name="Eogonek" unicode="&#x118;" horiz-adv-x="360" 
d="M70 692h242v-56h-180v-247h140v-56h-140v-277h185v-56h-247v692zM245 -50q-14 -17 -14 -32q0 -21 28 -21h43v-50h-48q-35 0 -55 16.5t-20 46.5q0 28 19 52l50 61l41 -23z" />
    <glyph glyph-name="eogonek" unicode="&#x119;" horiz-adv-x="355" 
d="M111 250v-109q0 -44 19.5 -68.5t51.5 -24.5t51.5 24.5t19.5 68.5v29h62v-32q0 -31 -9.5 -57.5t-26.5 -46.5l-57 -84q-14 -21 -14 -32q0 -21 28 -21h43v-50h-48q-35 0 -55 16.5t-20 46.5q0 24 19 52l20 31q-4 -1 -13 -1q-60 0 -96.5 41.5t-36.5 104.5v258q0 63 36.5 104.5
t97.5 41.5t97.5 -41.5t36.5 -104.5v-146h-206zM111 306h144v87q0 44 -19.5 68.5t-52.5 24.5q-32 0 -52 -24.5t-20 -68.5v-87z" />
    <glyph glyph-name="Ecaron" unicode="&#x11a;" horiz-adv-x="360" 
d="M70 692h242v-56h-180v-247h140v-56h-140v-277h185v-56h-247v692zM301 850l-86 -108h-46l-86 108h56l53 -67l53 67h56z" />
    <glyph glyph-name="ecaron" unicode="&#x11b;" horiz-adv-x="364" 
d="M49 396q0 63 36.5 104.5t97.5 41.5t97.5 -41.5t36.5 -104.5v-146h-206v-109q0 -44 19.5 -68.5t51.5 -24.5t51.5 24.5t19.5 68.5v29h62v-32q0 -63 -36.5 -104.5t-96.5 -41.5t-96.5 41.5t-36.5 104.5v258zM255 306v87q0 44 -19.5 68.5t-52.5 24.5q-32 0 -52 -24.5
t-20 -68.5v-87h144zM292 700l-86 -108h-46l-86 108h56l53 -67l53 67h56z" />
    <glyph glyph-name="Gbreve" unicode="&#x11e;" horiz-adv-x="397" 
d="M53 532q0 77 41 122.5t105 45.5q63 0 102.5 -45.5t39.5 -122.5v-41h-62v38q0 56 -22.5 85.5t-57.5 29.5q-36 0 -60 -30t-24 -85v-366q0 -55 24 -85t61 -30q34 0 58 26t27 71v173h-81v56h143v-374h-43l-7 48h-5q-18 -29 -41 -42.5t-54 -13.5q-40 0 -73 20.5t-52 58.5
t-19 89v372zM130.5 762.5q-28.5 24.5 -28.5 62.5h52q0 -19 13.5 -30.5t35.5 -11.5t35.5 11.5t13.5 30.5h52q0 -38 -28.5 -62.5t-72.5 -24.5t-72.5 24.5z" />
    <glyph glyph-name="gbreve" unicode="&#x11f;" horiz-adv-x="382" 
d="M320 534v-566q0 -63 -36.5 -104.5t-96.5 -41.5q-40 0 -70.5 18.5t-46.5 49t-16 65.5v13h62v-10q0 -36 19.5 -58t51.5 -22t51.5 24.5t19.5 68.5v88q-38 -39 -93 -39q-54 0 -85 37t-31 100v248q0 63 31 100t85 37q57 0 99 -43h3l14 35h39zM233.5 101q21.5 25 24.5 62v239
q-3 36 -24.5 60t-53.5 24t-50.5 -23.5t-18.5 -67.5v-228q0 -44 18.5 -67.5t49.5 -23.5q33 0 54.5 25zM127.5 612.5q-28.5 24.5 -28.5 62.5h52q0 -19 13.5 -30.5t35.5 -11.5t35.5 11.5t13.5 30.5h52q0 -38 -28.5 -62.5t-72.5 -24.5t-72.5 24.5z" />
    <glyph glyph-name="Gdotaccent" unicode="&#x120;" horiz-adv-x="397" 
d="M53 532q0 77 41 122.5t105 45.5q63 0 102.5 -45.5t39.5 -122.5v-41h-62v38q0 56 -22.5 85.5t-57.5 29.5q-36 0 -60 -30t-24 -85v-366q0 -55 24 -85t61 -30q34 0 58 26t27 71v173h-81v56h143v-374h-43l-7 48h-5q-18 -29 -41 -42.5t-54 -13.5q-40 0 -73 20.5t-52 58.5
t-19 89v372zM164 850h72v-84h-72v84z" />
    <glyph glyph-name="gdotaccent" unicode="&#x121;" horiz-adv-x="382" 
d="M320 534v-566q0 -63 -36.5 -104.5t-96.5 -41.5q-40 0 -70.5 18.5t-46.5 49t-16 65.5v13h62v-10q0 -36 19.5 -58t51.5 -22t51.5 24.5t19.5 68.5v88q-38 -39 -93 -39q-54 0 -85 37t-31 100v248q0 63 31 100t85 37q57 0 99 -43h3l14 35h39zM233.5 101q21.5 25 24.5 62v239
q-3 36 -24.5 60t-53.5 24t-50.5 -23.5t-18.5 -67.5v-228q0 -44 18.5 -67.5t49.5 -23.5q33 0 54.5 25zM145 700h72v-84h-72v84z" />
    <glyph glyph-name="Gcommaaccent" unicode="&#x122;" horiz-adv-x="397" 
d="M53 532q0 77 41 122.5t105 45.5q63 0 102.5 -45.5t39.5 -122.5v-41h-62v38q0 56 -22.5 85.5t-57.5 29.5q-36 0 -60 -30t-24 -85v-366q0 -55 24 -85t61 -30q34 0 58 26t27 71v173h-81v56h143v-374h-43l-7 48h-5q-18 -29 -41 -42.5t-54 -13.5q-40 0 -73 20.5t-52 58.5
t-19 89v372zM240 -56v-48l-40 -89h-34l25 70h-31v67h80z" />
    <glyph glyph-name="gcommaaccent" unicode="&#x123;" horiz-adv-x="382" 
d="M320 534v-566q0 -63 -36.5 -104.5t-96.5 -41.5q-40 0 -70.5 18.5t-46.5 49t-16 65.5v13h62v-10q0 -36 19.5 -58t51.5 -22t51.5 24.5t19.5 68.5v88q-38 -39 -93 -39q-54 0 -85 37t-31 100v248q0 63 31 100t85 37q57 0 99 -43h3l14 35h39zM233.5 101q21.5 25 24.5 62v239
q-3 36 -24.5 60t-53.5 24t-50.5 -23.5t-18.5 -67.5v-228q0 -44 18.5 -67.5t49.5 -23.5q33 0 54.5 25zM145 594v48l40 89h34l-25 -70h31v-67h-80z" />
    <glyph glyph-name="Hbar" unicode="&#x126;" horiz-adv-x="424" 
d="M70 692h62v-303h160v303h62v-692h-62v333h-160v-333h-62v692zM408 572v-54h-392v54h392z" />
    <glyph glyph-name="hbar" unicode="&#x127;" horiz-adv-x="389" 
d="M300 505q31 -37 31 -100v-405h-62v395q0 44 -18.5 67.5t-49.5 23.5q-32 0 -53 -24t-24 -60v-402h-62v594h-50v52h50v56h62v-56h95v-52h-95v-89q40 37 92 37q53 0 84 -37z" />
    <glyph glyph-name="Imacron" unicode="&#x12a;" horiz-adv-x="202" 
d="M132 692v-692h-62v692h62zM11 810h180v-50h-180v50z" />
    <glyph glyph-name="imacron" unicode="&#x12b;" horiz-adv-x="182" 
d="M60 534h62v-534h-62v534zM1 660h180v-50h-180v50z" />
    <glyph glyph-name="Iogonek" unicode="&#x12e;" horiz-adv-x="202" 
d="M132 692v-692h-62v692h62zM88 -50q-14 -17 -14 -32q0 -21 28 -21h43v-50h-48q-35 0 -55 16.5t-20 46.5q0 28 19 52l50 61l41 -23z" />
    <glyph glyph-name="iogonek" unicode="&#x12f;" horiz-adv-x="182" 
d="M78 -50q-14 -17 -14 -32q0 -21 28 -21h43v-50h-48q-35 0 -55 16.5t-20 46.5q0 28 19 52l50 61l41 -23zM55 700h72v-84h-72v84zM60 534h62v-534h-62v534z" />
    <glyph glyph-name="Idotaccent" unicode="&#x130;" horiz-adv-x="202" 
d="M132 692v-692h-62v692h62zM65 850h72v-84h-72v84z" />
    <glyph glyph-name="dotlessi" unicode="&#x131;" horiz-adv-x="182" 
d="M60 534h62v-534h-62v534z" />
    <glyph glyph-name="Kcommaaccent" unicode="&#x136;" horiz-adv-x="373" 
d="M192 341h-60v-341h-62v692h62v-295h62l84 295h67l-102 -322l122 -370h-69zM249 -56v-48l-40 -89h-34l25 70h-31v67h80z" />
    <glyph glyph-name="kcommaaccent" unicode="&#x137;" horiz-adv-x="343" 
d="M163 248h-39v-248h-62v702h62v-398h39l91 230h68l-111 -256l125 -278h-71zM233 -56v-48l-40 -89h-34l25 70h-31v67h80z" />
    <glyph glyph-name="Lacute" unicode="&#x139;" horiz-adv-x="322" 
d="M308 56v-56h-238v692h62v-636h176zM118 835h70l-65 -93h-56z" />
    <glyph glyph-name="lacute" unicode="&#x13a;" horiz-adv-x="186" 
d="M62 702h62v-702h-62v702zM111 832h70l-65 -93h-56z" />
    <glyph glyph-name="Lcommaaccent" unicode="&#x13b;" horiz-adv-x="322" 
d="M308 56v-56h-238v692h62v-636h176zM229 -56v-48l-40 -89h-34l25 70h-31v67h80z" />
    <glyph glyph-name="lcommaaccent" unicode="&#x13c;" horiz-adv-x="186" 
d="M62 702h62v-702h-62v702zM135 -56v-48l-40 -89h-34l25 70h-31v67h80z" />
    <glyph glyph-name="Lcaron" unicode="&#x13d;" horiz-adv-x="322" 
d="M259 692l-14 -168h-43v168h57zM308 56v-56h-238v692h62v-636h176z" />
    <glyph glyph-name="lcaron" unicode="&#x13e;" horiz-adv-x="249" 
d="M233 692l-14 -168h-43v168h57zM62 702h62v-702h-62v702z" />
    <glyph glyph-name="Lslash" unicode="&#x141;" horiz-adv-x="342" 
d="M328 56v-56h-238v692h62v-636h176zM259 459v-60l-225 -97v60z" />
    <glyph glyph-name="lslash" unicode="&#x142;" horiz-adv-x="244" 
d="M91 702h62v-702h-62v702zM225 473v-56l-206 -100v56z" />
    <glyph glyph-name="Nacute" unicode="&#x143;" horiz-adv-x="434" 
d="M364 692v-692h-56l-176 512v-512h-62v692h56l176 -512v512h62zM224 835h70l-65 -93h-56z" />
    <glyph glyph-name="nacute" unicode="&#x144;" horiz-adv-x="389" 
d="M62 534h39l14 -35h3q42 43 98 43q53 0 84 -37t31 -100v-405h-62v395q0 44 -18.5 67.5t-49.5 23.5q-32 0 -53 -24t-24 -60v-402h-62v534zM207 685h70l-65 -93h-56z" />
    <glyph glyph-name="Ncommaaccent" unicode="&#x145;" horiz-adv-x="434" 
d="M364 692v-692h-56l-176 512v-512h-62v692h56l176 -512v512h62zM257 -56v-48l-40 -89h-34l25 70h-31v67h80z" />
    <glyph glyph-name="ncommaaccent" unicode="&#x146;" horiz-adv-x="389" 
d="M62 534h39l14 -35h3q42 43 98 43q53 0 84 -37t31 -100v-405h-62v395q0 44 -18.5 67.5t-49.5 23.5q-32 0 -53 -24t-24 -60v-402h-62v534zM237 -56v-48l-40 -89h-34l25 70h-31v67h80z" />
    <glyph glyph-name="Ncaron" unicode="&#x147;" horiz-adv-x="434" 
d="M364 692v-692h-56l-176 512v-512h-62v692h56l176 -512v512h62zM326 850l-86 -108h-46l-86 108h56l53 -67l53 67h56z" />
    <glyph glyph-name="ncaron" unicode="&#x148;" horiz-adv-x="389" 
d="M62 534h39l14 -35h3q42 43 98 43q53 0 84 -37t31 -100v-405h-62v395q0 44 -18.5 67.5t-49.5 23.5q-32 0 -53 -24t-24 -60v-402h-62v534zM306 700l-86 -108h-46l-86 108h56l53 -67l53 67h56z" />
    <glyph glyph-name="Eng" unicode="&#x14a;" horiz-adv-x="434" 
d="M364 692v-755q0 -51 -29 -79t-77 -28h-17v56h13q22 0 35 15t13 43v73l-170 495v-512h-62v692h56l176 -512v512h62z" />
    <glyph glyph-name="eng" unicode="&#x14b;" horiz-adv-x="389" 
d="M62 534h39l14 -35h3q42 43 98 43q53 0 84 -37t31 -100v-468q0 -51 -29 -79t-77 -28h-17v56h13q22 0 35 15t13 43v451q0 44 -18.5 67.5t-49.5 23.5q-32 0 -53 -24t-24 -60v-402h-62v534z" />
    <glyph glyph-name="Omacron" unicode="&#x14c;" horiz-adv-x="408" 
d="M53 532q0 77 42.5 122.5t108.5 45.5t108.5 -45.5t42.5 -122.5v-372q0 -77 -42.5 -122.5t-108.5 -45.5t-108.5 45.5t-42.5 122.5v372zM140 78q25 -30 64 -30t64 30t25 85v366q0 55 -25 85t-64 30t-64 -30t-25 -85v-366q0 -55 25 -85zM114 810h180v-50h-180v50z" />
    <glyph glyph-name="omacron" unicode="&#x14d;" horiz-adv-x="372" 
d="M49 396q0 62 37.5 104t99.5 42t99.5 -42t37.5 -104v-258q0 -62 -37.5 -104t-99.5 -42t-99.5 42t-37.5 104v258zM131.5 73q20.5 -25 54.5 -25t54.5 25t20.5 68v252q0 43 -20.5 68t-54.5 25t-54.5 -25t-20.5 -68v-252q0 -43 20.5 -68zM96 660h180v-50h-180v50z" />
    <glyph glyph-name="Ohungarumlaut" unicode="&#x150;" horiz-adv-x="408" 
d="M53 532q0 77 42.5 122.5t108.5 45.5t108.5 -45.5t42.5 -122.5v-372q0 -77 -42.5 -122.5t-108.5 -45.5t-108.5 45.5t-42.5 122.5v372zM140 78q25 -30 64 -30t64 30t25 85v366q0 55 -25 85t-64 30t-64 -30t-25 -85v-366q0 -55 25 -85zM167 830h59l-63 -88h-54zM287 830h59
l-63 -88h-54z" />
    <glyph glyph-name="ohungarumlaut" unicode="&#x151;" horiz-adv-x="372" 
d="M49 396q0 62 37.5 104t99.5 42t99.5 -42t37.5 -104v-258q0 -62 -37.5 -104t-99.5 -42t-99.5 42t-37.5 104v258zM131.5 73q20.5 -25 54.5 -25t54.5 25t20.5 68v252q0 43 -20.5 68t-54.5 25t-54.5 -25t-20.5 -68v-252q0 -43 20.5 -68zM153 680h59l-63 -88h-54zM273 680h59
l-63 -88h-54z" />
    <glyph glyph-name="OE" unicode="&#x152;" horiz-adv-x="583" 
d="M540 56v-56h-247v27q-37 -35 -94 -35q-40 0 -73.5 20.5t-53 58.5t-19.5 89v372q0 51 19.5 89t53 58.5t73.5 20.5q57 0 94 -35v27h242v-56h-180v-247h140v-56h-140v-277h185zM268 78q25 30 25 85v366q0 55 -25 85t-64 30t-64 -30t-25 -85v-366q0 -55 25 -85t64 -30t64 30z
" />
    <glyph glyph-name="oe" unicode="&#x153;" horiz-adv-x="576" 
d="M323 141q0 -44 19.5 -68.5t51.5 -24.5t51.5 24.5t19.5 68.5v29h62v-32q0 -63 -36.5 -104.5t-96.5 -41.5q-35 0 -61 14.5t-41 40.5q-37 -55 -106 -55q-62 0 -99.5 42t-37.5 104v258q0 62 37.5 104t99.5 42q70 0 106 -56q15 27 41.5 41.5t61.5 14.5q61 0 97.5 -41.5
t36.5 -104.5v-146h-206v-109zM261 393q0 43 -20.5 68t-54.5 25t-54.5 -25t-20.5 -68v-252q0 -43 20.5 -68t54.5 -25t54.5 25t20.5 68v252zM323 306h144v87q0 44 -19.5 68.5t-52.5 24.5q-32 0 -52 -24.5t-20 -68.5v-87z" />
    <glyph glyph-name="Racute" unicode="&#x154;" horiz-adv-x="391" 
d="M295 0l-109 279h-54v-279h-62v692h126q63 0 102 -39.5t39 -102.5v-129q0 -49 -24.5 -84.5t-66.5 -49.5l119 -287h-70zM132 335h61q37 0 59.5 23t22.5 66v123q0 43 -22.5 66t-59.5 23h-61v-301zM210 835h70l-65 -93h-56z" />
    <glyph glyph-name="racute" unicode="&#x155;" horiz-adv-x="245" 
d="M62 534h39l14 -35h3q34 35 96 35h18v-56h-33q-33 0 -52.5 -20t-22.5 -56v-402h-62v534zM160 685h70l-65 -93h-56z" />
    <glyph glyph-name="Rcommaaccent" unicode="&#x156;" horiz-adv-x="391" 
d="M295 0l-109 279h-54v-279h-62v692h126q63 0 102 -39.5t39 -102.5v-129q0 -49 -24.5 -84.5t-66.5 -49.5l119 -287h-70zM132 335h61q37 0 59.5 23t22.5 66v123q0 43 -22.5 66t-59.5 23h-61v-301zM247 -56v-48l-40 -89h-34l25 70h-31v67h80z" />
    <glyph glyph-name="rcommaaccent" unicode="&#x157;" horiz-adv-x="245" 
d="M62 534h39l14 -35h3q34 35 96 35h18v-56h-33q-33 0 -52.5 -20t-22.5 -56v-402h-62v534zM133 -56v-48l-40 -89h-34l25 70h-31v67h80z" />
    <glyph glyph-name="Rcaron" unicode="&#x158;" horiz-adv-x="391" 
d="M295 0l-109 279h-54v-279h-62v692h126q63 0 102 -39.5t39 -102.5v-129q0 -49 -24.5 -84.5t-66.5 -49.5l119 -287h-70zM132 335h61q37 0 59.5 23t22.5 66v123q0 43 -22.5 66t-59.5 23h-61v-301zM310 850l-86 -108h-46l-86 108h56l53 -67l53 67h56z" />
    <glyph glyph-name="rcaron" unicode="&#x159;" horiz-adv-x="245" 
d="M62 534h39l14 -35h3q34 35 96 35h18v-56h-33q-33 0 -52.5 -20t-22.5 -56v-402h-62v534zM260 700l-86 -108h-46l-86 108h56l53 -67l53 67h56z" />
    <glyph glyph-name="Sacute" unicode="&#x15a;" horiz-adv-x="355" 
d="M36 212h62v-49q0 -56 21 -85.5t57 -29.5t57 30t21 88q0 47 -15.5 80t-50.5 62l-69 59q-39 33 -59 72t-20 95q0 77 36.5 121.5t99.5 44.5q62 0 97 -44.5t35 -123.5v-40h-62v37q0 57 -18 86t-52 29q-35 0 -54.5 -28t-19.5 -81q0 -39 13 -64.5t47 -55.5l68 -59
q44 -38 65 -82.5t21 -104.5q0 -82 -37.5 -129.5t-102.5 -47.5q-63 0 -101.5 45t-38.5 123v52zM197 835h70l-65 -93h-56z" />
    <glyph glyph-name="sacute" unicode="&#x15b;" horiz-adv-x="325" 
d="M32 170h62v-29q0 -44 18.5 -68.5t49.5 -24.5q30 0 48 23t18 64q0 31 -12.5 53.5t-43.5 43.5l-60 41q-41 28 -58.5 57.5t-17.5 70.5q0 61 34 101t92 40t92 -41t34 -105v-26h-62v23q0 44 -17 68.5t-47 24.5t-47 -22t-17 -57q0 -28 12.5 -47.5t37.5 -36.5l62 -41
q41 -27 60.5 -61.5t19.5 -83.5q0 -67 -33 -106t-93 -39q-61 0 -96.5 40t-35.5 106v32zM188 685h70l-65 -93h-56z" />
    <glyph glyph-name="Scedilla" unicode="&#x15e;" horiz-adv-x="355" 
d="M36 212h62v-49q0 -56 21 -85.5t57 -29.5t57 30t21 88q0 47 -15.5 80t-50.5 62l-69 59q-39 33 -59 72t-20 95q0 77 36.5 121.5t99.5 44.5q62 0 97 -44.5t35 -123.5v-40h-62v37q0 57 -18 86t-52 29q-35 0 -54.5 -28t-19.5 -81q0 -39 13 -64.5t47 -55.5l68 -59
q44 -38 65 -82.5t21 -104.5q0 -82 -37.5 -129.5t-102.5 -47.5q-63 0 -101.5 45t-38.5 123v52zM173 -122h-58l36 142h56z" />
    <glyph glyph-name="scedilla" unicode="&#x15f;" horiz-adv-x="325" 
d="M32 170h62v-29q0 -44 18.5 -68.5t49.5 -24.5q30 0 48 23t18 64q0 31 -12.5 53.5t-43.5 43.5l-60 41q-41 28 -58.5 57.5t-17.5 70.5q0 61 34 101t92 40t92 -41t34 -105v-26h-62v23q0 44 -17 68.5t-47 24.5t-47 -22t-17 -57q0 -28 12.5 -47.5t37.5 -36.5l62 -41
q41 -27 60.5 -61.5t19.5 -83.5q0 -67 -33 -106t-93 -39q-61 0 -96.5 40t-35.5 106v32zM173 -122h-58l36 142h56z" />
    <glyph glyph-name="Scaron" unicode="&#x160;" horiz-adv-x="355" 
d="M36 212h62v-49q0 -56 21 -85.5t57 -29.5t57 30t21 88q0 47 -15.5 80t-50.5 62l-69 59q-39 33 -59 72t-20 95q0 77 36.5 121.5t99.5 44.5q62 0 97 -44.5t35 -123.5v-40h-62v37q0 57 -18 86t-52 29q-35 0 -54.5 -28t-19.5 -81q0 -39 13 -64.5t47 -55.5l68 -59
q44 -38 65 -82.5t21 -104.5q0 -82 -37.5 -129.5t-102.5 -47.5q-63 0 -101.5 45t-38.5 123v52zM290 850l-86 -108h-46l-86 108h56l53 -67l53 67h56z" />
    <glyph glyph-name="scaron" unicode="&#x161;" horiz-adv-x="325" 
d="M32 170h62v-29q0 -44 18.5 -68.5t49.5 -24.5q30 0 48 23t18 64q0 31 -12.5 53.5t-43.5 43.5l-60 41q-41 28 -58.5 57.5t-17.5 70.5q0 61 34 101t92 40t92 -41t34 -105v-26h-62v23q0 44 -17 68.5t-47 24.5t-47 -22t-17 -57q0 -28 12.5 -47.5t37.5 -36.5l62 -41
q41 -27 60.5 -61.5t19.5 -83.5q0 -67 -33 -106t-93 -39q-61 0 -96.5 40t-35.5 106v32zM272 700l-86 -108h-46l-86 108h56l53 -67l53 67h56z" />
    <glyph glyph-name="uni0162" unicode="&#x162;" horiz-adv-x="320" 
d="M306 692v-56h-115v-636h-2l-29 -122h-58l31 122h-4v636h-115v56h292z" />
    <glyph glyph-name="uni0163" unicode="&#x163;" horiz-adv-x="259" 
d="M80 534v104l62 16v-120h84v-56h-84v-356q0 -66 60 -66h25v-56h-31q-54 0 -85 30t-31 83v365h-61v56h61zM158 -122h-58l36 142h56z" />
    <glyph glyph-name="Tcaron" unicode="&#x164;" horiz-adv-x="320" 
d="M14 692h292v-56h-115v-636h-62v636h-115v56zM269 850l-86 -108h-46l-86 108h56l53 -67l53 67h56z" />
    <glyph glyph-name="tcaron" unicode="&#x165;" horiz-adv-x="259" 
d="M248 746l-14 -168h-43v168h57zM80 534v104l62 16v-120h84v-56h-84v-356q0 -66 60 -66h25v-56h-31q-54 0 -85 30t-31 83v365h-61v56h61z" />
    <glyph glyph-name="Tbar" unicode="&#x166;" horiz-adv-x="320" 
d="M14 692h292v-56h-115v-636h-62v636h-115v56zM264 379v-54h-207v54h207z" />
    <glyph glyph-name="tbar" unicode="&#x167;" horiz-adv-x="259" 
d="M80 534v104l62 16v-120h84v-56h-84v-356q0 -66 60 -66h25v-56h-31q-54 0 -85 30t-31 83v365h-61v56h61zM223 353v-52h-207v52h207z" />
    <glyph glyph-name="Umacron" unicode="&#x16a;" horiz-adv-x="422" 
d="M67 692h62v-529q0 -56 23 -85.5t59 -29.5t59 29.5t23 85.5v529h62v-532q0 -77 -40 -122.5t-104 -45.5t-104 45.5t-40 122.5v532zM116 810h180v-50h-180v50z" />
    <glyph glyph-name="umacron" unicode="&#x16b;" horiz-adv-x="389" 
d="M327 0h-39l-14 38h-3q-40 -46 -98 -46q-53 0 -84 37t-31 100v405h62v-395q0 -44 18.5 -67.5t48.5 -23.5q33 0 54 25t24 62v399h62v-534zM103 660h180v-50h-180v50z" />
    <glyph glyph-name="Uring" unicode="&#x16e;" horiz-adv-x="422" 
d="M67 692h62v-529q0 -56 23 -85.5t59 -29.5t59 29.5t23 85.5v529h62v-532q0 -77 -40 -122.5t-104 -45.5t-104 45.5t-40 122.5v532zM145.5 857.5q23.5 20.5 60.5 20.5t60.5 -20.5t23.5 -52.5t-23.5 -52.5t-60.5 -20.5t-60.5 20.5t-23.5 52.5t23.5 52.5zM176 779.5
q12 -10.5 30 -10.5t30 10.5t12 25.5t-12 25.5t-30 10.5t-30 -10.5t-12 -25.5t12 -25.5z" />
    <glyph glyph-name="uring" unicode="&#x16f;" horiz-adv-x="389" 
d="M327 0h-39l-14 38h-3q-40 -46 -98 -46q-53 0 -84 37t-31 100v405h62v-395q0 -44 18.5 -67.5t48.5 -23.5q33 0 54 25t24 62v399h62v-534zM134.5 707.5q23.5 20.5 60.5 20.5t60.5 -20.5t23.5 -52.5t-23.5 -52.5t-60.5 -20.5t-60.5 20.5t-23.5 52.5t23.5 52.5zM165 629.5
q12 -10.5 30 -10.5t30 10.5t12 25.5t-12 25.5t-30 10.5t-30 -10.5t-12 -25.5t12 -25.5z" />
    <glyph glyph-name="Uhungarumlaut" unicode="&#x170;" horiz-adv-x="422" 
d="M67 692h62v-529q0 -56 23 -85.5t59 -29.5t59 29.5t23 85.5v529h62v-532q0 -77 -40 -122.5t-104 -45.5t-104 45.5t-40 122.5v532zM166 830h59l-63 -88h-54zM286 830h59l-63 -88h-54z" />
    <glyph glyph-name="uhungarumlaut" unicode="&#x171;" horiz-adv-x="389" 
d="M327 0h-39l-14 38h-3q-40 -46 -98 -46q-53 0 -84 37t-31 100v405h62v-395q0 -44 18.5 -67.5t48.5 -23.5q33 0 54 25t24 62v399h62v-534zM153 680h59l-63 -88h-54zM273 680h59l-63 -88h-54z" />
    <glyph glyph-name="Uogonek" unicode="&#x172;" horiz-adv-x="412" 
d="M355 692v-532q0 -50 -18 -87.5t-49 -58.5l-56 -64q-14 -15 -14 -32q0 -21 28 -21h43v-50h-48q-35 0 -55 16.5t-20 46.5q0 28 19 52l25 30q-63 1 -103 46t-40 122v532h62v-529q0 -56 23 -85.5t59 -29.5t59 29.5t23 85.5v529h62z" />
    <glyph glyph-name="uogonek" unicode="&#x173;" horiz-adv-x="389" 
d="M340 -103v-50h-48q-35 0 -55 16.5t-20 46.5q0 28 19 52l38 46v30h-3q-40 -46 -98 -46q-53 0 -84 37t-31 100v405h62v-395q0 -44 18.5 -67.5t48.5 -23.5q33 0 54 25t24 62v399h62v-534l-44 -50q-14 -17 -14 -32q0 -21 28 -21h43z" />
    <glyph glyph-name="Wcircumflex" unicode="&#x174;" horiz-adv-x="588" 
d="M575 692l-118 -692h-64l-99 548l-99 -548h-64l-118 692h66l86 -558l98 558h57h5l98 -558l86 558h66zM347 742l-53 67l-53 -67h-56l86 108h46l86 -108h-56z" />
    <glyph glyph-name="wcircumflex" unicode="&#x175;" horiz-adv-x="522" 
d="M505 534l-105 -534h-64l-75 417l-75 -417h-64l-105 534h66l69 -422l81 422h49h7l81 -422l69 422h66zM314 592l-53 67l-53 -67h-56l86 108h46l86 -108h-56z" />
    <glyph glyph-name="Ycircumflex" unicode="&#x176;" horiz-adv-x="346" 
d="M340 692l-136 -397v-295h-62v295l-136 397h70l97 -324l97 324h70zM226 742l-53 67l-53 -67h-56l86 108h46l86 -108h-56z" />
    <glyph glyph-name="ycircumflex" unicode="&#x177;" horiz-adv-x="325" 
d="M311 534l-156 -704h-62l50 210l-126 494h68l85 -392l77 392h64zM221 592l-53 67l-53 -67h-56l86 108h46l86 -108h-56z" />
    <glyph glyph-name="Ydieresis" unicode="&#x178;" horiz-adv-x="346" 
d="M340 692l-136 -397v-295h-62v295l-136 397h70l97 -324l97 324h70zM74 837h68v-74h-68v74zM204 837h68v-74h-68v74z" />
    <glyph glyph-name="Zacute" unicode="&#x179;" horiz-adv-x="317" 
d="M291 56v-56h-269v47l197 589h-177v56h246v-47l-197 -589h200zM181 835h70l-65 -93h-56z" />
    <glyph glyph-name="zacute" unicode="&#x17a;" horiz-adv-x="292" 
d="M264 56v-56h-238v50l169 428h-163v56h230v-50l-169 -428h171zM165 685h70l-65 -93h-56z" />
    <glyph glyph-name="Zdotaccent" unicode="&#x17b;" horiz-adv-x="317" 
d="M291 56v-56h-269v47l197 589h-177v56h246v-47l-197 -589h200zM128 850h72v-84h-72v84z" />
    <glyph glyph-name="zdotaccent" unicode="&#x17c;" horiz-adv-x="292" 
d="M264 56v-56h-238v50l169 428h-163v56h230v-50l-169 -428h171zM109 700h72v-84h-72v84z" />
    <glyph glyph-name="Zcaron" unicode="&#x17d;" horiz-adv-x="317" 
d="M291 56v-56h-269v47l197 589h-177v56h246v-47l-197 -589h200zM278 850l-86 -108h-46l-86 108h56l53 -67l53 67h56z" />
    <glyph glyph-name="zcaron" unicode="&#x17e;" horiz-adv-x="292" 
d="M264 56v-56h-238v50l169 428h-163v56h230v-50l-169 -428h171zM261 700l-86 -108h-46l-86 108h56l53 -67l53 67h56z" />
    <glyph glyph-name="Scommaaccent" unicode="&#x218;" horiz-adv-x="355" 
d="M36 212h62v-49q0 -56 21 -85.5t57 -29.5t57 30t21 88q0 47 -15.5 80t-50.5 62l-69 59q-39 33 -59 72t-20 95q0 77 36.5 121.5t99.5 44.5q62 0 97 -44.5t35 -123.5v-40h-62v37q0 57 -18 86t-52 29q-35 0 -54.5 -28t-19.5 -81q0 -39 13 -64.5t47 -55.5l68 -59
q44 -38 65 -82.5t21 -104.5q0 -82 -37.5 -129.5t-102.5 -47.5q-63 0 -101.5 45t-38.5 123v52zM216 -56v-48l-40 -89h-34l25 70h-31v67h80z" />
    <glyph glyph-name="scommaaccent" unicode="&#x219;" horiz-adv-x="325" 
d="M32 170h62v-29q0 -44 18.5 -68.5t49.5 -24.5q30 0 48 23t18 64q0 31 -12.5 53.5t-43.5 43.5l-60 41q-41 28 -58.5 57.5t-17.5 70.5q0 61 34 101t92 40t92 -41t34 -105v-26h-62v23q0 44 -17 68.5t-47 24.5t-47 -22t-17 -57q0 -28 12.5 -47.5t37.5 -36.5l62 -41
q41 -27 60.5 -61.5t19.5 -83.5q0 -67 -33 -106t-93 -39q-61 0 -96.5 40t-35.5 106v32zM201 -56v-48l-40 -89h-34l25 70h-31v67h80z" />
    <glyph glyph-name="uni021A" unicode="&#x21a;" horiz-adv-x="320" 
d="M14 692h292v-56h-115v-636h-62v636h-115v56zM200 -56v-48l-40 -89h-34l25 70h-31v67h80z" />
    <glyph glyph-name="uni021B" unicode="&#x21b;" horiz-adv-x="259" 
d="M80 534v104l62 16v-120h84v-56h-84v-356q0 -66 60 -66h25v-56h-31q-54 0 -85 30t-31 83v365h-61v56h61zM187 -56v-48l-40 -89h-34l25 70h-31v67h80z" />
    <glyph glyph-name="circumflex" unicode="&#x2c6;" horiz-adv-x="315" 
d="M239 592l-53 67l-53 -67h-56l86 108h46l86 -108h-56z" />
    <glyph glyph-name="caron" unicode="&#x2c7;" horiz-adv-x="315" 
d="M295 700l-86 -108h-46l-86 108h56l53 -67l53 67h56z" />
    <glyph glyph-name="breve" unicode="&#x2d8;" horiz-adv-x="321" 
d="M127.5 612.5q-28.5 24.5 -28.5 62.5h52q0 -19 13.5 -30.5t35.5 -11.5t35.5 11.5t13.5 30.5h52q0 -38 -28.5 -62.5t-72.5 -24.5t-72.5 24.5z" />
    <glyph glyph-name="dotaccent" unicode="&#x2d9;" horiz-adv-x="237" 
d="M145 700h72v-84h-72v84z" />
    <glyph glyph-name="ring" unicode="&#x2da;" horiz-adv-x="278" 
d="M113.5 707.5q23.5 20.5 60.5 20.5t60.5 -20.5t23.5 -52.5t-23.5 -52.5t-60.5 -20.5t-60.5 20.5t-23.5 52.5t23.5 52.5zM144 629.5q12 -10.5 30 -10.5t30 10.5t12 25.5t-12 25.5t-30 10.5t-30 -10.5t-12 -25.5t12 -25.5z" />
    <glyph glyph-name="ogonek" unicode="&#x2db;" horiz-adv-x="228" 
d="M151 -50q-14 -17 -14 -32q0 -21 28 -21h43v-50h-48q-35 0 -55 16.5t-20 46.5q0 28 19 52l50 61l41 -23z" />
    <glyph glyph-name="tilde" unicode="&#x2dc;" horiz-adv-x="320" 
d="M90.5 664q17.5 19 43.5 19q22 0 56 -21q3 -2 19 -11.5t25 -9.5t15 9t6 30h45q0 -43 -17.5 -62t-43.5 -19q-22 0 -56 21q-3 2 -19 11.5t-25 9.5t-15 -9t-6 -30h-45q0 43 17.5 62z" />
    <glyph glyph-name="hungarumlaut" unicode="&#x2dd;" horiz-adv-x="352" 
d="M153 680h59l-63 -88h-54zM273 680h59l-63 -88h-54z" />
    <glyph glyph-name="gravecomb" unicode="&#x300;" 
d="M-76 592l-65 93h70l51 -93h-56z" />
    <glyph glyph-name="acutecomb" unicode="&#x301;" 
d="M-90 685h70l-65 -93h-56z" />
    <glyph glyph-name="uni0302" unicode="&#x302;" 
d="M-76 592l-53 67l-53 -67h-56l86 108h46l86 -108h-56z" />
    <glyph glyph-name="tildecomb" unicode="&#x303;" 
d="M-220.5 664q17.5 19 43.5 19q22 0 56 -21q3 -2 19 -11.5t25 -9.5t15 9t6 30h45q0 -43 -17.5 -62t-43.5 -19q-22 0 -56 21q-3 2 -19 11.5t-25 9.5t-15 -9t-6 -30h-45q0 43 17.5 62z" />
    <glyph glyph-name="uni0304" unicode="&#x304;" 
d="M-200 660h180v-50h-180v50z" />
    <glyph glyph-name="uni0306" unicode="&#x306;" 
d="M-187.5 612.5q-28.5 24.5 -28.5 62.5h52q0 -19 13.5 -30.5t35.5 -11.5t35.5 11.5t13.5 30.5h52q0 -38 -28.5 -62.5t-72.5 -24.5t-72.5 24.5z" />
    <glyph glyph-name="uni0307" unicode="&#x307;" 
d="M-92 700h72v-84h-72v84z" />
    <glyph glyph-name="uni0308" unicode="&#x308;" 
d="M-213 687h68v-74h-68v74zM-83 687h68v-74h-68v74z" />
    <glyph glyph-name="uni030A" unicode="&#x30a;" 
d="M-152.5 707.5q23.5 20.5 60.5 20.5t60.5 -20.5t23.5 -52.5t-23.5 -52.5t-60.5 -20.5t-60.5 20.5t-23.5 52.5t23.5 52.5zM-122 629.5q12 -10.5 30 -10.5t30 10.5t12 25.5t-12 25.5t-30 10.5t-30 -10.5t-12 -25.5t12 -25.5z" />
    <glyph glyph-name="uni030B" unicode="&#x30b;" 
d="M-206 680h59l-63 -88h-54zM-86 680h59l-63 -88h-54z" />
    <glyph glyph-name="uni030C" unicode="&#x30c;" 
d="M-20 700l-86 -108h-46l-86 108h56l53 -67l53 67h56z" />
    <glyph glyph-name="uni0312" unicode="&#x312;" 
d="M-100 594v48l40 89h34l-25 -70h31v-67h-80z" />
    <glyph glyph-name="uni0326" unicode="&#x326;" 
d="M-20 -56v-48l-40 -89h-34l25 70h-31v67h80z" />
    <glyph glyph-name="uni0327" unicode="&#x327;" 
d="M-54 -122h-58l36 142h56z" />
    <glyph glyph-name="uni0328" unicode="&#x328;" 
d="M-64 -50q-14 -17 -14 -32q0 -21 28 -21h43v-50h-48q-35 0 -55 16.5t-20 46.5q0 28 19 52l50 61l41 -23z" />
    <glyph glyph-name="uni0335" unicode="&#x335;" 
d="M-10 353v-52h-207v52h207z" />
    <glyph glyph-name="uni0336" unicode="&#x336;" 
d="M-20 572v-54h-392v54h392z" />
    <glyph glyph-name="uni0337" unicode="&#x337;" 
d="M-27 473v-56l-206 -100v56z" />
    <glyph glyph-name="uni0338" unicode="&#x338;" 
d="M9 596l-156 -658h-48l156 658h48z" />
    <glyph glyph-name="uni0401" unicode="&#x401;" horiz-adv-x="360" 
d="M70 692h242v-56h-180v-247h140v-56h-140v-277h185v-56h-247v692zM99 837h68v-74h-68v74zM229 837h68v-74h-68v74z" />
    <glyph glyph-name="uni0404" unicode="&#x404;" horiz-adv-x="386" 
d="M343 211v-51q0 -77 -40.5 -122.5t-104.5 -45.5t-104.5 45.5t-40.5 122.5v372q0 77 40.5 122.5t104.5 45.5q63 0 102.5 -45.5t39.5 -122.5v-41h-62v38q1 55 -21.5 85t-58.5 30t-59.5 -30t-23.5 -85v-140h141v-56h-141v-170q0 -55 23.5 -85t59.5 -30t59.5 30t23.5 85v48h62
z" />
    <glyph glyph-name="uni0406" unicode="&#x406;" horiz-adv-x="202" 
d="M132 692v-692h-62v692h62z" />
    <glyph glyph-name="uni0407" unicode="&#x407;" horiz-adv-x="202" 
d="M12 837h68v-74h-68v74zM122 837h68v-74h-68v74zM132 692v-692h-62v692h62z" />
    <glyph glyph-name="uni040E" unicode="&#x40e;" horiz-adv-x="350" 
d="M341 692l-181 -692h-65l56 214l-142 478h66l106 -379l95 379h65zM105.5 762.5q-28.5 24.5 -28.5 62.5h52q0 -19 13.5 -30.5t35.5 -11.5t35.5 11.5t13.5 30.5h52q0 -38 -28.5 -62.5t-72.5 -24.5t-72.5 24.5z" />
    <glyph glyph-name="uni0410" unicode="&#x410;" horiz-adv-x="356" 
d="M149 692h58l140 -692h-66l-31 175h-144l-31 -175h-66zM240 231l-62 348l-62 -348h124z" />
    <glyph glyph-name="uni0411" unicode="&#x411;" horiz-adv-x="382" 
d="M301 378.5q39 -39.5 39 -102.5v-134q0 -63 -39 -102.5t-102 -39.5h-129v692h244v-56h-182v-218h67q63 0 102 -39.5zM278 273q0 43 -22.5 66t-59.5 23h-64v-306h64q37 0 59.5 23t22.5 66v128z" />
    <glyph glyph-name="uni0412" unicode="&#x412;" horiz-adv-x="392" 
d="M329 319.5q19 -31.5 19 -74.5v-103q0 -63 -39 -102.5t-102 -39.5h-137v692h122q63 0 102 -39.5t39 -102.5v-77q0 -75 -57 -107q34 -15 53 -46.5zM132 636v-249h57q37 0 59.5 23t22.5 66v71q0 43 -22.5 66t-59.5 23h-57zM286 242q0 43 -22.5 66t-59.5 23h-72v-275h72
q37 0 59.5 23t22.5 66v97z" />
    <glyph glyph-name="uni0413" unicode="&#x413;" horiz-adv-x="309" 
d="M70 692h228v-56h-166v-636h-62v692z" />
    <glyph glyph-name="uni0414" unicode="&#x414;" horiz-adv-x="405" 
d="M386 56v-155h-62v99h-262v-99h-62v155h32q24 30 33 95q12 80 23 242t13 299h238v-636h47zM277 56v580h-118q-7 -149 -17.5 -294t-19.5 -203q-7 -51 -24 -83h179z" />
    <glyph glyph-name="uni0415" unicode="&#x415;" horiz-adv-x="360" 
d="M70 692h242v-56h-180v-247h140v-56h-140v-277h185v-56h-247v692z" />
    <glyph glyph-name="uni0416" unicode="&#x416;" horiz-adv-x="524" 
d="M447 0l-101 341h-53v-341h-62v341h-53l-101 -341h-69l119 370l-98 322h67l81 -295h54v295h62v-295h54l81 295h67l-98 -322l119 -370h-69z" />
    <glyph glyph-name="uni0417" unicode="&#x417;" horiz-adv-x="359" 
d="M297 320q18 -31 18 -73v-113q0 -62 -39.5 -102t-99.5 -40q-64 0 -101 45.5t-37 122.5v51h62v-48q0 -56 20.5 -85.5t55.5 -29.5q32 0 54.5 23t22.5 66v107q0 43 -22.5 66t-59.5 23h-48v56h40q37 0 59.5 23t22.5 66v77q0 43 -19 66t-50 23q-34 0 -52 -29t-18 -86v-38h-62
v41q0 78 35 123t97 45q58 0 94.5 -39.5t36.5 -102.5v-83q0 -78 -61 -108q33 -16 51 -47z" />
    <glyph glyph-name="uni0418" unicode="&#x418;" horiz-adv-x="438" 
d="M368 692v-692h-62v512l-180 -512h-56v692h62v-512l180 512h56z" />
    <glyph glyph-name="uni0419" unicode="&#x419;" horiz-adv-x="438" 
d="M368 692v-692h-62v512l-180 -512h-56v692h62v-512l180 512h56zM146.5 762.5q-28.5 24.5 -28.5 62.5h52q0 -19 13.5 -30.5t35.5 -11.5t35.5 11.5t13.5 30.5h52q0 -38 -28.5 -62.5t-72.5 -24.5t-72.5 24.5z" />
    <glyph glyph-name="uni041A" unicode="&#x41a;" horiz-adv-x="373" 
d="M192 341h-60v-341h-62v692h62v-295h62l84 295h67l-102 -322l122 -370h-69z" />
    <glyph glyph-name="uni041B" unicode="&#x41b;" horiz-adv-x="412" 
d="M342 0h-62v636h-110q-7 -149 -17.5 -294t-19.5 -203q-11 -74 -39 -106.5t-81 -32.5v56q26 0 41 22t22 73q12 80 23 242t13 299h230v-692z" />
    <glyph glyph-name="uni041C" unicode="&#x41c;" horiz-adv-x="544" 
d="M474 692v-692h-62v505l-132 -381h-16l-132 381v-505h-62v692h56l146 -432l146 432h56z" />
    <glyph glyph-name="uni041D" unicode="&#x41d;" horiz-adv-x="424" 
d="M70 692h62v-303h160v303h62v-692h-62v333h-160v-333h-62v692z" />
    <glyph glyph-name="uni041E" unicode="&#x41e;" horiz-adv-x="408" 
d="M53 532q0 77 42.5 122.5t108.5 45.5t108.5 -45.5t42.5 -122.5v-372q0 -77 -42.5 -122.5t-108.5 -45.5t-108.5 45.5t-42.5 122.5v372zM140 78q25 -30 64 -30t64 30t25 85v366q0 55 -25 85t-64 30t-64 -30t-25 -85v-366q0 -55 25 -85z" />
    <glyph glyph-name="uni041F" unicode="&#x41f;" horiz-adv-x="418" 
d="M348 0h-62v636h-154v-636h-62v692h278v-692z" />
    <glyph glyph-name="uni0420" unicode="&#x420;" horiz-adv-x="373" 
d="M70 692h121q63 0 102 -39.5t39 -102.5v-139q0 -63 -39 -102.5t-102 -39.5h-59v-269h-62v692zM188 325q37 0 59.5 23t22.5 66v133q0 43 -22.5 66t-59.5 23h-56v-311h56z" />
    <glyph glyph-name="uni0421" unicode="&#x421;" horiz-adv-x="377" 
d="M276 529q0 56 -22 85.5t-57 29.5q-36 0 -59 -29.5t-23 -85.5v-366q0 -56 23 -85.5t59 -29.5t59 29.5t23 85.5v48h62v-51q0 -77 -40 -122.5t-104 -45.5t-104 45.5t-40 122.5v372q0 77 40 122.5t104 45.5q63 0 102 -45.5t39 -122.5v-41h-62v38z" />
    <glyph glyph-name="uni0422" unicode="&#x422;" horiz-adv-x="320" 
d="M14 692h292v-56h-115v-636h-62v636h-115v56z" />
    <glyph glyph-name="uni0423" unicode="&#x423;" horiz-adv-x="350" 
d="M341 692l-181 -692h-65l56 214l-142 478h66l106 -379l95 379h65z" />
    <glyph glyph-name="uni0424" unicode="&#x424;" horiz-adv-x="522" 
d="M426 590q50 -54 50 -144v-181q0 -91 -49.5 -144.5t-134.5 -61.5v-81h-62v81q-85 8 -134.5 61.5t-49.5 144.5v181q0 90 50 144t134 62v62h62v-62q84 -8 134 -62zM140.5 161.5q32.5 -38.5 89.5 -46.5v481q-56 -8 -89 -46.5t-33 -106.5v-175q0 -68 32.5 -106.5zM414 443
q0 68 -33 106.5t-89 46.5v-481q57 8 89.5 46.5t32.5 106.5v175z" />
    <glyph glyph-name="uni0425" unicode="&#x425;" horiz-adv-x="355" 
d="M274 0l-98 302l-97 -302h-70l130 365l-113 327h69l81 -262l83 262h69l-116 -327l131 -365h-69z" />
    <glyph glyph-name="uni0426" unicode="&#x426;" horiz-adv-x="414" 
d="M70 692h62v-636h154v636h62v-636h47v-155h-62v99h-263v692z" />
    <glyph glyph-name="uni0427" unicode="&#x427;" horiz-adv-x="389" 
d="M116 442q0 -43 22.5 -66t59.5 -23h59v339h62v-692h-62v297h-62q-63 0 -102 39.5t-39 102.5v253h62v-250z" />
    <glyph glyph-name="uni0428" unicode="&#x428;" horiz-adv-x="594" 
d="M70 692h62v-636h134v636h62v-636h134v636h62v-692h-454v692z" />
    <glyph glyph-name="uni0429" unicode="&#x429;" horiz-adv-x="590" 
d="M70 692h62v-636h134v636h62v-636h134v636h62v-636h47v-155h-62v99h-439v692z" />
    <glyph glyph-name="uni042A" unicode="&#x42a;" horiz-adv-x="409" 
d="M330 384.5q39 -39.5 39 -102.5v-140q0 -63 -39 -102.5t-102 -39.5h-129v636h-87v56h149v-268h67q63 0 102 -39.5zM307 279q0 43 -22.5 66t-59.5 23h-64v-312h64q37 0 59.5 23t22.5 66v134z" />
    <glyph glyph-name="uni042B" unicode="&#x42b;" horiz-adv-x="542" 
d="M297 384.5q39 -39.5 39 -102.5v-140q0 -63 -39 -102.5t-102 -39.5h-125v692h62v-268h63q63 0 102 -39.5zM472 692v-692h-62v692h62zM274 279q0 43 -22.5 66t-59.5 23h-60v-312h60q37 0 59.5 23t22.5 66v134z" />
    <glyph glyph-name="uni042C" unicode="&#x42c;" horiz-adv-x="380" 
d="M301 384.5q39 -39.5 39 -102.5v-140q0 -63 -39 -102.5t-102 -39.5h-129v692h62v-268h67q63 0 102 -39.5zM278 279q0 43 -22.5 66t-59.5 23h-64v-312h64q37 0 59.5 23t22.5 66v134z" />
    <glyph glyph-name="uni042D" unicode="&#x42d;" horiz-adv-x="386" 
d="M292.5 654.5q40.5 -45.5 40.5 -122.5v-372q0 -77 -40.5 -122.5t-104.5 -45.5t-104.5 45.5t-40.5 122.5v51h62v-48q0 -55 23.5 -85t59.5 -30t59.5 30t23.5 85v170h-141v56h141v140q0 55 -23.5 85t-59.5 30t-58.5 -30t-21.5 -85v-38h-62v41q0 77 39.5 122.5t102.5 45.5
q64 0 104.5 -45.5z" />
    <glyph glyph-name="uni042E" unicode="&#x42e;" horiz-adv-x="565" 
d="M471.5 654.5q40.5 -45.5 40.5 -122.5v-372q0 -77 -40.5 -122.5t-106.5 -45.5t-106.5 45.5t-40.5 122.5v173h-86v-333h-62v692h62v-303h86v143q0 77 40.5 122.5t106.5 45.5t106.5 -45.5zM450 529q0 55 -23.5 85t-61.5 30t-61.5 -30t-23.5 -85v-366q0 -55 23.5 -85
t61.5 -30t61.5 30t23.5 85v366z" />
    <glyph glyph-name="uni042F" unicode="&#x42f;" horiz-adv-x="391" 
d="M321 692v-692h-62v279h-54l-109 -279h-70l119 287q-42 14 -66.5 49.5t-24.5 84.5v129q0 63 39 102.5t102 39.5h126zM259 636h-61q-37 0 -59.5 -23t-22.5 -66v-123q0 -43 22.5 -66t59.5 -23h61v301z" />
    <glyph glyph-name="uni0430" unicode="&#x430;" horiz-adv-x="360" 
d="M267 501q35 -41 35 -105v-396h-39l-14 38h-3q-40 -46 -97 -46q-52 0 -82.5 37t-30.5 98v31q0 62 37 103t99 41h68v91q0 44 -18 68.5t-48 24.5t-48 -24.5t-18 -68.5v-23h-62v26q0 64 35 105t93 41t93 -41zM216 73q21 25 24 62v111h-68q-34 0 -54 -24t-20 -67v-18
q0 -42 18.5 -65.5t47.5 -23.5q31 0 52 25z" />
    <glyph glyph-name="uni0431" unicode="&#x431;" horiz-adv-x="372" 
d="M49 481q0 87 19.5 129.5t67.5 58.5q19 6 42.5 8.5t27.5 3.5q36 5 51 7q28 4 45 14v-56q-11 -11 -42 -17q-14 -3 -44 -7q-37 -4 -51 -9q-33 -10 -48 -42.5t-15 -89.5v-15h3q38 43 93 43t90 -43t35 -103v-225q0 -62 -37.5 -104t-99.5 -42t-99.5 42t-37.5 104v343zM131.5 73
q20.5 -25 54.5 -25t54.5 25t20.5 68v219q0 43 -20.5 68t-52.5 25t-53 -24t-24 -60v-228q0 -43 20.5 -68z" />
    <glyph glyph-name="uni0432" unicode="&#x432;" horiz-adv-x="356" 
d="M300.5 241q19.5 -27 19.5 -65v-48q0 -62 -35.5 -95t-104.5 -33h-118v534h104q68 0 104 -30.5t36 -87.5v-52q0 -28 -16 -52t-43 -34q34 -10 53.5 -37zM124 302h42q41 0 59.5 15.5t18.5 49.5v46q0 34 -18.5 49.5t-59.5 15.5h-42v-176zM258 173q0 39 -18.5 56t-59.5 17h-56
v-190h56q41 0 59.5 17t18.5 56v44z" />
    <glyph glyph-name="uni0433" unicode="&#x433;" horiz-adv-x="284" 
d="M270 478h-146v-478h-62v534h208v-56z" />
    <glyph glyph-name="uni0434" unicode="&#x434;" horiz-adv-x="373" 
d="M355 56v-148h-62v92h-225v-92h-62v148h26q17 24 24 70q10 63 18 177t10 231h226v-478h45zM248 56v422h-107q-5 -121 -12.5 -219.5t-14.5 -140.5q-6 -39 -17 -62h151z" />
    <glyph glyph-name="uni0435" unicode="&#x435;" horiz-adv-x="364" 
d="M49 396q0 63 36.5 104.5t97.5 41.5t97.5 -41.5t36.5 -104.5v-146h-206v-109q0 -44 19.5 -68.5t51.5 -24.5t51.5 24.5t19.5 68.5v29h62v-32q0 -63 -36.5 -104.5t-96.5 -41.5t-96.5 41.5t-36.5 104.5v258zM255 306v87q0 44 -19.5 68.5t-52.5 24.5q-32 0 -52 -24.5
t-20 -68.5v-87h144z" />
    <glyph glyph-name="uni0436" unicode="&#x436;" horiz-adv-x="462" 
d="M296 248h-34v-248h-62v248h-34l-88 -248h-71l109 278l-95 256h68l75 -230h36v230h62v-230h36l75 230h68l-95 -256l109 -278h-71z" />
    <glyph glyph-name="uni0437" unicode="&#x437;" horiz-adv-x="332" 
d="M35 170h62v-29q0 -45 19 -69t54 -24q30 0 47 18.5t17 56.5v54q0 39 -18.5 56t-59.5 17h-37v56h23q42 0 62 16t20 49v50q0 33 -15 49t-41 16q-32 0 -49 -24t-17 -69v-23h-62v26q0 65 34 105.5t95 40.5q53 0 85 -31.5t32 -86.5v-56q0 -28 -17.5 -52t-45.5 -34
q34 -10 53.5 -37t19.5 -65v-58q0 -61 -33.5 -95.5t-91.5 -34.5q-64 0 -100 41t-36 105v32z" />
    <glyph glyph-name="uni0438" unicode="&#x438;" horiz-adv-x="395" 
d="M333 534v-534h-62v386l-151 -386h-58v534h62v-389l151 389h58z" />
    <glyph glyph-name="uni0439" unicode="&#x439;" horiz-adv-x="395" 
d="M333 534v-534h-62v386l-151 -386h-58v534h62v-389l151 389h58zM125.5 601.5q-28.5 24.5 -28.5 62.5h52q0 -19 13.5 -30.5t35.5 -11.5t35.5 11.5t13.5 30.5h52q0 -38 -28.5 -62.5t-72.5 -24.5t-72.5 24.5z" />
    <glyph glyph-name="uni043A" unicode="&#x43a;" horiz-adv-x="343" 
d="M163 248h-39v-248h-62v534h62v-230h39l91 230h68l-111 -256l125 -278h-71z" />
    <glyph glyph-name="uni043B" unicode="&#x43b;" horiz-adv-x="372" 
d="M310 0h-62v478h-99q-5 -121 -12.5 -219.5t-14.5 -140.5q-10 -63 -36 -90.5t-76 -27.5v56q25 0 36.5 15t17.5 55q10 63 18 177t10 231h218v-534z" />
    <glyph glyph-name="uni043C" unicode="&#x43c;" horiz-adv-x="486" 
d="M424 534v-534h-62v385l-111 -286h-16l-111 286v-385h-62v534h58l123 -323l123 323h58z" />
    <glyph glyph-name="uni043D" unicode="&#x43d;" horiz-adv-x="388" 
d="M62 534h62v-228h140v228h62v-534h-62v250h-140v-250h-62v534z" />
    <glyph glyph-name="uni043E" unicode="&#x43e;" horiz-adv-x="372" 
d="M49 396q0 62 37.5 104t99.5 42t99.5 -42t37.5 -104v-258q0 -62 -37.5 -104t-99.5 -42t-99.5 42t-37.5 104v258zM131.5 73q20.5 -25 54.5 -25t54.5 25t20.5 68v252q0 43 -20.5 68t-54.5 25t-54.5 -25t-20.5 -68v-252q0 -43 20.5 -68z" />
    <glyph glyph-name="uni043F" unicode="&#x43f;" horiz-adv-x="385" 
d="M62 534h261v-534h-62v478h-137v-478h-62v534z" />
    <glyph glyph-name="uni0440" unicode="&#x440;" horiz-adv-x="382" 
d="M302 505q31 -37 31 -100v-276q0 -63 -31 -100t-85 -37q-55 0 -93 39v-201h-62v704h39l14 -35h3q42 43 99 43q54 0 85 -37zM271 395q0 44 -18.5 67.5t-50.5 23.5t-53.5 -24t-24.5 -60v-267q3 -37 24.5 -62t54.5 -25q31 0 49.5 23.5t18.5 67.5v256z" />
    <glyph glyph-name="uni0441" unicode="&#x441;" horiz-adv-x="349" 
d="M251 393q0 44 -18.5 68.5t-50.5 24.5t-51.5 -24.5t-19.5 -68.5v-252q0 -44 19.5 -68.5t51.5 -24.5t51.5 24.5t19.5 68.5v29h62v-32q0 -63 -36.5 -104.5t-96.5 -41.5t-96.5 41.5t-36.5 104.5v258q0 63 36.5 104.5t96.5 41.5q61 0 96 -41.5t35 -104.5v-26h-62v23z" />
    <glyph glyph-name="uni0442" unicode="&#x442;" horiz-adv-x="292" 
d="M10 534h272v-56h-105v-478h-62v478h-105v56z" />
    <glyph glyph-name="uni0443" unicode="&#x443;" horiz-adv-x="325" 
d="M311 534l-156 -704h-62l50 210l-126 494h68l85 -392l77 392h64z" />
    <glyph glyph-name="uni0444" unicode="&#x444;" horiz-adv-x="484" 
d="M395 479.5q44 -51.5 44 -128.5v-168q0 -77 -44 -128.5t-122 -60.5v-164h-62v164q-78 9 -122 60.5t-44 128.5v168q0 77 44 128.5t122 60.5v152h62v-152q78 -9 122 -60.5zM134.5 93.5q27.5 -35.5 76.5 -43.5v434q-49 -8 -76.5 -43.5t-27.5 -92.5v-162q0 -57 27.5 -92.5z
M377 348q0 57 -27.5 92.5t-76.5 43.5v-434q49 8 76.5 43.5t27.5 92.5v162z" />
    <glyph glyph-name="uni0445" unicode="&#x445;" horiz-adv-x="337" 
d="M254 0l-84 218l-90 -218h-65l122 272l-119 262h71l80 -208l85 208h65l-117 -262l123 -272h-71z" />
    <glyph glyph-name="uni0446" unicode="&#x446;" horiz-adv-x="390" 
d="M62 534h62v-478h137v478h62v-478h49v-148h-62v92h-248v534z" />
    <glyph glyph-name="uni0447" unicode="&#x447;" horiz-adv-x="366" 
d="M46 534h62v-172q0 -43 20.5 -64t62.5 -21h51v257h62v-534h-62v221h-51q-70 0 -107.5 35t-37.5 101v177z" />
    <glyph glyph-name="uni0448" unicode="&#x448;" horiz-adv-x="536" 
d="M62 534h62v-478h113v478h62v-478h113v478h62v-534h-412v534z" />
    <glyph glyph-name="uni0449" unicode="&#x449;" horiz-adv-x="541" 
d="M62 534h62v-478h113v478h62v-478h113v478h62v-478h49v-148h-62v92h-399v534z" />
    <glyph glyph-name="uni044A" unicode="&#x44a;" horiz-adv-x="382" 
d="M12 534h142v-202h56q69 0 104.5 -33t35.5 -95v-76q0 -62 -35.5 -95t-104.5 -33h-118v478h-80v56zM210 56q41 0 59.5 17t18.5 56v74q0 39 -18.5 56t-59.5 17h-56v-220h56z" />
    <glyph glyph-name="uni044B" unicode="&#x44b;" horiz-adv-x="492" 
d="M62 534h62v-202h50q69 0 104.5 -33t35.5 -95v-76q0 -62 -35.5 -95t-104.5 -33h-112v534zM368 0v534h62v-534h-62zM174 56q41 0 59.5 17t18.5 56v74q0 39 -18.5 56t-59.5 17h-50v-220h50z" />
    <glyph glyph-name="uni044C" unicode="&#x44c;" horiz-adv-x="352" 
d="M62 534h62v-202h56q69 0 104.5 -33t35.5 -95v-76q0 -62 -35.5 -95t-104.5 -33h-118v534zM180 56q41 0 59.5 17t18.5 56v74q0 39 -18.5 56t-59.5 17h-56v-220h56z" />
    <glyph glyph-name="uni044D" unicode="&#x44d;" horiz-adv-x="357" 
d="M38 170h62v-29q0 -44 20.5 -68.5t52.5 -24.5t52.5 24.5t20.5 68.5v109h-125v56h125v87q0 44 -20.5 68.5t-52.5 24.5t-51.5 -24.5t-19.5 -68.5v-23h-62v26q0 63 36 104.5t97 41.5q60 0 97.5 -41.5t37.5 -104.5v-258q0 -63 -37 -104.5t-98 -41.5t-98 41.5t-37 104.5v32z
" />
    <glyph glyph-name="uni044E" unicode="&#x44e;" horiz-adv-x="502" 
d="M62 534h62v-228h71v90q0 64 33.5 105t95.5 41t95.5 -41t33.5 -105v-258q0 -64 -33.5 -105t-95.5 -41t-95.5 41t-33.5 105v112h-71v-250h-62v534zM274.5 73q17.5 -25 49.5 -25t49.5 25t17.5 68v252q0 43 -17.5 68t-49.5 25t-49.5 -25t-17.5 -68v-252q0 -43 17.5 -68z" />
    <glyph glyph-name="uni044F" unicode="&#x44f;" horiz-adv-x="365" 
d="M303 534v-534h-62v208h-54l-82 -208h-71l93 216q-82 24 -82 120v70q0 62 35.5 95t104.5 33h118zM241 478h-56q-41 0 -59.5 -17t-18.5 -56v-68q0 -39 18.5 -56t59.5 -17h56v214z" />
    <glyph glyph-name="uni0451" unicode="&#x451;" horiz-adv-x="364" 
d="M49 396q0 63 36.5 104.5t97.5 41.5t97.5 -41.5t36.5 -104.5v-146h-206v-109q0 -44 19.5 -68.5t51.5 -24.5t51.5 24.5t19.5 68.5v29h62v-32q0 -63 -36.5 -104.5t-96.5 -41.5t-96.5 41.5t-36.5 104.5v258zM255 306v87q0 44 -19.5 68.5t-52.5 24.5q-32 0 -52 -24.5
t-20 -68.5v-87h144zM84 677h68v-74h-68v74zM214 677h68v-74h-68v74z" />
    <glyph glyph-name="uni0454" unicode="&#x454;" horiz-adv-x="357" 
d="M282 33.5q-37 -41.5 -98 -41.5t-98 41.5t-37 104.5v258q0 63 37.5 104.5t97.5 41.5q61 0 97 -41.5t36 -104.5v-26h-62v23q0 44 -19.5 68.5t-51.5 24.5t-52.5 -24.5t-20.5 -68.5v-87h125v-56h-125v-109q0 -44 20.5 -68.5t52.5 -24.5t52.5 24.5t20.5 68.5v29h62v-32
q0 -63 -37 -104.5z" />
    <glyph glyph-name="uni0456" unicode="&#x456;" horiz-adv-x="182" 
d="M55 700h72v-84h-72v84zM60 534h62v-534h-62v534z" />
    <glyph glyph-name="uni0457" unicode="&#x457;" horiz-adv-x="182" 
d="M60 534h62v-534h-62v534zM2 677h68v-74h-68v74zM112 677h68v-74h-68v74z" />
    <glyph glyph-name="uni045E" unicode="&#x45e;" horiz-adv-x="325" 
d="M311 534l-156 -704h-62l50 210l-126 494h68l85 -392l77 392h64zM99.5 601.5q-28.5 24.5 -28.5 62.5h52q0 -19 13.5 -30.5t35.5 -11.5t35.5 11.5t13.5 30.5h52q0 -38 -28.5 -62.5t-72.5 -24.5t-72.5 24.5z" />
    <glyph glyph-name="uni0490" unicode="&#x490;" horiz-adv-x="309" 
d="M70 692h172v99h56v-155h-166v-636h-62v692z" />
    <glyph glyph-name="uni0491" unicode="&#x491;" horiz-adv-x="284" 
d="M270 478h-146v-478h-62v534h152v92h56v-148z" />
    <glyph glyph-name="Wgrave" unicode="&#x1e80;" horiz-adv-x="588" 
d="M575 692l-118 -692h-64l-99 548l-99 -548h-64l-118 692h66l86 -558l98 558h57h5l98 -558l86 558h66zM276 742l-65 93h70l51 -93h-56z" />
    <glyph glyph-name="wgrave" unicode="&#x1e81;" horiz-adv-x="522" 
d="M505 534l-105 -534h-64l-75 417l-75 -417h-64l-105 534h66l69 -422l81 422h49h7l81 -422l69 422h66zM244 592l-65 93h70l51 -93h-56z" />
    <glyph glyph-name="Wacute" unicode="&#x1e82;" horiz-adv-x="588" 
d="M575 692l-118 -692h-64l-99 548l-99 -548h-64l-118 692h66l86 -558l98 558h57h5l98 -558l86 558h66zM311 835h70l-65 -93h-56z" />
    <glyph glyph-name="wacute" unicode="&#x1e83;" horiz-adv-x="522" 
d="M505 534l-105 -534h-64l-75 417l-75 -417h-64l-105 534h66l69 -422l81 422h49h7l81 -422l69 422h66zM273 685h70l-65 -93h-56z" />
    <glyph glyph-name="Wdieresis" unicode="&#x1e84;" horiz-adv-x="588" 
d="M575 692l-118 -692h-64l-99 548l-99 -548h-64l-118 692h66l86 -558l98 558h57h5l98 -558l86 558h66zM195 837h68v-74h-68v74zM325 837h68v-74h-68v74z" />
    <glyph glyph-name="wdieresis" unicode="&#x1e85;" horiz-adv-x="522" 
d="M505 534l-105 -534h-64l-75 417l-75 -417h-64l-105 534h66l69 -422l81 422h49h7l81 -422l69 422h66zM162 687h68v-74h-68v74zM292 687h68v-74h-68v74z" />
    <glyph glyph-name="Ygrave" unicode="&#x1ef2;" horiz-adv-x="346" 
d="M340 692l-136 -397v-295h-62v295l-136 397h70l97 -324l97 324h70zM156 742l-65 93h70l51 -93h-56z" />
    <glyph glyph-name="ygrave" unicode="&#x1ef3;" horiz-adv-x="325" 
d="M311 534l-156 -704h-62l50 210l-126 494h68l85 -392l77 392h64zM149 592l-65 93h70l51 -93h-56z" />
    <glyph glyph-name="endash" unicode="&#x2013;" horiz-adv-x="403" 
d="M345 329v-56h-287v56h287z" />
    <glyph glyph-name="emdash" unicode="&#x2014;" horiz-adv-x="482" 
d="M424 329v-56h-366v56h366z" />
    <glyph glyph-name="quoteleft" unicode="&#x2018;" horiz-adv-x="176" 
d="M44 470v56l41 166h34l-27 -136h32v-86h-80z" />
    <glyph glyph-name="quoteright" unicode="&#x2019;" horiz-adv-x="176" 
d="M132 692v-56l-41 -166h-34l27 136h-32v86h80z" />
    <glyph glyph-name="quotesinglbase" unicode="&#x201a;" horiz-adv-x="162" 
d="M140 86v-56l-41 -166h-34l27 136h-32v86h80z" />
    <glyph glyph-name="quotedblleft" unicode="&#x201c;" horiz-adv-x="318" 
d="M44 470v56l41 166h34l-27 -136h32v-86h-80zM186 470v56l41 166h34l-27 -136h32v-86h-80z" />
    <glyph glyph-name="quotedblright" unicode="&#x201d;" horiz-adv-x="318" 
d="M132 692v-56l-41 -166h-34l27 136h-32v86h80zM274 692v-56l-41 -166h-34l27 136h-32v86h80z" />
    <glyph glyph-name="quotedblbase" unicode="&#x201e;" horiz-adv-x="304" 
d="M140 86v-56l-41 -166h-34l27 136h-32v86h80zM282 86v-56l-41 -166h-34l27 136h-32v86h80z" />
    <glyph glyph-name="dagger" unicode="&#x2020;" horiz-adv-x="373" 
d="M60 506h98v186h58v-186h97v-52h-97v-523h-58v523h-98v52z" />
    <glyph glyph-name="daggerdbl" unicode="&#x2021;" horiz-adv-x="373" 
d="M60 169h98v285h-98v52h98v186h58v-186h97v-52h-97v-285h97v-52h-97v-186h-58v186h-98v52z" />
    <glyph glyph-name="bullet" unicode="&#x2022;" horiz-adv-x="258" 
d="M73 354h112v-122h-112v122z" />
    <glyph glyph-name="ellipsis" unicode="&#x2026;" horiz-adv-x="524" 
d="M56 86h80v-86h-80v86zM222 86h80v-86h-80v86zM388 86h80v-86h-80v86z" />
    <glyph glyph-name="perthousand" unicode="&#x2030;" horiz-adv-x="868" 
d="M29 577q0 53 30 88t83 35t83 -35t30 -88v-46q0 -53 -30 -88t-83 -35t-83 35t-30 88v46zM452 692h60l-364 -692h-60zM97 474q16 -20 45 -20t45 20t16 60v40q0 40 -16 60t-45 20t-45 -20t-16 -60v-40q0 -40 16 -60zM345 161q0 53 30 88t83 35t83 -35t30 -88v-46
q0 -53 -30 -88t-83 -35t-83 35t-30 88v46zM617 161q0 53 30 88t83 35t83 -35t30 -88v-46q0 -53 -30 -88t-83 -35t-83 35t-30 88v46zM413 58q16 -20 45 -20t45 20t16 60v40q0 40 -16 60t-45 20t-45 -20t-16 -60v-40q0 -40 16 -60zM685 58q16 -20 45 -20t45 20t16 60v40
q0 40 -16 60t-45 20t-45 -20t-16 -60v-40q0 -40 16 -60z" />
    <glyph glyph-name="guilsinglleft" unicode="&#x2039;" horiz-adv-x="244" 
d="M134 433h62l-97 -165l97 -165h-62l-97 165z" />
    <glyph glyph-name="guilsinglright" unicode="&#x203a;" horiz-adv-x="244" 
d="M110 103h-62l97 165l-97 165h62l97 -165z" />
    <glyph glyph-name="fraction" unicode="&#x2044;" horiz-adv-x="157" 
d="M264 692h53l-424 -692h-53z" />
    <glyph glyph-name="Euro" unicode="&#x20ac;" horiz-adv-x="386" 
d="M350 191v-31q0 -78 -38.5 -123t-101.5 -45t-101.5 45t-38.5 123v107h-41v50h41v59h-41v50h41v106q0 78 38.5 123t101.5 45q62 0 99.5 -45t37.5 -123v-21h-62v18q0 56 -20 85.5t-55 29.5q-36 0 -57 -29.5t-21 -85.5v-103h153v-50h-153v-59h153v-50h-153v-104
q0 -56 21 -85.5t57 -29.5t57 29.5t21 85.5v28h62z" />
    <glyph glyph-name="uni20BD" unicode="&#x20bd;" horiz-adv-x="376" 
d="M27 225h54v79h-54v56h54v332h115q63 0 102 -39.5t39 -102.5v-104q0 -63 -39 -102.5t-102 -39.5h-53v-79h117v-56h-117v-169h-62v169h-54v56zM193 360q37 0 59.5 23t22.5 66v98q0 43 -22.5 66t-59.5 23h-50v-276h50z" />
    <glyph glyph-name="uni2116" unicode="&#x2116;" horiz-adv-x="796" 
d="M364 692v-692h-56l-176 512v-512h-62v692h56l176 -512v512h62zM473 554q0 62 37.5 104t99.5 42t99.5 -42t37.5 -104v-108q0 -62 -37.5 -104t-99.5 -42t-99.5 42t-37.5 104v108zM555.5 381q20.5 -25 54.5 -25t54.5 25t20.5 68v102q0 43 -20.5 68t-54.5 25t-54.5 -25
t-20.5 -68v-102q0 -43 20.5 -68zM737 264v-56h-254v56h254z" />
    <glyph glyph-name="trademark" unicode="&#x2122;" horiz-adv-x="566" 
d="M33 692h182v-40h-68v-288h-46v288h-68v40zM506 692v-328h-46v221l-69 -162h-16l-69 162v-221h-46v328h44l79 -196l79 196h44z" />
    <glyph glyph-name="oneeighth" unicode="&#x215b;" horiz-adv-x="534" 
d="M151 413v-44h-128v44h42v235h-37v44h85v-279h38zM442 692h53l-424 -692h-53zM513 109v-31q0 -38 -22 -62t-56 -24t-56.5 24t-22.5 62v31q0 42 28 64q-24 21 -24 59v17q0 36 21 59t54 23q32 0 53 -23t21 -59v-17q0 -38 -24 -59q28 -22 28 -64zM408 231q0 -18 7 -28t20 -10
q12 0 19 10t7 28v18q0 18 -7 28t-19 10q-13 0 -20 -10t-7 -28v-18zM466 110q0 19 -8.5 30.5t-22.5 11.5t-22.5 -11.5t-8.5 -30.5v-32q0 -19 8.5 -30.5t22.5 -11.5t22.5 11.5t8.5 30.5v32z" />
    <glyph glyph-name="threeeighths" unicode="&#x215c;" horiz-adv-x="544" 
d="M166 487v-40q0 -39 -20 -62.5t-54 -23.5q-33 0 -53 23.5t-20 62.5v21h48v-20q0 -43 25 -43q12 0 19 11.5t7 31.5v36q0 22 -8.5 32.5t-25.5 10.5h-32v28l56 93h-87v44h144v-33l-58 -92q59 -16 59 -80zM452 692h53l-424 -692h-53zM523 109v-31q0 -38 -22 -62t-56 -24
t-56.5 24t-22.5 62v31q0 42 28 64q-24 21 -24 59v17q0 36 21 59t54 23q32 0 53 -23t21 -59v-17q0 -38 -24 -59q28 -22 28 -64zM418 231q0 -18 7 -28t20 -10q12 0 19 10t7 28v18q0 18 -7 28t-19 10q-13 0 -20 -10t-7 -28v-18zM476 110q0 19 -8.5 30.5t-22.5 11.5t-22.5 -11.5
t-8.5 -30.5v-32q0 -19 8.5 -30.5t22.5 -11.5t22.5 11.5t8.5 30.5v32z" />
    <glyph glyph-name="fiveeighths" unicode="&#x215d;" horiz-adv-x="541" 
d="M149 564q18 -22 18 -60v-57q0 -39 -20 -62.5t-54 -23.5q-33 0 -53 23.5t-20 62.5v21h48v-20q0 -43 25 -43q12 0 19 11t7 32v53q0 41 -24 41q-11 0 -18 -7t-9 -18h-44l6 175h132v-44h-89l-2 -68q12 6 28 6q32 0 50 -22zM449 692h53l-424 -692h-53zM520 109v-31
q0 -38 -22 -62t-56 -24t-56.5 24t-22.5 62v31q0 42 28 64q-24 21 -24 59v17q0 36 21 59t54 23q32 0 53 -23t21 -59v-17q0 -38 -24 -59q28 -22 28 -64zM415 231q0 -18 7 -28t20 -10q12 0 19 10t7 28v18q0 18 -7 28t-19 10q-13 0 -20 -10t-7 -28v-18zM473 110q0 19 -8.5 30.5
t-22.5 11.5t-22.5 -11.5t-8.5 -30.5v-32q0 -19 8.5 -30.5t22.5 -11.5t22.5 11.5t8.5 30.5v32z" />
    <glyph glyph-name="seveneighths" unicode="&#x215e;" horiz-adv-x="529" 
d="M13 692h152v-32l-79 -291h-50l76 279h-51v-41h-48v85zM437 692h53l-424 -692h-53zM508 109v-31q0 -38 -22 -62t-56 -24t-56.5 24t-22.5 62v31q0 42 28 64q-24 21 -24 59v17q0 36 21 59t54 23q32 0 53 -23t21 -59v-17q0 -38 -24 -59q28 -22 28 -64zM403 231q0 -18 7 -28
t20 -10q12 0 19 10t7 28v18q0 18 -7 28t-19 10q-13 0 -20 -10t-7 -28v-18zM461 110q0 19 -8.5 30.5t-22.5 11.5t-22.5 -11.5t-8.5 -30.5v-32q0 -19 8.5 -30.5t22.5 -11.5t22.5 11.5t8.5 30.5v32z" />
    <glyph glyph-name="arrowleft" unicode="&#x2190;" horiz-adv-x="534" 
d="M162 291l138 -140h-78l-155 160v14l155 160h78l-138 -140h321v-54h-321z" />
    <glyph glyph-name="arrowup" unicode="&#x2191;" horiz-adv-x="522" 
d="M234 89v341l-140 -138v78l160 155h14l160 -155v-78l-140 138v-341h-54z" />
    <glyph glyph-name="arrowright" unicode="&#x2192;" horiz-adv-x="534" 
d="M51 345h321l-138 140h78l155 -160v-14l-155 -160h-78l138 140h-321v54z" />
    <glyph glyph-name="arrowdown" unicode="&#x2193;" horiz-adv-x="522" 
d="M288 184l140 138v-78l-160 -155h-14l-160 155v78l140 -138v341h54v-341z" />
    <glyph glyph-name="uni2196" unicode="&#x2196;" horiz-adv-x="497" 
d="M144 384l-1 -196l-55 55l3 223l10 10l223 3l55 -55l-196 -1l258 -259l-38 -38z" />
    <glyph glyph-name="uni2197" unicode="&#x2197;" horiz-adv-x="497" 
d="M56 164l258 259l-196 1l55 55l223 -3l10 -10l3 -223l-55 -55l-1 196l-259 -258z" />
    <glyph glyph-name="uni2198" unicode="&#x2198;" horiz-adv-x="497" 
d="M353 221l1 196l55 -55l-3 -223l-10 -10l-223 -3l-55 55l196 1l-258 259l38 38z" />
    <glyph glyph-name="uni2199" unicode="&#x2199;" horiz-adv-x="497" 
d="M441 441l-258 -259l196 -1l-55 -55l-223 3l-10 10l-3 223l55 55l1 -196l259 258z" />
    <glyph glyph-name="minus" unicode="&#x2212;" horiz-adv-x="394" 
d="M319 326v-50h-244v50h244z" />
    <glyph glyph-name="approxequal" unicode="&#x2248;" horiz-adv-x="399" 
d="M85.5 403.5q20.5 23.5 49.5 23.5q19 0 35 -7.5t36 -21.5q28 -20 37 -25.5t17 -5.5q11 0 16 11.5t5 41.5h53q0 -56 -20.5 -79.5t-49.5 -23.5q-19 0 -35 7.5t-36 21.5q-28 20 -37 25.5t-17 5.5q-11 0 -16 -11.5t-5 -41.5h-53q0 56 20.5 79.5zM85.5 281.5
q20.5 23.5 49.5 23.5q19 0 35 -7.5t36 -21.5q28 -20 37 -25.5t17 -5.5q11 0 16 11.5t5 41.5h53q0 -56 -20.5 -79.5t-49.5 -23.5q-19 0 -35 7.5t-36 21.5q-28 20 -37 25.5t-17 5.5q-11 0 -16 -11.5t-5 -41.5h-53q0 56 20.5 79.5z" />
    <glyph glyph-name="notequal" unicode="&#x2260;" horiz-adv-x="410" 
d="M246 337l-30 -72h119v-50h-139l-37 -92h-52l37 92h-69v50h89l30 72h-119v50h139l37 92h52l-37 -92h69v-50h-89z" />
    <glyph glyph-name="lessequal" unicode="&#x2264;" horiz-adv-x="412" 
d="M82 323v47l245 100v-58l-180 -65l180 -66v-58zM82 133v50h245v-50h-245z" />
    <glyph glyph-name="greaterequal" unicode="&#x2265;" horiz-adv-x="412" 
d="M85 281l180 66l-180 65v58l245 -100v-47l-245 -100v58zM85 183h245v-50h-245v50z" />
    <glyph glyph-name="i.loclTRK" horiz-adv-x="182" 
d="M60 534h62v-534h-62v534zM55 700h72v-84h-72v84z" />
    <glyph glyph-name="zero.osf" horiz-adv-x="394" 
d="M49 374q0 77 41 122.5t107 45.5t107 -45.5t41 -122.5v-214q0 -77 -41 -122.5t-107 -45.5t-107 45.5t-41 122.5v214zM135 77.5q24 -29.5 62 -29.5t62 29.5t24 85.5v208q0 56 -24 85.5t-62 29.5t-62 -29.5t-24 -85.5v-208q0 -56 24 -85.5z" />
    <glyph glyph-name="one.osf" horiz-adv-x="300" 
d="M275 56v-56h-240v56h93v422h-82v56h144v-478h85z" />
    <glyph glyph-name="two.osf" horiz-adv-x="349" 
d="M313 56v-56h-284v48l174 216q45 56 45 122q0 49 -20 74.5t-55 25.5t-56.5 -25.5t-21.5 -74.5v-28h-62v31q0 70 39 111.5t101 41.5q63 0 100 -41.5t37 -114.5q0 -82 -49 -144l-152 -186h204z" />
    <glyph glyph-name="three.osf" horiz-adv-x="373" 
d="M321 97v-107q0 -78 -39 -123t-102 -45t-102 45t-39 123v57h62v-54q0 -56 21.5 -85.5t57.5 -29.5t57.5 29.5t21.5 85.5v97q0 117 -84 117h-61v33l142 238h-211v56h275v-47l-134 -225q135 -11 135 -165z" />
    <glyph glyph-name="four.osf" horiz-adv-x="389" 
d="M366 0h-68v-170h-62v170h-214v37l184 497h62l-174 -478h142v168h62v-168h68v-56z" />
    <glyph glyph-name="five.osf" horiz-adv-x="374" 
d="M296 256q35 -41 35 -122v-144q0 -78 -39 -123t-102 -45t-102 45t-39 123v57h62v-54q0 -56 21.5 -85.5t57.5 -29.5t57.5 29.5t21.5 85.5v134q0 114 -74 114q-30 0 -52 -15.5t-29 -40.5h-55l12 349h249v-56h-194l-8 -217q31 36 84 36q59 0 94 -41z" />
    <glyph glyph-name="six.osf" horiz-adv-x="384" 
d="M269.5 373.5q35.5 -21.5 55.5 -61t20 -91.5v-55q0 -52 -20 -91.5t-55.5 -61t-79.5 -21.5t-79.5 21.5t-55.5 61t-20 91.5v55q0 44 18 87l159 384h62l-127 -303q19 6 43 6q44 0 79.5 -21.5zM283 221q0 56 -25.5 87t-67.5 31t-67.5 -31t-25.5 -87v-55q0 -56 25.5 -87
t67.5 -31t67.5 31t25.5 87v55z" />
    <glyph glyph-name="seven.osf" horiz-adv-x="358" 
d="M330 486l-178 -656h-65l175 647h-163v-100h-62v156h293v-47z" />
    <glyph glyph-name="eight.osf" horiz-adv-x="396" 
d="M329 318.5q22 -35.5 22 -88.5v-70q0 -51 -20.5 -89t-55 -58.5t-77.5 -20.5t-77.5 20.5t-55 58.5t-20.5 89v70q0 53 22 88.5t61 52.5q-35 16 -54.5 49.5t-19.5 81.5v38q0 71 40.5 115.5t103.5 44.5t103.5 -44.5t40.5 -115.5v-38q0 -48 -19.5 -81.5t-54.5 -49.5
q39 -17 61 -52.5zM116 505q0 -50 23.5 -78.5t58.5 -28.5t58.5 28.5t23.5 78.5v32q0 50 -23.5 78.5t-58.5 28.5t-58.5 -28.5t-23.5 -78.5v-32zM289 227q0 55 -26.5 85t-64.5 30t-64.5 -30t-26.5 -85v-64q0 -55 26.5 -85t64.5 -30t64.5 30t26.5 85v64z" />
    <glyph glyph-name="nine.osf" horiz-adv-x="384" 
d="M273.5 520.5q35.5 -21.5 55.5 -61t20 -91.5v-55q0 -44 -18 -87l-159 -396h-62l127 315q-21 -6 -43 -6q-44 0 -79.5 21.5t-55.5 61t-20 91.5v55q0 52 20 91.5t55.5 61t79.5 21.5t79.5 -21.5zM287 368q0 56 -25.5 87t-67.5 31t-67.5 -31t-25.5 -87v-55q0 -56 25.5 -87
t67.5 -31t67.5 31t25.5 87v55z" />
    <glyph glyph-name="zero.ss01" horiz-adv-x="402" 
d="M308 654.5q41 -45.5 41 -122.5v-372q0 -77 -41 -122.5t-107 -45.5t-107 45.5t-41 122.5v372q0 77 41 122.5t107 45.5t107 -45.5zM139 614.5q-24 -29.5 -24 -85.5v-229l172 159v70q0 56 -24 85.5t-62 29.5t-62 -29.5zM263 77.5q24 29.5 24 85.5v220l-172 -159v-61
q0 -56 24 -85.5t62 -29.5t62 29.5z" />
    <glyph glyph-name="one.ss01" horiz-adv-x="237" 
d="M87 636l28 56h34v-692h-62v636z" />
    <glyph glyph-name="two.ss01" horiz-adv-x="358" 
d="M317 56v-56h-284v64q0 119 86 221l73 86q29 35 44.5 74.5t15.5 88.5q0 56 -19.5 83t-55.5 27t-57 -27.5t-21 -82.5v-28h-62v31q0 77 38.5 120t101.5 43q64 0 100.5 -43t36.5 -124q0 -112 -76 -202l-76 -90q-34 -40 -50.5 -84t-16.5 -96v-5h222z" />
    <glyph glyph-name="four.ss01" horiz-adv-x="398" 
d="M371 178h-68v-178h-62v178h-219v37l244 477h37v-458h68v-56zM241 234v298l-154 -298h154z" />
    <glyph glyph-name="five.ss01" horiz-adv-x="375" 
d="M294 394q38 -41 38 -122v-112q0 -78 -39.5 -123t-105.5 -45q-65 0 -101.5 43t-36.5 115v61h62v-58q0 -51 19.5 -78t56.5 -27q39 0 61 29t22 86v102q0 114 -79 114h-134v313h258v-56h-198v-201h74q65 0 103 -41z" />
    <glyph glyph-name="six.ss01" horiz-adv-x="391" 
d="M53 532q0 78 39.5 123t105.5 45q65 0 101.5 -43t36.5 -115v-11h-62v8q0 51 -19.5 78t-56.5 27q-39 0 -61 -29t-22 -86v-144q30 43 93 43q67 0 103 -44.5t36 -126.5v-97q0 -77 -41.5 -122.5t-105.5 -45.5t-105.5 45.5t-41.5 122.5v372zM139 78q24 -30 61 -30t61 30t24 85
v87q0 59 -21.5 90.5t-63.5 31.5t-63.5 -31.5t-21.5 -90.5v-87q0 -55 24 -85z" />
    <glyph glyph-name="seven.ss01" horiz-adv-x="358" 
d="M330 645l-72 -266h53v-56h-68l-88 -323h-65l87 323h-83v56h98l70 257h-163v-100h-62v156h293v-47z" />
    <glyph glyph-name="nine.ss01" horiz-adv-x="391" 
d="M338 160q0 -78 -39.5 -123t-105.5 -45q-65 0 -101.5 43t-36.5 115v21h62v-18q0 -51 19.5 -78t56.5 -27q39 0 61 29t22 86v149q-30 -43 -93 -43q-67 0 -103 44.5t-36 126.5v92q0 77 41.5 122.5t105.5 45.5t105.5 -45.5t41.5 -122.5v-372zM252 614q-24 30 -61 30t-61 -30
t-24 -85v-82q0 -59 21.5 -90.5t63.5 -31.5t63.5 31.5t21.5 90.5v82q0 55 -24 85z" />
    <glyph glyph-name="zero.subs" horiz-adv-x="203" 
d="M25 119q0 38 21 62t55 24t55.5 -24t21.5 -62v-167q0 -38 -21.5 -62t-55.5 -24t-55 24t-21 62v167zM101 -90q14 0 21.5 11t7.5 32v165q0 21 -7.5 32t-21.5 11q-13 0 -20.5 -11t-7.5 -32v-165q0 -43 28 -43z" />
    <glyph glyph-name="one.subs" horiz-adv-x="168" 
d="M151 -82v-44h-128v44h42v235h-37v44h85v-279h38z" />
    <glyph glyph-name="two.subs" horiz-adv-x="185" 
d="M165 -81v-45h-147v33l87 162q11 20 11 51q0 41 -24 41q-25 0 -25 -41v-13h-48v14q0 38 19.5 61t53.5 23t53 -22.5t19 -62.5t-16 -70l-71 -131h88z" />
    <glyph glyph-name="three.subs" horiz-adv-x="188" 
d="M166 -8v-40q0 -39 -20 -62.5t-54 -23.5q-33 0 -53 23.5t-20 62.5v21h48v-20q0 -43 25 -43q12 0 19 11.5t7 31.5v36q0 22 -8.5 32.5t-25.5 10.5h-32v28l56 93h-87v44h144v-33l-58 -92q59 -16 59 -80z" />
    <glyph glyph-name="four.subs" horiz-adv-x="201" 
d="M187 -49h-30v-77h-48v77h-97v28l73 218h49l-65 -202h40v51h48v-51h30v-44z" />
    <glyph glyph-name="five.subs" horiz-adv-x="185" 
d="M149 69q18 -22 18 -60v-57q0 -39 -20 -62.5t-54 -23.5q-33 0 -53 23.5t-20 62.5v21h48v-20q0 -43 25 -43q12 0 19 11t7 32v53q0 41 -24 41q-11 0 -18 -7t-9 -18h-44l6 175h132v-44h-89l-2 -68q12 6 28 6q32 0 50 -22z" />
    <glyph glyph-name="six.subs" horiz-adv-x="200" 
d="M156.5 42q22.5 -24 22.5 -63v-25q0 -38 -22.5 -63t-57.5 -25q-34 0 -56.5 25t-22.5 63v25q0 20 9 43l71 175h50l-55 -131h4q35 0 57.5 -24zM131 -21q0 21 -8.5 32t-23.5 11t-23.5 -11t-8.5 -32v-25q0 -21 8 -32.5t24 -11.5t24 11.5t8 32.5v25z" />
    <glyph glyph-name="seven.subs" horiz-adv-x="181" 
d="M13 197h152v-32l-79 -291h-50l76 279h-51v-41h-48v85z" />
    <glyph glyph-name="eight.subs" horiz-adv-x="199" 
d="M178 -17v-31q0 -38 -22 -62t-56 -24t-56.5 24t-22.5 62v31q0 42 28 64q-24 21 -24 59v17q0 36 21 59t54 23q32 0 53 -23t21 -59v-17q0 -38 -24 -59q28 -22 28 -64zM73 105q0 -18 7 -28t20 -10q12 0 19 10t7 28v18q0 18 -7 28t-19 10q-13 0 -20 -10t-7 -28v-18zM131 -16
q0 19 -8.5 30.5t-22.5 11.5t-22.5 -11.5t-8.5 -30.5v-32q0 -19 8.5 -30.5t22.5 -11.5t22.5 11.5t8.5 30.5v32z" />
    <glyph glyph-name="nine.subs" horiz-adv-x="200" 
d="M157.5 180q22.5 -25 22.5 -64v-24q0 -23 -9 -44l-72 -174h-49l54 129h-4q-35 0 -57 25t-22 64v24q0 39 22 64t57 25t57.5 -25zM77.5 59q8.5 -12 22.5 -12q15 0 23.5 12t8.5 33v24q0 21 -8 33t-24 12q-31 0 -31 -45v-24q0 -21 8.5 -33z" />
    <glyph glyph-name="zero.dnom" horiz-adv-x="203" 
d="M25 245q0 38 21 62t55 24t55.5 -24t21.5 -62v-167q0 -38 -21.5 -62t-55.5 -24t-55 24t-21 62v167zM101 36q14 0 21.5 11t7.5 32v165q0 21 -7.5 32t-21.5 11q-13 0 -20.5 -11t-7.5 -32v-165q0 -43 28 -43z" />
    <glyph glyph-name="one.dnom" horiz-adv-x="168" 
d="M151 44v-44h-128v44h42v235h-37v44h85v-279h38z" />
    <glyph glyph-name="two.dnom" horiz-adv-x="185" 
d="M165 45v-45h-147v33l87 162q11 20 11 51q0 41 -24 41q-25 0 -25 -41v-13h-48v14q0 38 19.5 61t53.5 23t53 -22.5t19 -62.5t-16 -70l-71 -131h88z" />
    <glyph glyph-name="three.dnom" horiz-adv-x="188" 
d="M166 118v-40q0 -39 -20 -62.5t-54 -23.5q-33 0 -53 23.5t-20 62.5v21h48v-20q0 -43 25 -43q12 0 19 11.5t7 31.5v36q0 22 -8.5 32.5t-25.5 10.5h-32v28l56 93h-87v44h144v-33l-58 -92q59 -16 59 -80z" />
    <glyph glyph-name="four.dnom" horiz-adv-x="201" 
d="M187 77h-30v-77h-48v77h-97v28l73 218h49l-65 -202h40v51h48v-51h30v-44z" />
    <glyph glyph-name="five.dnom" horiz-adv-x="185" 
d="M149 195q18 -22 18 -60v-57q0 -39 -20 -62.5t-54 -23.5q-33 0 -53 23.5t-20 62.5v21h48v-20q0 -43 25 -43q12 0 19 11t7 32v53q0 41 -24 41q-11 0 -18 -7t-9 -18h-44l6 175h132v-44h-89l-2 -68q12 6 28 6q32 0 50 -22z" />
    <glyph glyph-name="six.dnom" horiz-adv-x="200" 
d="M156.5 168q22.5 -24 22.5 -63v-25q0 -38 -22.5 -63t-57.5 -25q-34 0 -56.5 25t-22.5 63v25q0 20 9 43l71 175h50l-55 -131h4q35 0 57.5 -24zM131 105q0 21 -8.5 32t-23.5 11t-23.5 -11t-8.5 -32v-25q0 -21 8 -32.5t24 -11.5t24 11.5t8 32.5v25z" />
    <glyph glyph-name="seven.dnom" horiz-adv-x="181" 
d="M13 323h152v-32l-79 -291h-50l76 279h-51v-41h-48v85z" />
    <glyph glyph-name="eight.dnom" horiz-adv-x="199" 
d="M178 109v-31q0 -38 -22 -62t-56 -24t-56.5 24t-22.5 62v31q0 42 28 64q-24 21 -24 59v17q0 36 21 59t54 23q32 0 53 -23t21 -59v-17q0 -38 -24 -59q28 -22 28 -64zM73 231q0 -18 7 -28t20 -10q12 0 19 10t7 28v18q0 18 -7 28t-19 10q-13 0 -20 -10t-7 -28v-18zM131 110
q0 19 -8.5 30.5t-22.5 11.5t-22.5 -11.5t-8.5 -30.5v-32q0 -19 8.5 -30.5t22.5 -11.5t22.5 11.5t8.5 30.5v32z" />
    <glyph glyph-name="nine.dnom" horiz-adv-x="200" 
d="M157.5 306q22.5 -25 22.5 -64v-24q0 -23 -9 -44l-72 -174h-49l54 129h-4q-35 0 -57 25t-22 64v24q0 39 22 64t57 25t57.5 -25zM77.5 185q8.5 -12 22.5 -12q15 0 23.5 12t8.5 33v24q0 21 -8 33t-24 12q-31 0 -31 -45v-24q0 -21 8.5 -33z" />
    <glyph glyph-name="zero.numr" horiz-adv-x="203" 
d="M25 614q0 38 21 62t55 24t55.5 -24t21.5 -62v-167q0 -38 -21.5 -62t-55.5 -24t-55 24t-21 62v167zM101 405q14 0 21.5 11t7.5 32v165q0 21 -7.5 32t-21.5 11q-13 0 -20.5 -11t-7.5 -32v-165q0 -43 28 -43z" />
    <glyph glyph-name="one.numr" horiz-adv-x="168" 
d="M151 413v-44h-128v44h42v235h-37v44h85v-279h38z" />
    <glyph glyph-name="two.numr" horiz-adv-x="185" 
d="M165 414v-45h-147v33l87 162q11 20 11 51q0 41 -24 41q-25 0 -25 -41v-13h-48v14q0 38 19.5 61t53.5 23t53 -22.5t19 -62.5t-16 -70l-71 -131h88z" />
    <glyph glyph-name="three.numr" horiz-adv-x="188" 
d="M166 487v-40q0 -39 -20 -62.5t-54 -23.5q-33 0 -53 23.5t-20 62.5v21h48v-20q0 -43 25 -43q12 0 19 11.5t7 31.5v36q0 22 -8.5 32.5t-25.5 10.5h-32v28l56 93h-87v44h144v-33l-58 -92q59 -16 59 -80z" />
    <glyph glyph-name="four.numr" horiz-adv-x="201" 
d="M187 446h-30v-77h-48v77h-97v28l73 218h49l-65 -202h40v51h48v-51h30v-44z" />
    <glyph glyph-name="five.numr" horiz-adv-x="185" 
d="M149 564q18 -22 18 -60v-57q0 -39 -20 -62.5t-54 -23.5q-33 0 -53 23.5t-20 62.5v21h48v-20q0 -43 25 -43q12 0 19 11t7 32v53q0 41 -24 41q-11 0 -18 -7t-9 -18h-44l6 175h132v-44h-89l-2 -68q12 6 28 6q32 0 50 -22z" />
    <glyph glyph-name="six.numr" horiz-adv-x="200" 
d="M156.5 537q22.5 -24 22.5 -63v-25q0 -38 -22.5 -63t-57.5 -25q-34 0 -56.5 25t-22.5 63v25q0 20 9 43l71 175h50l-55 -131h4q35 0 57.5 -24zM131 474q0 21 -8.5 32t-23.5 11t-23.5 -11t-8.5 -32v-25q0 -21 8 -32.5t24 -11.5t24 11.5t8 32.5v25z" />
    <glyph glyph-name="seven.numr" horiz-adv-x="181" 
d="M13 692h152v-32l-79 -291h-50l76 279h-51v-41h-48v85z" />
    <glyph glyph-name="eight.numr" horiz-adv-x="199" 
d="M178 478v-31q0 -38 -22 -62t-56 -24t-56.5 24t-22.5 62v31q0 42 28 64q-24 21 -24 59v17q0 36 21 59t54 23q32 0 53 -23t21 -59v-17q0 -38 -24 -59q28 -22 28 -64zM73 600q0 -18 7 -28t20 -10q12 0 19 10t7 28v18q0 18 -7 28t-19 10q-13 0 -20 -10t-7 -28v-18zM131 479
q0 19 -8.5 30.5t-22.5 11.5t-22.5 -11.5t-8.5 -30.5v-32q0 -19 8.5 -30.5t22.5 -11.5t22.5 11.5t8.5 30.5v32z" />
    <glyph glyph-name="nine.numr" horiz-adv-x="200" 
d="M157.5 675q22.5 -25 22.5 -64v-24q0 -23 -9 -44l-72 -174h-49l54 129h-4q-35 0 -57 25t-22 64v24q0 39 22 64t57 25t57.5 -25zM77.5 554q8.5 -12 22.5 -12q15 0 23.5 12t8.5 33v24q0 21 -8 33t-24 12q-31 0 -31 -45v-24q0 -21 8.5 -33z" />
    <glyph glyph-name="zero.sups" horiz-adv-x="203" 
d="M25 684q0 38 21 62t55 24t55.5 -24t21.5 -62v-167q0 -38 -21.5 -62t-55.5 -24t-55 24t-21 62v167zM101 475q14 0 21.5 11t7.5 32v165q0 21 -7.5 32t-21.5 11q-13 0 -20.5 -11t-7.5 -32v-165q0 -43 28 -43z" />
    <glyph glyph-name="one.sups" horiz-adv-x="168" 
d="M151 483v-44h-128v44h42v235h-37v44h85v-279h38z" />
    <glyph glyph-name="two.sups" horiz-adv-x="185" 
d="M165 484v-45h-147v33l87 162q11 20 11 51q0 41 -24 41q-25 0 -25 -41v-13h-48v14q0 38 19.5 61t53.5 23t53 -22.5t19 -62.5t-16 -70l-71 -131h88z" />
    <glyph glyph-name="three.sups" horiz-adv-x="188" 
d="M166 557v-40q0 -39 -20 -62.5t-54 -23.5q-33 0 -53 23.5t-20 62.5v21h48v-20q0 -43 25 -43q12 0 19 11.5t7 31.5v36q0 22 -8.5 32.5t-25.5 10.5h-32v28l56 93h-87v44h144v-33l-58 -92q59 -16 59 -80z" />
    <glyph glyph-name="four.sups" horiz-adv-x="201" 
d="M187 516h-30v-77h-48v77h-97v28l73 218h49l-65 -202h40v51h48v-51h30v-44z" />
    <glyph glyph-name="five.sups" horiz-adv-x="185" 
d="M149 634q18 -22 18 -60v-57q0 -39 -20 -62.5t-54 -23.5q-33 0 -53 23.5t-20 62.5v21h48v-20q0 -43 25 -43q12 0 19 11t7 32v53q0 41 -24 41q-11 0 -18 -7t-9 -18h-44l6 175h132v-44h-89l-2 -68q12 6 28 6q32 0 50 -22z" />
    <glyph glyph-name="six.sups" horiz-adv-x="200" 
d="M156.5 607q22.5 -24 22.5 -63v-25q0 -38 -22.5 -63t-57.5 -25q-34 0 -56.5 25t-22.5 63v25q0 20 9 43l71 175h50l-55 -131h4q35 0 57.5 -24zM131 544q0 21 -8.5 32t-23.5 11t-23.5 -11t-8.5 -32v-25q0 -21 8 -32.5t24 -11.5t24 11.5t8 32.5v25z" />
    <glyph glyph-name="seven.sups" horiz-adv-x="181" 
d="M13 762h152v-32l-79 -291h-50l76 279h-51v-41h-48v85z" />
    <glyph glyph-name="eight.sups" horiz-adv-x="199" 
d="M178 548v-31q0 -38 -22 -62t-56 -24t-56.5 24t-22.5 62v31q0 42 28 64q-24 21 -24 59v17q0 36 21 59t54 23q32 0 53 -23t21 -59v-17q0 -38 -24 -59q28 -22 28 -64zM73 670q0 -18 7 -28t20 -10q12 0 19 10t7 28v18q0 18 -7 28t-19 10q-13 0 -20 -10t-7 -28v-18zM131 549
q0 19 -8.5 30.5t-22.5 11.5t-22.5 -11.5t-8.5 -30.5v-32q0 -19 8.5 -30.5t22.5 -11.5t22.5 11.5t8.5 30.5v32z" />
    <glyph glyph-name="nine.sups" horiz-adv-x="200" 
d="M157.5 745q22.5 -25 22.5 -64v-24q0 -23 -9 -44l-72 -174h-49l54 129h-4q-35 0 -57 25t-22 64v24q0 39 22 64t57 25t57.5 -25zM77.5 624q8.5 -12 22.5 -12q15 0 23.5 12t8.5 33v24q0 21 -8 33t-24 12q-31 0 -31 -45v-24q0 -21 8.5 -33z" />
    <glyph glyph-name="periodcentered.case" horiz-adv-x="218" 
d="M56 398h80v-86h-80v86z" />
    <glyph glyph-name="bullet.case" horiz-adv-x="258" 
d="M73 416h112v-122h-112v122z" />
    <glyph glyph-name="braceleft.case" horiz-adv-x="258" 
d="M111 346q41 -20 41 -74v-227q0 -29 9.5 -43.5t35.5 -14.5h20v-52h-27q-96 0 -96 108v227q0 50 -40 50h-20v52h20q40 0 40 50v227q0 108 96 108h27v-52h-20q-26 0 -35.5 -14.5t-9.5 -43.5v-227q0 -54 -41 -74z" />
    <glyph glyph-name="braceright.case" horiz-adv-x="258" 
d="M224 372v-52h-20q-40 0 -40 -50v-227q0 -108 -96 -108h-27v52h20q26 0 35.5 14.5t9.5 43.5v227q0 54 41 74q-41 20 -41 74v227q0 29 -9.5 43.5t-35.5 14.5h-20v52h27q96 0 96 -108v-227q0 -50 40 -50h20z" />
    <glyph glyph-name="bracketleft.case" horiz-adv-x="244" 
d="M77 757h133v-52h-75v-718h75v-52h-133v822z" />
    <glyph glyph-name="bracketright.case" horiz-adv-x="248" 
d="M38 -13h75v718h-75v52h133v-822h-133v52z" />
    <glyph glyph-name="parenleft.case" horiz-adv-x="250" 
d="M91 562.5q27 100.5 84 194.5h53q-50 -97 -76 -201t-26 -210t26 -210t76 -201h-53q-57 94 -84 194.5t-27 216.5t27 216.5z" />
    <glyph glyph-name="parenright.case" horiz-adv-x="250" 
d="M159 129.5q-27 -100.5 -84 -194.5h-53q50 97 76 201t26 210t-26 210t-76 201h53q57 -94 84 -194.5t27 -216.5t-27 -216.5z" />
    <glyph glyph-name="emdash.case" horiz-adv-x="482" 
d="M424 391v-56h-366v56h366z" />
    <glyph glyph-name="endash.case" horiz-adv-x="403" 
d="M345 391v-56h-287v56h287z" />
    <glyph glyph-name="hyphen.case" horiz-adv-x="291" 
d="M233 391v-56h-175v56h175z" />
    <glyph glyph-name="guillemotleft.case" horiz-adv-x="390" 
d="M134 503h62l-97 -165l97 -165h-62l-97 165zM280 503h62l-97 -165l97 -165h-62l-97 165z" />
    <glyph glyph-name="guillemotright.case" horiz-adv-x="390" 
d="M110 173h-62l97 165l-97 165h62l97 -165zM256 173h-62l97 165l-97 165h62l97 -165z" />
    <glyph glyph-name="guilsinglleft.case" horiz-adv-x="244" 
d="M134 495h62l-97 -165l97 -165h-62l-97 165z" />
    <glyph glyph-name="guilsinglright.case" horiz-adv-x="244" 
d="M110 165h-62l97 165l-97 165h62l97 -165z" />
    <glyph glyph-name="uni0308.case" 
d="M-192 837h68v-74h-68v74zM-62 837h68v-74h-68v74z" />
    <glyph glyph-name="uni0307.case" 
d="M-76 850h72v-84h-72v84z" />
    <glyph glyph-name="gravecomb.case" 
d="M-76 742l-65 93h70l51 -93h-56z" />
    <glyph glyph-name="acutecomb.case" 
d="M-90 835h70l-65 -93h-56z" />
    <glyph glyph-name="uni030B.case" 
d="M-206 830h59l-63 -88h-54zM-86 830h59l-63 -88h-54z" />
    <glyph glyph-name="uni0302.case" 
d="M-76 742l-53 67l-53 -67h-56l86 108h46l86 -108h-56z" />
    <glyph glyph-name="uni030C.case" 
d="M-9 850l-86 -108h-46l-86 108h56l53 -67l53 67h56z" />
    <glyph glyph-name="uni0306.case" 
d="M-187.5 762.5q-28.5 24.5 -28.5 62.5h52q0 -19 13.5 -30.5t35.5 -11.5t35.5 11.5t13.5 30.5h52q0 -38 -28.5 -62.5t-72.5 -24.5t-72.5 24.5z" />
    <glyph glyph-name="uni030A.case" 
d="M-148.5 857.5q23.5 20.5 60.5 20.5t60.5 -20.5t23.5 -52.5t-23.5 -52.5t-60.5 -20.5t-60.5 20.5t-23.5 52.5t23.5 52.5zM-118 779.5q12 -10.5 30 -10.5t30 10.5t12 25.5t-12 25.5t-30 10.5t-30 -10.5t-12 -25.5t12 -25.5z" />
    <glyph glyph-name="tildecomb.case" 
d="M-202.5 814q17.5 19 43.5 19q22 0 56 -21q3 -2 19 -11.5t25 -9.5t15 9t6 30h45q0 -43 -17.5 -62t-43.5 -19q-22 0 -56 21q-3 2 -19 11.5t-25 9.5t-15 -9t-6 -30h-45q0 43 17.5 62z" />
    <glyph glyph-name="uni0304.case" 
d="M-182 810h180v-50h-180v50z" />
    <glyph glyph-name="uni0312.case" 
d="M-100 744v48l40 89h34l-25 -70h31v-67h-80z" />
    <glyph glyph-name="uni0326.case" 
d="M-20 -56v-48l-40 -89h-34l25 70h-31v67h80z" />
    <glyph glyph-name="uni0327.case" 
d="M-54 -122h-58l36 142h56z" />
    <glyph glyph-name="uni0328.case" 
d="M-64 -50q-14 -17 -14 -32q0 -21 28 -21h43v-50h-48q-35 0 -55 16.5t-20 46.5q0 28 19 52l50 61l41 -23z" />
    <glyph glyph-name="uni0335.case" 
d="M-10 379v-54h-207v54h207z" />
    <glyph glyph-name="uni0336.case" 
d="M-20 572v-54h-392v54h392z" />
    <glyph glyph-name="uni0337.case" 
d="M-20 459v-60l-225 -97v60z" />
    <glyph glyph-name="uni0338.case" 
d="M45 745l-192 -798h-48l192 798h48z" />
    <glyph glyph-name="brevecombcy" 
d="M-266.5 601.5q-28.5 24.5 -28.5 62.5h52q0 -19 13.5 -30.5t35.5 -11.5t35.5 11.5t13.5 30.5h52q0 -38 -28.5 -62.5t-72.5 -24.5t-72.5 24.5z" />
    <glyph glyph-name="russianfonts" horiz-adv-x="600" 
d="M110.5 478q56.5 103 134.5 149t143 46q40 0 70.5 -29.5t46.5 -70.5t16 -72v-6h-23q-51 0 -88.5 -9t-76.5 -40.5t-77 -94.5q-37 -61 -54 -127t-17 -115q0 -40 8 -40q14 0 42.5 30t54.5 79q22 44 42.5 96.5t33.5 91t16 49.5h139v-23l-35 -24v-322l35 -23v-23h-173v23l34 23
v288q-1 -6 -8 -31t-22 -64.5t-38 -83.5q-42 -79 -89.5 -122.5t-84.5 -43.5q-21 0 -41 29t-32.5 80.5t-12.5 114.5q0 162 56.5 265z" />
    </font>
</defs>
</svg>
